<svg width="30" height="29" viewBox="0 0 30 29" fill="none" xmlns="http://www.w3.org/2000/svg">
<g clip-path="url(#clip0_1_93)">
<path fill-rule="evenodd" clip-rule="evenodd" d="M15.7051 0.780032C15.3599 -0.178201 13.9982 -0.159437 13.6796 0.807949L11.166 8.43675C11.0213 8.87608 10.6109 9.17292 10.1484 9.17292H1.84131C0.844639 9.17292 0.387913 10.4146 1.14701 11.0605L8.20653 17.0671C8.53389 17.3456 8.66313 17.7928 8.53478 18.2031L5.96016 26.4325C5.65381 27.4116 6.76611 28.2199 7.60277 27.6262L14.3793 22.8171C14.7638 22.5443 15.2811 22.5547 15.6542 22.8428L22.2861 27.9643C23.1103 28.6008 24.2663 27.8061 23.9673 26.8086L21.3698 18.1396C21.245 17.7234 21.384 17.2731 21.7216 16.9995L29.0307 11.0769C29.815 10.4414 29.3656 9.17292 28.3561 9.17292H19.482C19.0303 9.17292 18.6272 8.88963 18.474 8.46467L15.7051 0.780032Z" fill="#111111"/>
</g>
<defs>
<clipPath id="clip0_1_93">
<rect width="30" height="28.93" fill="white"/>
</clipPath>
</defs>
</svg>
