<svg width="30" height="30" viewBox="0 0 30 30" fill="none" xmlns="http://www.w3.org/2000/svg">
<g clip-path="url(#clip0_1_101)">
<path fill-rule="evenodd" clip-rule="evenodd" d="M15.3014 2.64082C14.9896 1.77514 13.7598 1.79209 13.4719 2.66605L11.2015 9.55808C11.0708 9.95497 10.7002 10.2231 10.2825 10.2231H2.77925C1.87904 10.2231 1.46651 11.3449 2.15214 11.9284L8.52848 17.3549C8.82416 17.6065 8.94089 18.0106 8.82497 18.3812L6.4995 25.8158C6.22281 26.7004 7.22746 27.4307 7.98315 26.8943L14.1039 22.5496C14.4511 22.3032 14.9185 22.3125 15.2554 22.5728L21.2455 27.1997C21.99 27.7747 23.034 27.0568 22.764 26.1556L20.4178 18.3238C20.3052 17.9478 20.4307 17.541 20.7356 17.2939L27.3374 11.9432C28.0458 11.3691 27.6399 10.2231 26.7281 10.2231H18.7128C18.3049 10.2231 17.9407 9.96726 17.8024 9.5833L15.3014 2.64082Z" fill="#111111"/>
<mask id="mask0_1_101" style="mask-type:alpha" maskUnits="userSpaceOnUse" x="1" y="2" width="27" height="26">
<path d="M14.831 2.81029L14.831 2.81026C14.6803 2.39188 14.086 2.39994 13.9468 2.82249L11.6764 9.71451C11.4782 10.3164 10.9162 10.7231 10.2825 10.7231H2.77925C2.34444 10.7231 2.1445 11.2654 2.4762 11.5477M14.831 2.81029L2.4762 11.5477M14.831 2.81029L17.332 9.75273C17.5417 10.335 18.094 10.7231 18.7128 10.7231H26.7281C27.1686 10.7231 27.3652 11.2771 27.0226 11.5548L27.3252 11.9282L27.0226 11.5548L20.4208 16.9054C20.4208 16.9054 20.4208 16.9054 20.4208 16.9054C19.9584 17.2802 19.768 17.8972 19.9389 18.4673L22.2851 26.2991L22.764 26.1556L22.2851 26.2991C22.4157 26.7353 21.9106 27.0816 21.5512 26.804L15.5611 22.1772C15.5611 22.1772 15.5611 22.1772 15.5611 22.1771C15.05 21.7823 14.341 21.7682 13.8145 22.1419L13.8145 22.1419L7.69375 26.4866C7.69374 26.4866 7.69374 26.4866 7.69373 26.4866C7.32879 26.7456 6.84282 26.3931 6.9767 25.9651L6.4995 25.8158L6.9767 25.9651L9.30217 18.5305L8.86442 18.3936L9.30217 18.5305C9.47794 17.9685 9.301 17.3558 8.85253 16.9742C8.85252 16.9742 8.85251 16.9741 8.85249 16.9741M14.831 2.81029L8.85249 16.9741M2.4762 11.5477L8.85249 16.9741M2.4762 11.5477L8.85249 16.9741" fill="white" stroke="black"/>
</mask>
<g mask="url(#mask0_1_101)">
<path d="M37.2852 1.45068H20.1684C19.6339 1.45068 19.2006 1.88407 19.2006 2.41868V28.0707C19.2006 28.6053 19.6339 29.0387 20.1684 29.0387H37.2852C37.8197 29.0387 38.2529 28.6053 38.2529 28.0707V2.41868C38.2529 1.88407 37.8197 1.45068 37.2852 1.45068Z" fill="#D5D8E3"/>
</g>
</g>
<defs>
<clipPath id="clip0_1_101">
<rect width="30" height="29.04" fill="white"/>
</clipPath>
</defs>
</svg>
