<svg width="153" height="43" viewBox="0 0 153 43" fill="none" xmlns="http://www.w3.org/2000/svg">
<g clip-path="url(#clip0_1_112)">
<path d="M78.4819 41.3709H84.2509V25.0829C84.2509 21.1738 87.0528 18.0793 90.679 18.0793C94.3052 18.0793 97.437 21.011 97.437 25.0829V41.3709H103.7V24.7572C103.7 17.7534 97.9314 12.3784 91.6681 12.3784C89.3605 12.3784 86.3935 13.1928 84.2509 16.1246V13.0299H78.4819V41.3709Z" fill="#1D1D1B"/>
<path d="M137.49 12.3784C129.084 12.3784 122.491 19.0564 122.491 27.3633C122.491 35.8329 128.919 42.0224 137.49 42.0224C146.061 42.0224 152.654 35.8329 152.654 27.3633C152.654 19.0564 146.226 12.3784 137.49 12.3784ZM137.49 36.1588C132.71 36.1588 128.919 32.2495 128.919 27.3633C128.919 22.1512 132.875 18.405 137.49 18.405C142.435 18.405 146.391 22.1512 146.391 27.3633C146.391 32.2495 142.6 36.1588 137.49 36.1588Z" fill="#1D1D1B"/>
<path d="M121.502 41.3706V35.3441C117.217 37.4615 113.096 35.8327 113.096 31.1094V18.7306H120.843V13.0297H113.096V5.7002H106.997V30.132C106.997 40.2306 113.92 43.651 121.502 41.3706Z" fill="#1D1D1B"/>
<path d="M60.0214 12.3784C51.6151 12.3784 45.0222 19.0564 45.0222 27.3633C45.0222 35.8329 51.4503 42.0224 60.0214 42.0224C68.5923 42.0224 75.1854 35.8329 75.1854 27.3633C75.1854 19.0564 68.7571 12.3784 60.0214 12.3784ZM60.0214 36.1588C55.2413 36.1588 51.4503 32.2495 51.4503 27.3633C51.4503 22.1512 55.2413 18.405 60.0214 18.405C64.9661 18.405 68.922 22.1512 68.922 27.3633C68.922 32.2495 64.9661 36.1588 60.0214 36.1588Z" fill="#1D1D1B"/>
<path d="M21.2872 0C9.41964 0 0.354156 8.95833 0.354156 21.1743C0.354156 32.9015 9.41964 42.1857 21.2872 42.1857C33.4844 42.1857 42.5499 32.9015 42.5499 21.3371C42.5499 8.95833 33.4844 0 21.2872 0ZM21.2872 35.8333C13.0458 35.8333 6.94722 29.644 6.94722 21.1743C6.94722 12.3788 13.0458 5.86364 21.2872 5.86364C29.6934 5.86364 35.7919 12.3788 35.7919 21.0114C35.7919 29.644 29.6934 35.8333 21.2872 35.8333Z" fill="#1D1D1B"/>
<path d="M41.5608 43.0001C29.6932 41.6971 22.1112 35.8335 18.3202 24.7578L24.254 22.8032C27.2208 31.5987 32.8249 35.9963 42.22 36.9737L41.5608 43.0001Z" fill="#1D1D1B"/>
</g>
<defs>
<clipPath id="clip0_1_112">
<rect width="152.3" height="43" fill="white" transform="translate(0.354156)"/>
</clipPath>
</defs>
</svg>
