<svg width="30" height="31" viewBox="0 0 30 31" fill="none" xmlns="http://www.w3.org/2000/svg">
<g clip-path="url(#clip0_1_50)">
<path fill-rule="evenodd" clip-rule="evenodd" d="M15 0.5C6.71573 0.5 0 7.21573 0 15.5C0 23.7843 6.71573 30.5 15 30.5C23.2843 30.5 30 23.7843 30 15.5C30 7.21573 23.2843 0.5 15 0.5ZM23.3008 6.5L17.028 13.7916L23.85 23.7203H18.8325L14.2384 17.0343L8.48654 23.7203H7L13.5784 16.0739L7 6.5H12.0175L16.3677 12.8312L21.8144 6.5H23.3008ZM14.3255 15.2049L14.992 16.1583L19.5319 22.6522H21.8151L16.2518 14.6944L15.5852 13.7411L11.3054 7.61904H9.02215L14.3255 15.2049Z" fill="#1D1D1B"/>
</g>
<defs>
<clipPath id="clip0_1_50">
<rect width="30" height="30" fill="white" transform="translate(0 0.5)"/>
</clipPath>
</defs>
</svg>
