<svg width="30" height="31" viewBox="0 0 30 31" fill="none" xmlns="http://www.w3.org/2000/svg">
<g clip-path="url(#clip0_1_52)">
<path fill-rule="evenodd" clip-rule="evenodd" d="M15 0.5C6.71573 0.5 0 7.21573 0 15.5C0 23.7843 6.71573 30.5 15 30.5C23.2843 30.5 30 23.7843 30 15.5C30 7.21573 23.2843 0.5 15 0.5ZM7.20089 12.9237H10.6002V23.1373H7.20089V12.9237ZM10.8243 9.76419C10.8022 8.76275 10.0861 8 8.92323 8C7.76034 8 7.00008 8.76275 7.00008 9.76419C7.00008 10.7449 7.73787 11.5296 8.8791 11.5296H8.90082C10.0861 11.5296 10.8243 10.7449 10.8243 9.76419ZM18.9457 12.6838C21.1826 12.6838 22.8596 14.1439 22.8596 17.2811L22.8594 23.1372H19.4602V17.6729C19.4602 16.3004 18.9683 15.3639 17.7378 15.3639C16.7986 15.3639 16.2392 15.9953 15.9936 16.6051C15.9037 16.8236 15.8816 17.1281 15.8816 17.4334V23.1375H12.4819C12.4819 23.1375 12.5267 13.8823 12.4819 12.9239H15.8816V14.3706C16.3328 13.6751 17.1408 12.6838 18.9457 12.6838Z" fill="black"/>
</g>
<defs>
<clipPath id="clip0_1_52">
<rect width="30" height="30" fill="white" transform="translate(0 0.5)"/>
</clipPath>
</defs>
</svg>
