<svg width="30" height="31" viewBox="0 0 30 31" fill="none" xmlns="http://www.w3.org/2000/svg">
<g clip-path="url(#clip0_1_54)">
<path fill-rule="evenodd" clip-rule="evenodd" d="M15 0.5C6.71573 0.5 0 7.21573 0 15.5C0 23.7843 6.71573 30.5 15 30.5C23.2843 30.5 30 23.7843 30 15.5C30 7.21573 23.2843 0.5 15 0.5ZM11.7021 7.54839C12.5555 7.50956 12.8281 7.50006 15.0008 7.50006H14.9983C17.1717 7.50006 17.4434 7.50956 18.2967 7.54839C19.1484 7.58739 19.73 7.72223 20.2401 7.92006C20.7667 8.12423 21.2117 8.39757 21.6567 8.84257C22.1017 9.28724 22.3751 9.73358 22.5801 10.2598C22.7767 10.7684 22.9117 11.3498 22.9517 12.2014C22.9901 13.0548 23.0001 13.3274 23.0001 15.5001C23.0001 17.6728 22.9901 17.9448 22.9517 18.7982C22.9117 19.6495 22.7767 20.231 22.5801 20.7399C22.3751 21.2659 22.1017 21.7122 21.6567 22.1569C21.2122 22.6019 20.7666 22.8759 20.2406 23.0802C19.7315 23.2781 19.1495 23.4129 18.2979 23.4519C17.4445 23.4907 17.1727 23.5002 14.9998 23.5002C12.8273 23.5002 12.5548 23.4907 11.7015 23.4519C10.85 23.4129 10.2684 23.2781 9.75944 23.0802C9.23361 22.8759 8.78727 22.6019 8.34276 22.1569C7.89792 21.7122 7.62459 21.2659 7.42009 20.7397C7.22242 20.231 7.08758 19.6497 7.04842 18.798C7.00975 17.9447 7.00008 17.6728 7.00008 15.5001C7.00008 13.3274 7.01008 13.0546 7.04825 12.2013C7.08658 11.3499 7.22158 10.7684 7.41992 10.2596C7.62492 9.73358 7.89826 9.28724 8.34326 8.84257C8.78793 8.39773 9.23427 8.1244 9.76044 7.92006C10.2691 7.72223 10.8505 7.58739 11.7021 7.54839Z" fill="black"/>
<path fill-rule="evenodd" clip-rule="evenodd" d="M14.283 8.94194C14.4223 8.94172 14.5723 8.94179 14.734 8.94186L15.0007 8.94194C17.1367 8.94194 17.3899 8.9496 18.2334 8.98794C19.0134 9.0236 19.4367 9.15394 19.7187 9.26344C20.092 9.40844 20.3582 9.58178 20.6381 9.86178C20.9181 10.1418 21.0914 10.4085 21.2367 10.7817C21.3462 11.0634 21.4767 11.4868 21.5122 12.2668C21.5506 13.1101 21.5589 13.3634 21.5589 15.4985C21.5589 17.6335 21.5506 17.8868 21.5122 18.7302C21.4766 19.5102 21.3462 19.9335 21.2367 20.2152C21.0917 20.5885 20.9181 20.8544 20.6381 21.1342C20.3581 21.4142 20.0922 21.5875 19.7187 21.7325C19.437 21.8425 19.0134 21.9725 18.2334 22.0082C17.39 22.0465 17.1367 22.0549 15.0007 22.0549C12.8645 22.0549 12.6113 22.0465 11.768 22.0082C10.988 21.9722 10.5646 21.8419 10.2824 21.7324C9.90911 21.5874 9.64244 21.414 9.36244 21.134C9.08243 20.854 8.9091 20.588 8.76376 20.2145C8.65426 19.9328 8.52376 19.5095 8.48826 18.7295C8.44993 17.8862 8.44226 17.6328 8.44226 15.4965C8.44226 13.3601 8.44993 13.1081 8.48826 12.2648C8.52393 11.4848 8.65426 11.0614 8.76376 10.7794C8.90877 10.4061 9.08243 10.1395 9.36244 9.85945C9.64244 9.57944 9.90911 9.40611 10.2824 9.26077C10.5644 9.15077 10.988 9.02077 11.768 8.98494C12.506 8.9516 12.792 8.9416 14.283 8.93994V8.94194ZM19.271 10.2703C18.741 10.2703 18.311 10.6998 18.311 11.2299C18.311 11.7599 18.741 12.1899 19.271 12.1899C19.801 12.1899 20.231 11.7599 20.231 11.2299C20.231 10.6999 19.801 10.2703 19.271 10.2703ZM10.8924 15.5003C10.8924 13.2315 12.7318 11.392 15.0006 11.3919C17.2694 11.3919 19.1084 13.2314 19.1084 15.5003C19.1084 17.7692 17.2696 19.6078 15.0007 19.6078C12.7319 19.6078 10.8924 17.7692 10.8924 15.5003Z" fill="black"/>
<path d="M15.0008 12.8335C16.4735 12.8335 17.6675 14.0273 17.6675 15.5002C17.6675 16.9729 16.4735 18.1669 15.0008 18.1669C13.528 18.1669 12.3341 16.9729 12.3341 15.5002C12.3341 14.0273 13.528 12.8335 15.0008 12.8335Z" fill="black"/>
</g>
<defs>
<clipPath id="clip0_1_54">
<rect width="30" height="30" fill="white" transform="translate(0 0.5)"/>
</clipPath>
</defs>
</svg>
