<svg width="30" height="31" viewBox="0 0 30 31" fill="none" xmlns="http://www.w3.org/2000/svg">
<g clip-path="url(#clip0_1_58)">
<path fill-rule="evenodd" clip-rule="evenodd" d="M15 0.5C6.71573 0.5 0 7.21573 0 15.5C0 23.7843 6.71573 30.5 15 30.5C23.2843 30.5 30 23.7843 30 15.5C30 7.21573 23.2843 0.5 15 0.5ZM22.8368 13.8806C22.945 14.4061 23.0001 14.9475 23.0001 15.489C23.0001 16.03 22.945 16.5703 22.8368 17.0969C22.7313 17.611 22.5751 18.1158 22.3704 18.5983C22.1704 19.0723 21.9223 19.5291 21.6325 19.955C21.3469 20.3783 21.018 20.7754 20.6566 21.1374C20.2945 21.4978 19.896 21.8258 19.473 22.1126C19.0456 22.4004 18.5882 22.6481 18.1139 22.8491C17.6307 23.0527 17.1248 23.2087 16.6111 23.314C16.0838 23.4225 15.5415 23.4778 14.9997 23.4778C14.4575 23.4778 13.9153 23.4225 13.3887 23.314C12.8742 23.2087 12.3684 23.0527 11.8855 22.8491C11.4113 22.6481 10.9534 22.4004 10.5261 22.1126C10.103 21.8258 9.70454 21.4978 9.34319 21.1374C8.98146 20.7754 8.65252 20.3783 8.36657 19.955C8.07828 19.5291 7.82981 19.0723 7.62903 18.5983C7.42431 18.1158 7.26768 17.611 7.16181 17.0969C7.05479 16.5703 7.00008 16.03 7.00008 15.489C7.00008 14.9475 7.05475 14.4061 7.16184 13.8806C7.26771 13.3665 7.42434 12.861 7.62906 12.3792C7.82984 11.9049 8.07831 11.4477 8.3666 11.0217C8.65255 10.5981 8.98149 10.2018 9.34322 9.83938C9.70457 9.47892 10.103 9.15168 10.5261 8.86536C10.9534 8.57629 11.4113 8.32862 11.8855 8.12732C12.3684 7.92326 12.8742 7.76686 13.3887 7.66234C13.9153 7.55468 14.4575 7.50006 14.9998 7.50006C15.5416 7.50006 16.0838 7.55468 16.6111 7.66234C17.1248 7.76689 17.6307 7.9233 18.114 8.12732C18.5882 8.32859 19.0457 8.57629 19.473 8.86536C19.8961 9.15168 20.2946 9.47892 20.6567 9.83938C21.018 10.2018 21.347 10.5981 21.6325 11.0217C21.9223 11.4477 22.1704 11.9049 22.3704 12.3792C22.5751 12.861 22.7313 13.3665 22.8368 13.8806Z" fill="black"/>
<path fill-rule="evenodd" clip-rule="evenodd" d="M19.5111 10.3694L19.5117 10.3685C18.3089 9.30942 16.7295 8.66699 14.9997 8.66699C14.4446 8.66699 13.9059 8.73409 13.3899 8.85813L13.401 8.873C13.5628 9.08936 14.8077 10.7544 15.9439 12.8377C18.5007 11.8806 19.4788 10.4177 19.5111 10.3694ZM20.2755 11.1554C20.2489 11.1934 19.1499 12.7612 16.4698 13.8543C16.6284 14.1796 16.7819 14.5107 16.9237 14.8435C16.9741 14.9629 17.0233 15.0799 17.0714 15.1969C19.3734 14.9077 21.642 15.3795 21.8214 15.4168L21.8294 15.4185C21.8138 13.8012 21.2341 12.3174 20.2755 11.1554ZM17.4877 16.2735C18.3838 18.7326 18.7479 20.7353 18.8175 21.1464C20.3515 20.1127 21.441 18.4713 21.7449 16.57C21.6043 16.5247 19.6929 15.9205 17.4877 16.2735ZM16.2077 16.5895C17.169 19.0844 17.5659 21.1737 17.6671 21.7698C16.8471 22.1181 15.9459 22.3104 14.9998 22.3104C13.4153 22.3104 11.9606 21.767 10.8007 20.8663C10.815 20.8355 12.1313 18.0075 16.1623 16.6043C16.1718 16.6008 16.1814 16.5978 16.1911 16.5948L16.2077 16.5895ZM15.1876 14.2998C15.3833 14.6829 15.5705 15.0714 15.7419 15.4591C15.6521 15.4849 15.5615 15.5114 15.4724 15.541C11.7855 16.7316 9.91586 20.0437 9.9182 20.0473C8.82987 18.8392 8.16772 17.2414 8.16772 15.4888C8.16772 15.4382 8.16939 15.3887 8.17108 15.3388C8.17183 15.3164 8.17259 15.2939 8.1732 15.2711C8.29429 15.2758 11.6699 15.3514 15.1876 14.2998ZM14.6216 13.2493C13.4391 11.1514 12.1758 9.4394 12.0847 9.31806C10.1795 10.2164 8.7576 11.9695 8.31421 14.0821C8.31611 14.0822 8.3183 14.0822 8.32078 14.0822C8.55425 14.0844 11.3758 14.1105 14.6216 13.2493Z" fill="black"/>
</g>
<defs>
<clipPath id="clip0_1_58">
<rect width="30" height="30" fill="white" transform="translate(0 0.5)"/>
</clipPath>
</defs>
</svg>
