<svg width="30" height="31" viewBox="0 0 30 31" fill="none" xmlns="http://www.w3.org/2000/svg">
<g clip-path="url(#clip0_1_61)">
<path fill-rule="evenodd" clip-rule="evenodd" d="M15 0.5C6.71573 0.5 0 7.21573 0 15.5C0 23.7843 6.71573 30.5 15 30.5C23.2843 30.5 30 23.7843 30 15.5C30 7.21573 23.2843 0.5 15 0.5ZM16.8404 22.1799H23.4274C23.4628 22.0073 23.4316 21.8803 23.2997 21.7573C23.0259 21.5021 22.7592 21.2393 22.4925 20.9764C22.364 20.8498 22.2354 20.7231 22.1061 20.5973C22.0156 20.5093 21.9708 20.4061 21.975 20.2805C21.9775 20.2072 21.9797 20.1339 21.9797 20.0605C21.9797 19.7509 21.9798 19.4413 21.9799 19.1318C21.9801 17.7043 21.9804 16.2769 21.9797 14.8494C21.9792 13.8124 21.9776 12.7753 21.9761 11.7382C21.9756 11.3972 21.9751 11.0561 21.9746 10.715C21.9744 10.5939 22.0205 10.4953 22.1084 10.4117C22.2404 10.2861 22.3716 10.1598 22.5028 10.0334C22.7831 9.76357 23.0634 9.49372 23.3508 9.23161C23.4854 9.10887 23.4888 8.98247 23.4621 8.82827C23.4508 8.82762 23.4402 8.82686 23.43 8.82613C23.4093 8.82465 23.3905 8.8233 23.3716 8.8233C23.0429 8.82324 22.7142 8.82325 22.3855 8.82326C21.2281 8.82329 20.0706 8.82332 18.9132 8.82063C18.8233 8.82044 18.7974 8.86137 18.7693 8.93139C17.6999 11.5995 16.6289 14.2669 15.5578 16.9343C15.5464 16.9627 15.5335 16.9905 15.5181 17.0235C15.5101 17.0407 15.5014 17.0593 15.4919 17.0801C15.4815 17.0586 15.4721 17.0395 15.4635 17.0219C15.447 16.9885 15.4333 16.9605 15.4203 16.9322L15.0906 16.2102C13.9843 13.7874 12.878 11.3647 11.7739 8.94098C11.7353 8.85633 11.6958 8.82004 11.5958 8.82031C10.3433 8.82353 9.09088 8.82335 7.83842 8.82316C7.54758 8.82312 7.25673 8.82308 6.96589 8.82308H6.80685C6.81572 8.86415 6.82061 8.90642 6.82535 8.94745C6.83515 9.03231 6.84434 9.11185 6.88691 9.1644C7.29947 9.67383 7.72062 10.1763 8.14176 10.6788C8.24722 10.8046 8.35267 10.9305 8.45799 11.0564C8.56448 11.1837 8.61715 11.3283 8.61705 11.4943C8.6158 13.9449 8.61509 16.3955 8.61463 18.8461C8.61463 18.9071 8.61507 18.9686 8.62171 19.0291C8.64892 19.2777 8.58011 19.4964 8.42183 19.6882C8.28117 19.8586 8.14079 20.0292 8.00041 20.1998C7.58103 20.7096 7.16166 21.2193 6.73488 21.7228C6.61935 21.8591 6.61085 21.9916 6.62665 22.1463H11.6298C11.6716 21.968 11.6193 21.8373 11.5067 21.7039C11.1 21.2216 10.6987 20.7347 10.2973 20.2478C10.1409 20.0579 9.98439 19.8681 9.8276 19.6786C9.68091 19.5012 9.61291 19.2974 9.61773 19.0685C9.61856 19.0293 9.61981 18.9901 9.62107 18.9509C9.6232 18.8842 9.62534 18.8175 9.62535 18.7507C9.62573 17.1469 9.6257 15.5431 9.62568 13.9393C9.62568 13.5533 9.62567 13.1672 9.62567 12.7812V12.6347C9.6753 12.6731 9.69492 12.7123 9.71322 12.7521C10.1872 13.7846 10.6613 14.8171 11.1353 15.8496C12.046 17.8333 12.9567 19.8171 13.8675 21.8008C13.883 21.8346 13.8963 21.8722 13.9095 21.91C13.9413 22.0001 13.9731 22.0907 14.0366 22.1308C14.0974 22.1693 14.1842 22.1646 14.2726 22.1598C14.3214 22.1571 14.3708 22.1545 14.4165 22.159C14.5167 22.169 14.5557 22.1279 14.5911 22.0379C15.719 19.1705 16.8496 16.3041 17.9802 13.4377L18.2589 12.7313C18.2684 12.7072 18.2789 12.6836 18.2894 12.6599C18.2944 12.6487 18.2994 12.6375 18.3042 12.6262C18.3246 12.6485 18.3268 12.6671 18.3268 12.6857C18.3268 13.2487 18.3267 13.8116 18.3267 14.3746C18.3266 16.3275 18.3264 18.2804 18.328 20.2333C18.3281 20.3872 18.2765 20.5045 18.1652 20.6106C18.0078 20.7608 17.8522 20.9128 17.6966 21.0648C17.4524 21.3034 17.2081 21.5421 16.9571 21.7733C16.823 21.8968 16.8224 22.0241 16.8404 22.1799Z" fill="black"/>
</g>
<defs>
<clipPath id="clip0_1_61">
<rect width="30" height="30" fill="white" transform="translate(0 0.5)"/>
</clipPath>
</defs>
</svg>
