<svg width="13" height="17" viewBox="0 0 13 17" fill="none" xmlns="http://www.w3.org/2000/svg">
<path d="M8.81404 3.19353C8.24869 3.88206 7.34412 4.42514 6.43955 4.34756C6.32648 3.41658 6.76934 2.4274 7.28758 1.81644C7.85294 1.10851 8.84231 0.604221 9.64323 0.56543C9.73746 1.53521 9.36999 2.48559 8.81404 3.19353ZM9.63378 4.53182C8.32407 4.45423 7.20278 5.29794 6.58088 5.29794C5.94957 5.29794 4.99789 4.57061 3.9614 4.59C2.61396 4.6094 1.36076 5.39492 0.672902 6.64593C-0.740491 9.14796 0.30542 12.8525 1.6717 14.8891C2.3407 15.8976 3.14163 17.0032 4.19696 16.9644C5.19576 16.9256 5.59151 16.2952 6.7976 16.2952C8.01312 16.2952 8.36176 16.9644 9.41706 16.9449C10.5101 16.9256 11.198 15.9364 11.867 14.9279C12.6302 13.7835 12.9412 12.6682 12.96 12.6101C12.9412 12.5906 10.8493 11.7663 10.8305 9.28368C10.8116 7.2084 12.4795 6.21923 12.5548 6.16104C11.6125 4.72577 10.1426 4.57061 9.63378 4.53182Z" fill="#1D1D1B"/>
</svg>
