<svg width="18" height="19" viewBox="0 0 18 19" fill="none" xmlns="http://www.w3.org/2000/svg">
<path d="M2.09006 2.58381C1.88649 2.80311 1.78354 3.08377 1.80213 3.36877V15.7495C1.78459 16.0344 1.88741 16.3147 2.09006 16.5345L2.13718 16.5768L9.85895 9.63903V9.47451L2.13718 2.5415L2.09006 2.58381Z" fill="url(#paint0_linear_1_73)"/>
<path d="M12.4335 11.9461L9.85779 9.63354V9.46902L12.4335 7.16113L12.491 7.18933L15.5431 8.74514C16.4173 9.18696 16.4173 9.91551 15.5431 10.3621L12.491 11.9178L12.4335 11.9461Z" fill="url(#paint1_linear_1_73)"/>
<path d="M12.4904 11.9156L9.87283 9.56543L2.08829 16.5267C2.26772 16.6591 2.49112 16.7342 2.72332 16.7401C2.95551 16.7461 3.18333 16.6825 3.37089 16.5595L12.4747 11.9156" fill="url(#paint2_linear_1_73)"/>
<path d="M12.4904 7.1882L3.37089 2.53954C3.18533 2.41146 2.95601 2.34519 2.72209 2.35205C2.48816 2.3589 2.26414 2.43847 2.08829 2.57714L9.85717 9.55244L12.4904 7.1882Z" fill="url(#paint3_linear_1_73)"/>
<path opacity="0.1" d="M12.4345 11.8647L3.37252 16.4806C3.19176 16.6014 2.97236 16.6668 2.74692 16.6668C2.5215 16.6668 2.3021 16.6014 2.12133 16.4806L2.07422 16.5229L2.12133 16.5652C2.3021 16.686 2.5215 16.7514 2.74692 16.7514C2.97236 16.7514 3.19176 16.686 3.37252 16.5652L12.4763 11.9212L12.4345 11.8647Z" fill="#1D1D1B"/>
<path opacity="0.07" d="M2.08922 16.4513C1.88671 16.2299 1.78418 15.948 1.80197 15.6616V15.7415C1.78446 16.0264 1.88706 16.3067 2.08922 16.5265L2.13623 16.4842L2.08922 16.4513Z" fill="#1D1D1B"/>
<path opacity="0.07" d="M15.5444 10.273L12.4348 11.8616L12.4924 11.9134L15.5444 10.3387C15.7234 10.268 15.8783 10.156 15.9933 10.0139C16.1083 9.87191 16.1792 9.70496 16.1988 9.53027C16.1631 9.69173 16.0851 9.84329 15.9713 9.97244C15.8575 10.1016 15.7112 10.2046 15.5444 10.273Z" fill="#1D1D1B"/>
<path opacity="0.3" d="M3.37405 2.62337L15.5456 8.82314C15.7109 8.88983 15.8562 8.99055 15.9699 9.11711C16.0835 9.24374 16.1624 9.3926 16.2 9.55172C16.1815 9.37667 16.111 9.20936 15.9959 9.06716C15.8808 8.92497 15.7253 8.8131 15.5456 8.74324L3.37405 2.53876C2.5155 2.09693 1.80353 2.46355 1.80353 3.36132V3.44123C1.80353 2.54816 2.5155 2.17683 3.37405 2.62337Z" fill="white"/>
<defs>
<linearGradient id="paint0_linear_1_73" x1="9.17837" y1="3.23716" x2="-0.163353" y2="13.6417" gradientUnits="userSpaceOnUse">
<stop stop-color="#008EFF"/>
<stop offset="0.01" stop-color="#008FFF"/>
<stop offset="0.26" stop-color="#00ACFF"/>
<stop offset="0.51" stop-color="#00C0FF"/>
<stop offset="0.76" stop-color="#00CDFF"/>
<stop offset="1" stop-color="#00D1FF"/>
</linearGradient>
<linearGradient id="paint1_linear_1_73" x1="15.6478" y1="9.55362" x2="0.560326" y2="9.55362" gradientUnits="userSpaceOnUse">
<stop stop-color="#FFD800"/>
<stop offset="1" stop-color="#FF8A00"/>
</linearGradient>
<linearGradient id="paint2_linear_1_73" x1="11.0613" y1="10.8345" x2="-1.60318" y2="24.9397" gradientUnits="userSpaceOnUse">
<stop stop-color="#FF3A44"/>
<stop offset="1" stop-color="#B11162"/>
</linearGradient>
<linearGradient id="paint3_linear_1_73" x1="0.130364" y1="-1.54506" x2="5.79012" y2="4.75336" gradientUnits="userSpaceOnUse">
<stop stop-color="#328E71"/>
<stop offset="0.07" stop-color="#2D9571"/>
<stop offset="0.48" stop-color="#15BD74"/>
<stop offset="0.8" stop-color="#06D575"/>
<stop offset="1" stop-color="#00DE76"/>
</linearGradient>
</defs>
</svg>
