<svg width="208" height="171" viewBox="0 0 208 171" fill="none" xmlns="http://www.w3.org/2000/svg">
<path d="M78.4027 137.379C78.8521 134.682 79.2473 132.46 79.5948 130.194C80.5136 124.217 81.4388 118.253 82.3174 112.236C82.5113 110.846 83.0915 116.774 84.6134 116.946L92.4289 113.143C94.1232 112.068 95.1062 111.862 96.3637 109.322C97.3443 107.355 97.7068 104.703 97.7496 101.932C97.8856 83.0941 97.8251 83.1575 97.8176 64.2186C97.8176 53.5884 91.5075 42.2737 82.5012 36.9282C70.3367 29.6973 58.171 22.5972 46.0065 15.431L24.1018 3.13031C20.8329 1.20484 17.8295 1.41964 15.5613 1.96701C13.2917 2.51437 6.6053 5.21105 6.6053 5.21105C5.70907 7.12617 8.74012 9.24315 8.73761 11.9049C8.62181 31.0211 8.67593 31.2346 8.67593 50.4272C8.63943 52.7512 9.00447 55.2952 9.74964 57.9078C10.4948 60.5203 11.6038 63.1459 13.011 65.629C14.4171 68.1122 16.0924 70.3987 17.9352 72.3539C19.778 74.3079 21.7505 75.8891 23.7343 77.002C40.4189 86.6448 35.3248 83.2261 52.0384 92.9828C52.7609 93.3723 53.4809 93.952 54.1468 94.6805C54.8126 95.4078 55.4055 96.2644 55.8838 97.1883C62.8686 109.864 70.3959 142.17 70.3959 142.17L78.4027 137.379Z" fill="#FFD6BC"/>
<path d="M78.4027 137.379C78.8521 134.682 79.2473 132.46 79.5948 130.194C80.5136 124.217 81.4388 118.253 82.3174 112.236C82.5113 110.846 83.0915 116.774 84.6134 116.946L92.4289 113.143C94.1232 112.068 95.1062 111.862 96.3637 109.322C97.3443 107.355 97.7068 104.703 97.7496 101.932C97.8855 83.0941 97.8251 83.1575 97.8176 64.2186C97.8176 53.5884 91.5075 42.2737 82.5012 36.9282C70.3367 29.6973 58.171 22.5972 46.0065 15.431L24.1018 3.13031C20.8329 1.20484 17.8295 1.41964 15.5613 1.96701C13.2917 2.51437 6.6053 5.21105 6.6053 5.21105C5.70907 7.12617 8.74012 9.24315 8.73761 11.9049C8.62181 31.0211 8.67593 31.2346 8.67593 50.4272C8.63943 52.7512 9.00447 55.2952 9.74964 57.9078C10.4948 60.5203 11.6038 63.1459 13.011 65.629C14.4171 68.1122 16.0924 70.3987 17.9352 72.3539C19.778 74.3079 21.7505 75.8891 23.7343 77.002C40.4189 86.6448 35.3248 83.2261 52.0384 92.9828C52.7609 93.3723 53.4809 93.952 54.1468 94.6805C54.8126 95.4078 55.4055 96.2644 55.8838 97.1883C62.8686 109.864 70.3959 142.17 70.3959 142.17L78.4027 137.379Z" stroke="#1D1D1B" stroke-width="1.29574" stroke-linejoin="round"/>
<path d="M70.3959 142.158C70.8452 139.46 71.2946 136.539 71.642 134.273C72.5609 128.296 73.4861 122.331 74.3647 116.314C74.5485 114.998 75.3239 115.472 76.1886 115.9C81.819 118.717 85.9439 117.84 88.2449 113.192C89.2254 111.225 89.7541 108.78 89.7969 106.011C89.9328 87.1706 89.8724 87.2353 89.8648 68.2951C89.8648 57.6636 83.5548 46.3489 74.5485 41.0034C62.384 33.7725 50.2182 26.6711 38.0537 19.5049L16.6702 7.33878C10.2582 3.5616 5.34279 3.74017 2.66796 9.17366C1.77174 11.0888 1.30851 13.4516 1.306 16.1134C1.1902 35.2309 1.24432 35.4431 1.24432 54.6369C1.20782 56.9609 1.57286 59.5062 2.31803 62.1188C3.06321 64.7314 4.17216 67.3582 5.57943 69.8401C6.98545 72.3233 8.66084 74.6097 10.5036 76.565C12.3464 78.5189 14.3189 80.1002 16.3027 81.213L44.0844 97.0606C44.8081 97.4501 45.5282 98.0298 46.194 98.757C46.8586 99.4855 47.4528 100.342 47.9311 101.266C54.9159 113.942 61.9749 126.583 69.0339 139.24C69.3196 139.715 70.3959 142.158 70.3959 142.158Z" fill="white"/>
<path d="M70.3959 142.157L69.939 142.269C70.0686 142.564 70.2964 142.802 70.5167 142.874C70.737 142.945 70.9057 142.837 70.9447 142.597L70.3959 142.157ZM74.3647 116.314L74.916 116.743V116.739L74.3647 116.314ZM76.1886 115.9L76.1471 115.215L76.1458 115.214L76.1886 115.9ZM88.2449 113.191L87.7376 112.618H87.7363L88.2449 113.191ZM89.7969 106.011L90.3558 106.351V106.345L89.7969 106.011ZM38.0537 19.5047V18.8435L38.0437 18.837L38.0537 19.5047ZM16.6702 7.33853V8.00106L16.6803 8.00623L16.6702 7.33853ZM2.66796 9.17342L2.15817 8.60018L2.15565 8.60794L2.66796 9.17342ZM1.306 16.1131L1.86362 16.447V16.4418L1.306 16.1131ZM1.24432 54.6367L1.80321 54.9783V54.9667L1.24432 54.6367ZM16.3027 81.2128L16.2939 80.5451L16.2901 80.5425L16.3027 81.2128ZM44.0844 97.0603L44.0932 97.7268L44.1083 97.7345L44.0844 97.0603ZM47.9311 101.266L47.5132 101.457L47.5207 101.473L47.5296 101.488L47.9311 101.266ZM69.0339 139.239L68.6362 139.47L68.6487 139.49L68.6601 139.511L69.0339 139.239ZM70.9447 142.597C71.3953 139.897 71.8447 136.972 72.1921 134.707L71.0907 133.84C70.7433 136.107 70.2952 139.023 69.8458 141.716L70.9447 142.597ZM72.1921 134.707C73.111 128.731 74.0374 122.763 74.916 116.743L73.8134 115.885C72.936 121.9 72.0096 127.861 71.0907 133.84L72.1921 134.707ZM74.916 116.739C74.9878 116.231 75.1413 116.188 75.2622 116.191C75.4686 116.196 75.7418 116.342 76.2327 116.585L76.1458 115.214C75.772 115.029 75.2244 114.723 74.7813 114.713C74.2514 114.701 73.9254 115.081 73.8134 115.888L74.916 116.739ZM76.2302 116.584C82.0556 119.5 86.3643 118.59 88.7534 113.765L87.7363 112.618C85.5235 117.089 81.5823 117.935 76.1471 115.215L76.2302 116.584ZM88.7534 113.765C89.7654 111.734 90.3104 109.212 90.3558 106.351L89.2393 105.669C89.1977 108.349 88.6867 110.715 87.7376 112.618L88.7534 113.765ZM90.3558 106.345C90.4917 87.5016 90.43 87.5598 90.4237 68.6235L89.3072 67.9661C89.3135 86.909 89.3752 86.8404 89.2393 105.676L90.3558 106.345ZM90.4237 68.6235C90.4237 63.1486 88.7962 57.4602 85.9804 52.4343C83.1646 47.4071 79.1895 43.0968 74.551 40.3432L74.546 41.6644C78.9138 44.2562 82.5969 48.2754 85.1874 52.9001C87.7791 57.5249 89.3072 62.8096 89.3072 67.9661L90.4237 68.6235ZM74.551 40.3432C62.384 33.1111 50.2145 26.007 38.0537 18.8435V20.1672C50.222 27.336 62.3827 34.4348 74.546 41.6644L74.551 40.3432ZM38.0437 18.837L16.6614 6.67083L16.6803 8.00623L38.0625 20.1724L38.0437 18.837ZM16.6702 6.67601C13.3899 4.74407 10.4545 3.80204 7.98489 4.06473C5.5102 4.32741 3.53775 5.79738 2.15817 8.60018L3.17649 9.74537C4.47173 7.11467 6.2944 5.77927 8.55007 5.53859C10.8095 5.2979 13.5385 6.15453 16.6702 7.99976V6.67601ZM2.15565 8.60794C1.22922 10.5891 0.749631 13.0308 0.747115 15.7832L1.86362 16.4418C1.86488 13.8706 2.313 11.5893 3.17901 9.7389L2.15565 8.60794ZM0.747115 15.7793C0.631316 34.8994 0.686699 35.1168 0.686699 54.308L1.80321 54.9667C1.80321 35.7702 1.74782 35.5606 1.86362 16.447L0.747115 15.7793ZM0.686699 54.2964C0.648939 56.7084 1.02781 59.3507 1.80069 62.0629L2.83537 62.1742C2.11915 59.6613 1.76796 57.213 1.80321 54.9783L0.686699 54.2964ZM1.80069 62.0629C2.57356 64.7751 3.72531 67.5016 5.18544 70.0779L5.97216 69.6018C4.61901 67.213 3.5516 64.6871 2.83537 62.1742L1.80069 62.0629ZM5.18544 70.0779C6.64559 72.6556 8.38391 75.0301 10.2972 77.0578L10.7101 76.0704C8.9365 74.1903 7.32531 71.9905 5.97216 69.6018L5.18544 70.0779ZM10.2972 77.0578C12.2105 79.0867 14.2572 80.7275 16.3165 81.8818L16.2901 80.5425C14.3806 79.4724 12.4836 77.9519 10.7101 76.0704L10.2972 77.0578ZM16.3115 81.8792L44.0932 97.7268L44.0756 96.3926L16.2939 80.5451L16.3115 81.8792ZM44.1083 97.7345C44.7477 98.08 45.3859 98.5937 45.975 99.2381L46.4118 98.2767C45.6704 97.4654 44.8673 96.8197 44.0617 96.3849L44.1083 97.7345ZM45.975 99.2381C46.5641 99.8813 47.0903 100.64 47.5132 101.457L48.349 101.073C47.8166 100.043 47.1545 99.088 46.4118 98.2767L45.975 99.2381ZM47.5296 101.488C54.5168 114.17 61.5784 126.814 68.6362 139.47L69.4317 139.01C62.3727 126.351 55.3149 113.714 48.3326 101.042L47.5296 101.488ZM68.6601 139.511C68.6601 139.511 68.6613 139.512 68.6626 139.514C68.6638 139.516 68.6651 139.52 68.6676 139.524C68.6727 139.533 68.6802 139.545 68.6878 139.56C68.7054 139.593 68.7255 139.633 68.7507 139.682C68.8011 139.78 68.8615 139.903 68.9294 140.047C69.0641 140.332 69.2215 140.672 69.3725 141.003C69.5236 141.334 69.6646 141.651 69.769 141.886C69.8219 142.002 69.8647 142.099 69.8936 142.165C69.9087 142.199 69.9201 142.225 69.9276 142.243C69.9314 142.252 69.9352 142.258 69.9364 142.262C69.9377 142.265 69.939 142.267 69.939 142.269C69.939 142.269 69.939 142.269 70.3959 142.157C70.8515 142.045 70.8515 142.045 70.8515 142.045V142.042C70.8503 142.041 70.8503 142.04 70.849 142.037C70.8465 142.032 70.844 142.025 70.839 142.015C70.8314 141.997 70.8201 141.97 70.8037 141.936C70.7735 141.868 70.7307 141.769 70.6778 141.65C70.5708 141.411 70.4261 141.087 70.2713 140.748C70.1177 140.411 69.9528 140.052 69.8068 139.745C69.6721 139.462 69.5211 139.157 69.4078 138.969L68.6601 139.511Z" fill="#1D1D1B"/>
<path d="M48.8449 65.6316C49.9211 66.4222 50.9357 67.297 51.8785 68.2481C56.5925 73.0734 59.9697 79.0943 61.6627 85.6937C62.0328 87.1922 62.2921 88.7152 62.4381 90.2525C62.4205 90.5281 62.4205 90.805 62.4381 91.0806V91.355C61.8867 91.0599 61.377 90.6911 60.9226 90.2564C59.329 89.0141 57.8676 87.605 56.561 86.0522C54.4048 83.4875 52.5821 80.6471 51.1383 77.6037C49.7575 74.7284 48.7568 71.6785 48.1614 68.5328C47.9474 67.3565 47.8027 66.1673 47.7259 64.973C47.7259 64.8591 47.7259 64.8591 47.8404 64.9251L48.8449 65.6316Z" fill="#1D1D1B"/>
<path d="M61.7949 57.9453C61.1152 60.2616 59.9282 62.0538 58.3258 63.1847C57.0897 64.0413 55.6296 64.4981 54.1367 64.4916C52.2121 64.6016 50.0898 64.0737 47.916 62.9505L47.8015 62.8845C47.8178 62.1599 47.8946 61.4378 48.0305 60.7261C48.7203 56.6099 50.7419 53.7308 53.7175 52.6257C55.1664 52.1107 56.7222 51.9929 58.2289 52.2854C59.3907 52.464 60.521 52.8146 61.5834 53.327L62.2996 53.6389C62.5073 53.7631 62.5073 53.7631 62.5073 54.0051C62.4885 54.172 62.4885 54.339 62.5073 54.5059C62.3953 55.6731 62.1549 56.8234 61.7911 57.935L61.7949 57.9453Z" fill="#1D1D1B"/>
<path d="M44.5803 60.8972C42.9955 59.6369 41.5354 58.2225 40.22 56.671C38.167 54.2305 36.4274 51.5313 35.044 48.6392C32.8979 44.2487 31.624 39.6265 31.4415 35.4663L31.6492 35.5905L32.3642 36.1172C33.4178 36.8755 34.4134 37.7166 35.3411 38.6314C37.4331 40.7057 39.2608 43.0427 40.7814 45.5841C43.5179 50.1066 45.3431 55.1415 45.9397 59.8543C46.0153 60.5245 46.0732 61.1754 46.1122 61.8121C46.1122 61.8121 46.1122 61.9466 45.9976 61.8807L44.5803 60.8972Z" fill="#1D1D1B"/>
<path d="M32.9306 66.8134C33.8369 64.8556 35.4657 63.3429 37.4596 62.6118C39.9028 61.7332 42.8722 62.1188 45.9725 63.7104C45.9725 63.7104 46.1059 63.7906 46.087 63.8929C46.0706 64.4441 46.014 64.9941 45.9158 65.5362C45.7333 67.0929 45.2839 68.603 44.5891 70.0005C42.8281 73.4141 39.6989 75.0135 35.8673 74.4571C34.3618 74.197 32.9054 73.7039 31.546 72.9935C31.4491 72.934 31.4315 72.9237 31.4491 72.7994C31.4201 72.2508 31.4717 71.7008 31.6039 71.1677C31.804 69.6499 32.2522 68.1786 32.9306 66.8134Z" fill="#1D1D1B"/>
<path d="M129.317 164.893C128.868 162.196 128.473 159.974 128.125 157.708C127.206 151.731 126.281 145.767 125.403 139.75C125.209 138.361 124.628 144.288 123.107 144.461L115.291 140.657C113.597 139.582 112.614 139.376 111.356 136.836C110.376 134.869 110.013 132.217 109.97 129.446C109.834 110.608 109.895 110.672 109.902 91.7327C109.902 81.1026 116.213 69.7879 125.219 64.4424C137.383 57.2128 149.549 50.1113 161.714 42.9452L183.618 30.6445C186.887 28.719 189.891 28.9338 192.159 29.4812C194.428 30.0285 201.115 32.7252 201.115 32.7252C202.011 34.6403 198.981 36.7573 198.982 39.4191C199.098 58.5353 199.044 58.7488 199.044 77.9413C199.081 80.2653 198.716 82.8093 197.97 85.4219C197.225 88.0345 196.116 90.6613 194.709 93.1432C193.303 95.6264 191.628 97.9129 189.785 99.8681C187.942 101.822 185.97 103.403 183.986 104.516C167.301 114.159 172.395 110.74 155.683 120.497C154.959 120.886 154.239 121.466 153.573 122.195C152.909 122.922 152.315 123.779 151.836 124.702C144.851 137.378 137.324 169.684 137.324 169.684L129.317 164.893Z" fill="#FFD6BC"/>
<path d="M129.317 164.893C128.868 162.196 128.473 159.974 128.125 157.708C127.206 151.731 126.281 145.767 125.403 139.75C125.209 138.361 124.628 144.288 123.107 144.46L115.291 140.657C113.597 139.582 112.614 139.376 111.356 136.836C110.376 134.869 110.013 132.217 109.97 129.446C109.834 110.608 109.895 110.672 109.902 91.7327C109.902 81.1026 116.213 69.7879 125.219 64.4424C137.383 57.2128 149.549 50.1113 161.714 42.9452L183.618 30.6445C186.887 28.719 189.891 28.9338 192.159 29.4812C194.428 30.0285 201.115 32.7252 201.115 32.7252C202.011 34.6403 198.981 36.7573 198.982 39.4191C199.098 58.5353 199.044 58.7488 199.044 77.9413C199.081 80.2653 198.716 82.8093 197.97 85.4219C197.225 88.0345 196.116 90.6613 194.709 93.1432C193.303 95.6264 191.628 97.9129 189.785 99.8681C187.942 101.822 185.97 103.403 183.986 104.516C167.301 114.159 172.395 110.74 155.683 120.497C154.959 120.886 154.239 121.466 153.573 122.195C152.909 122.922 152.315 123.779 151.836 124.702C144.851 137.378 137.324 169.684 137.324 169.684L129.317 164.893Z" stroke="#1D1D1B" stroke-width="1.29574" stroke-linejoin="round"/>
<path d="M137.324 169.671C136.875 166.973 136.425 164.053 136.078 161.787C135.159 155.81 134.234 149.845 133.355 143.828C133.172 142.512 132.396 142.985 131.531 143.414C125.901 146.231 121.776 145.353 119.475 140.705C118.495 138.738 117.966 136.294 117.923 133.525C117.787 114.684 117.848 114.749 117.855 95.8087C117.855 85.1772 124.165 73.8638 133.172 68.5171C145.336 61.2862 157.502 54.1847 169.666 47.0186L191.05 34.8524C197.462 31.0753 202.377 31.2538 205.053 36.6873C205.95 38.6024 206.413 40.9653 206.414 43.627C206.53 62.7432 206.476 62.958 206.476 82.1506C206.512 84.4746 206.147 87.0199 205.402 89.6325C204.657 92.2451 203.548 94.8719 202.141 97.3538C200.735 99.8369 199.059 102.123 197.216 104.079C195.374 106.033 193.401 107.614 191.417 108.727L163.636 124.574C162.912 124.964 162.192 125.543 161.526 126.271C160.861 126.999 160.267 127.856 159.789 128.78C152.804 141.456 145.745 154.097 138.686 166.753C138.4 167.228 137.324 169.671 137.324 169.671Z" fill="white"/>
<path d="M137.324 169.672L137.781 169.783C137.651 170.078 137.424 170.316 137.203 170.388C136.984 170.46 136.814 170.351 136.775 170.112L137.324 169.672ZM133.355 143.828L132.804 144.257V144.254L133.355 143.828ZM131.531 143.414L131.573 142.729L131.574 142.728L131.531 143.414ZM119.475 140.705L119.982 140.132H119.984L119.475 140.705ZM117.923 133.525L117.364 133.865V133.859L117.923 133.525ZM169.666 47.0188V46.3576L169.676 46.3511L169.666 47.0188ZM191.05 34.8527V35.5152L191.04 35.5204L191.05 34.8527ZM205.053 36.6876L205.562 36.1143L205.564 36.1221L205.053 36.6876ZM206.414 43.6273L205.856 43.9611V43.956L206.414 43.6273ZM206.476 82.1508L205.917 82.4925V82.4808L206.476 82.1508ZM191.417 108.727L191.426 108.059L191.431 108.057L191.417 108.727ZM163.636 124.575L163.627 125.241L163.612 125.249L163.636 124.575ZM159.789 128.78L160.207 128.972L160.199 128.987L160.19 129.003L159.789 128.78ZM138.686 166.754L139.084 166.984L139.073 167.005L139.06 167.025L138.686 166.754ZM136.775 170.112C136.325 167.411 135.875 164.487 135.528 162.221L136.629 161.354C136.977 163.621 137.425 166.538 137.874 169.23L136.775 170.112ZM135.528 162.221C134.609 156.245 133.683 150.277 132.804 144.257L133.907 143.4C134.784 149.414 135.71 155.376 136.629 161.354L135.528 162.221ZM132.804 144.254C132.732 143.745 132.579 143.702 132.458 143.705C132.251 143.71 131.978 143.856 131.487 144.1L131.574 142.728C131.948 142.543 132.496 142.238 132.939 142.227C133.469 142.216 133.795 142.595 133.908 143.402L132.804 144.254ZM131.49 144.098C125.664 147.014 121.356 146.104 118.967 141.279L119.984 140.132C122.197 144.603 126.138 145.449 131.573 142.729L131.49 144.098ZM118.967 141.279C117.955 139.248 117.41 136.726 117.364 133.865L118.481 133.183C118.522 135.863 119.033 138.229 119.982 140.132L118.967 141.279ZM117.364 133.859C117.228 115.016 117.29 115.074 117.296 96.1376L118.413 95.4803C118.407 114.423 118.345 114.355 118.481 133.19L117.364 133.859ZM117.296 96.1376C117.296 90.6628 118.924 84.9756 121.74 79.9485C124.555 74.9226 128.531 70.611 133.169 67.8574L133.174 69.1785C128.806 71.7704 125.123 75.7896 122.533 80.4143C119.941 85.039 118.413 90.3237 118.413 95.4803L117.296 96.1376ZM133.169 67.8574C145.336 60.6252 157.506 53.5212 169.666 46.3576V47.6814C157.498 54.8501 145.337 61.949 133.174 69.1785L133.169 67.8574ZM169.676 46.3511L191.06 34.185L191.04 35.5204L169.657 47.6866L169.676 46.3511ZM191.05 34.1902C194.33 32.2582 197.265 31.3162 199.735 31.5789C202.21 31.8416 204.181 33.3115 205.562 36.1143L204.544 37.2595C203.25 34.6288 201.426 33.2934 199.17 33.0527C196.911 32.8121 194.182 33.67 191.05 35.5152V34.1902ZM205.564 36.1221C206.491 38.1032 206.97 40.545 206.973 43.2973L205.856 43.956C205.854 41.3848 205.407 39.1035 204.541 37.2531L205.564 36.1221ZM206.973 43.2934C207.089 62.4135 207.033 62.6322 207.033 81.8222L205.917 82.4808C205.917 63.2844 205.972 63.0748 205.856 43.9611L206.973 43.2934ZM207.033 81.8105C207.071 84.2225 206.692 86.8649 205.919 89.5771L204.885 89.6884C205.601 87.1754 205.952 84.7272 205.917 82.4925L207.033 81.8105ZM205.919 89.5771C205.145 92.2893 203.995 95.0158 202.535 97.5921L201.748 97.1159C203.101 94.7272 204.168 92.2013 204.885 89.6884L205.919 89.5771ZM202.535 97.5921C201.074 100.17 199.335 102.544 197.423 104.572L197.01 103.585C198.784 101.704 200.395 99.5046 201.748 97.1159L202.535 97.5921ZM197.423 104.572C195.51 106.601 193.463 108.242 191.405 109.396L191.431 108.057C193.339 106.987 195.236 105.466 197.01 103.585L197.423 104.572ZM191.409 109.393L163.627 125.241L163.644 123.907L191.426 108.059L191.409 109.393ZM163.612 125.249C162.972 125.594 162.334 126.108 161.745 126.752L161.308 125.791C162.05 124.98 162.853 124.334 163.658 123.899L163.612 125.249ZM161.745 126.752C161.156 127.395 160.631 128.154 160.207 128.972L159.371 128.587C159.903 127.557 160.566 126.602 161.308 125.791L161.745 126.752ZM160.19 129.003C153.203 141.684 146.142 154.329 139.084 166.984L138.288 166.525C145.349 153.865 152.405 141.228 159.387 128.556L160.19 129.003ZM139.06 167.025C139.06 167.025 139.059 167.027 139.057 167.028C139.056 167.031 139.055 167.034 139.052 167.038C139.047 167.047 139.04 167.059 139.032 167.075C139.016 167.107 138.995 167.147 138.969 167.196C138.919 167.294 138.859 167.417 138.791 167.561C138.656 167.846 138.499 168.186 138.348 168.517C138.196 168.849 138.055 169.166 137.951 169.4C137.898 169.516 137.855 169.613 137.826 169.679C137.811 169.713 137.8 169.739 137.792 169.757C137.789 169.766 137.785 169.773 137.784 169.776C137.782 169.779 137.782 169.782 137.781 169.783C137.781 169.783 137.781 169.783 137.324 169.672C136.868 169.559 136.868 169.559 136.868 169.559V169.556C136.87 169.555 136.87 169.554 136.871 169.551C136.874 169.546 136.876 169.54 136.881 169.529C136.889 169.511 136.901 169.484 136.916 169.45C136.947 169.382 136.989 169.283 137.043 169.164C137.149 168.925 137.294 168.601 137.449 168.262C137.602 167.925 137.767 167.566 137.913 167.26C138.048 166.976 138.199 166.671 138.312 166.483L139.06 167.025Z" fill="#1D1D1B"/>
<path d="M138.315 88.2547C138.713 88.1525 139.022 88.0412 139.32 87.9869C141.57 87.587 143.074 88.4915 143.686 90.8582C144.149 92.6491 143.955 94.7765 142.995 97.1859C142.034 99.5953 140.592 101.527 138.823 103.039C137.168 104.484 135.423 105.189 133.968 105.002C132.455 104.837 131.535 103.763 131.013 102.121C130.425 100.275 130.42 98.0477 130.79 95.5904C131.272 92.2894 132.469 88.7917 134.243 85.5037C136.296 81.6644 138.845 78.5497 141.796 76.0588C141.99 75.8945 142.082 75.8906 142.161 76.0549C142.481 76.7071 142.806 77.3541 143.145 77.9843C143.255 78.1978 143.224 78.3479 142.972 78.6274C140.987 80.8233 139.523 83.3349 138.736 86.2115C138.545 86.8921 138.456 87.5521 138.315 88.2547Z" fill="#FFEADD"/>
<path d="M138.315 88.2547C138.713 88.1525 139.022 88.0412 139.32 87.9869C141.57 87.587 143.074 88.4915 143.686 90.8582C144.149 92.6491 143.955 94.7765 142.995 97.1859C142.034 99.5953 140.592 101.527 138.823 103.039C137.168 104.484 135.423 105.189 133.968 105.002C132.455 104.837 131.535 103.763 131.013 102.121C130.425 100.275 130.42 98.0477 130.79 95.5904C131.272 92.2894 132.469 88.7917 134.243 85.5037C136.296 81.6644 138.845 78.5497 141.796 76.0588C141.99 75.8945 142.082 75.8906 142.161 76.0549C142.481 76.7071 142.806 77.3541 143.145 77.9843C143.255 78.1978 143.224 78.3479 142.972 78.6274C140.987 80.8233 139.523 83.3349 138.736 86.2115C138.545 86.8921 138.456 87.5521 138.315 88.2547Z" stroke="#1D1D1B" stroke-width="1.29574" stroke-linejoin="round"/>
<path d="M155.937 80.4906C156.335 80.3883 156.645 80.277 156.943 80.2227C159.192 79.8229 160.697 80.7274 161.308 83.0941C161.772 84.885 161.578 87.0123 160.617 89.4217C159.657 91.8311 158.214 93.7631 156.446 95.2745C154.791 96.7199 153.046 97.4251 151.591 97.2375C150.078 97.0731 149.158 95.9991 148.635 94.357C148.047 92.5105 148.042 90.2835 148.412 87.8262C148.895 84.5252 150.092 81.0276 151.865 77.7395C153.918 73.9002 156.467 70.7856 159.419 68.2946C159.613 68.1303 159.705 68.1264 159.784 68.2908C160.104 68.9429 160.428 69.5899 160.767 70.2201C160.878 70.4336 160.846 70.5837 160.595 70.8632C158.61 73.0591 157.146 75.5708 156.359 78.4473C156.168 79.128 156.078 79.7879 155.937 80.4906Z" fill="#FFEADD"/>
<path d="M155.937 80.4906C156.335 80.3883 156.645 80.277 156.943 80.2227C159.192 79.8229 160.697 80.7274 161.308 83.0941C161.772 84.885 161.578 87.0123 160.617 89.4217C159.657 91.8311 158.214 93.7631 156.446 95.2745C154.791 96.7199 153.046 97.4251 151.591 97.2375C150.078 97.0731 149.158 95.9991 148.635 94.357C148.047 92.5105 148.042 90.2835 148.412 87.8262C148.895 84.5252 150.092 81.0276 151.865 77.7395C153.918 73.9002 156.467 70.7856 159.419 68.2946C159.613 68.1303 159.705 68.1264 159.784 68.2908C160.104 68.9429 160.428 69.5899 160.767 70.2201C160.878 70.4336 160.846 70.5837 160.595 70.8632C158.61 73.0591 157.146 75.5708 156.359 78.4473C156.168 79.128 156.078 79.7879 155.937 80.4906Z" stroke="#1D1D1B" stroke-width="1.29574" stroke-linejoin="round"/>
<path d="M133.012 119.431L182.575 89.3452L133.012 119.431Z" fill="#D4C8FB"/>
<path d="M133.012 119.431L182.575 89.3452" stroke="#1D1D1B" stroke-width="3.16653" stroke-linecap="round" stroke-linejoin="round"/>
<path d="M132.854 128.003L163.93 108.513L132.854 128.003Z" fill="#D4C8FB"/>
<path d="M132.854 128.003L163.93 108.513" stroke="#1D1D1B" stroke-width="3.16653" stroke-linecap="round" stroke-linejoin="round"/>
</svg>
