<svg width="270" height="189" viewBox="0 0 270 189" fill="none" xmlns="http://www.w3.org/2000/svg">
<mask id="mask0_1_275" style="mask-type:luminance" maskUnits="userSpaceOnUse" x="0" y="-32" width="270" height="277">
<path d="M0.838501 -31.1597H269.161V244.678H0.838501V-31.1597Z" fill="white"/>
</mask>
<g mask="url(#mask0_1_275)">
<path d="M244.934 105.858C254.54 111.563 254.591 120.821 245.044 126.529L152.808 181.689C143.264 187.399 127.735 187.399 118.129 181.689L25.2634 126.526C15.6577 120.821 15.606 111.563 25.1497 105.858L117.386 50.6944C126.933 44.9853 142.462 44.9853 152.068 50.6944L244.934 105.858Z" fill="#FFBC90"/>
<path d="M244.934 105.858C254.54 111.563 254.591 120.821 245.044 126.529L152.808 181.689C143.264 187.399 127.735 187.399 118.129 181.689L25.2634 126.526C15.6577 120.821 15.606 111.563 25.1497 105.858L117.386 50.6944C126.933 44.9853 142.462 44.9853 152.068 50.6944L244.934 105.858Z" stroke="#1D1D1B" stroke-width="0.675" stroke-miterlimit="10"/>
<mask id="mask1_1_275" style="mask-type:alpha" maskUnits="userSpaceOnUse" x="-1" y="-35" width="248" height="202">
<path d="M246.622 -34.4697L94.2149 -12.4027L-0.234741 51.5917L40.282 92.8984V111.448C40.282 111.448 40.198 114.138 42.9148 116.327C45.6316 118.517 70.8708 133.516 70.8708 133.516L121.986 163.996C121.986 163.996 132.25 170.547 147.544 164.134C147.745 164.065 169.211 151.238 169.211 151.238C169.211 151.238 224.377 118.05 226.096 117.103C228.309 115.448 229.026 113.704 229.204 111.68C229.241 111.263 229.248 102.07 229.322 90.1844C233.923 51.6344 246.622 -34.4697 246.622 -34.4697Z" fill="#1C1C1A"/>
</mask>
<g mask="url(#mask1_1_275)">
<path d="M46.4843 104.535L121.096 148.864C121.33 149.002 121.567 149.137 121.808 149.265L122.056 149.392L122.545 149.644L122.844 149.782C122.996 149.856 123.151 149.926 123.305 149.994L123.632 150.136C123.77 150.192 123.908 150.253 124.049 150.305C124.393 150.443 124.737 150.578 125.081 150.698L125.246 150.756C125.556 150.858 125.866 150.957 126.179 151.052L126.523 151.151L127.122 151.315L127.487 151.41L128.151 151.567L128.468 151.637L129.08 151.758L129.425 151.822L130.23 151.952L130.378 151.974C130.691 152.02 131.008 152.062 131.324 152.098H131.514C131.768 152.126 132.019 152.155 132.274 152.176L132.618 152.2C132.821 152.2 133.021 152.232 133.224 152.242L133.623 152.26C133.813 152.26 133.999 152.26 134.188 152.281H134.552H135.169H135.575H136.15H136.525L137.192 152.246L137.592 152.219L138.228 152.165L138.603 152.126C138.947 152.091 139.264 152.052 139.591 152.005L139.746 151.984C140.125 151.931 140.496 151.867 140.865 151.8L141.264 151.725L141.781 151.62C141.921 151.591 142.063 151.556 142.199 151.524C142.338 151.492 142.544 151.447 142.702 151.408L143.119 151.297L143.611 151.163L144.02 151.042L144.503 150.89L144.847 150.773C145.135 150.674 145.421 150.572 145.703 150.461L145.883 150.398C146.227 150.266 146.543 150.128 146.867 149.984L147.119 149.866C147.366 149.753 147.611 149.632 147.848 149.512L148.12 149.374C148.426 149.212 148.732 149.045 149.028 148.868L223.368 104.41C223.526 104.315 223.674 104.219 223.825 104.124L224.17 103.89L224.483 103.67L224.827 103.426L225.12 103.199L225.433 102.951L225.701 102.718L225.991 102.463L226.335 102.137L226.413 102.059C226.559 101.914 226.693 101.765 226.827 101.616C226.858 101.584 226.888 101.546 226.92 101.51C227.03 101.383 227.136 101.255 227.24 101.124L227.308 101.039L227.439 100.855C227.535 100.724 227.632 100.593 227.721 100.462C227.77 100.391 227.812 100.316 227.859 100.242C227.908 100.168 228.007 100.005 228.076 99.888L228.207 99.6401C228.262 99.5374 228.313 99.4381 228.362 99.3355C228.41 99.2326 228.44 99.1653 228.478 99.0771C228.516 98.9885 228.565 98.8716 228.603 98.769C228.641 98.6661 228.671 98.5952 228.699 98.5066C228.726 98.4184 228.764 98.3119 228.796 98.2129C228.826 98.1136 228.847 98.0322 228.871 97.9436C228.895 97.8551 228.919 97.7453 228.94 97.646C228.961 97.547 228.981 97.4689 228.995 97.3771C229.008 97.2849 229.029 97.1752 229.044 97.0726C229.057 96.9697 229.067 96.8952 229.074 96.8069C229.082 96.7184 229.074 96.6014 229.099 96.4988C229.122 96.3959 229.099 96.2616 229.099 96.1446L229.057 110.58V110.757V110.937C229.057 110.998 229.057 111.143 229.036 111.246C229.016 111.349 229.016 111.423 229.002 111.511C228.987 111.6 228.974 111.713 228.957 111.816V111.925C228.957 111.962 228.93 112.032 228.919 112.085C228.909 112.139 228.874 112.283 228.851 112.382C228.826 112.481 228.798 112.563 228.771 112.652C228.743 112.74 228.713 112.847 228.679 112.946C228.679 112.989 228.654 113.028 228.637 113.07L228.582 113.208C228.541 113.31 228.499 113.413 228.455 113.516C228.41 113.619 228.379 113.689 228.338 113.775C228.296 113.86 228.238 113.977 228.186 114.08C228.135 114.181 228.138 114.179 228.111 114.228C228.083 114.278 228.069 114.292 228.052 114.327C227.984 114.447 227.91 114.564 227.835 114.681L227.698 114.901C227.607 115.032 227.515 115.164 227.418 115.294C227.384 115.344 227.354 115.389 227.316 115.439L227.284 115.478L227.215 115.563C227.113 115.694 227.006 115.821 226.896 115.949L226.803 116.055C226.672 116.204 226.534 116.353 226.39 116.498L226.311 116.575L226.089 116.795L225.974 116.902L225.688 117.157L225.415 117.39L225.107 117.639C225.01 117.717 224.913 117.79 224.81 117.865C224.707 117.94 224.59 118.028 224.465 118.106L224.149 118.325C224.032 118.407 223.912 118.485 223.805 118.559L223.588 118.701L223.347 118.85L149.008 163.306C148.712 163.481 148.409 163.66 148.099 163.813L147.83 163.952C147.59 164.072 147.346 164.192 147.098 164.306L146.846 164.422C146.523 164.564 146.195 164.702 145.862 164.833L145.686 164.901C145.404 165.01 145.116 165.113 144.826 165.212L144.678 165.265L144.468 165.329L143.986 165.481L143.577 165.601L143.085 165.737L142.672 165.842L142.165 165.963L141.749 166.058L141.23 166.161L140.937 166.221H140.834C140.462 166.289 140.09 166.353 139.716 166.406L139.557 166.427C139.212 166.472 138.903 166.511 138.572 166.548H138.418L138.194 166.569L137.557 166.622L137.158 166.649L136.494 166.686H136.225H136.108H135.53H135.124H134.508H134.143L133.582 166.665H133.183L132.574 166.622L132.23 166.597H132.209C131.957 166.575 131.703 166.548 131.452 166.519H131.259C130.942 166.484 130.629 166.441 130.316 166.394L130.178 166.371C129.906 166.332 129.638 166.289 129.37 166.239L129.025 166.175C128.819 166.136 128.616 166.101 128.413 166.058H128.344L128.093 165.998L127.432 165.846L127.064 165.751L126.465 165.587L126.282 165.538L126.127 165.488C125.811 165.393 125.501 165.294 125.195 165.191L125.03 165.134C124.685 165.01 124.341 164.879 123.997 164.741L123.897 164.706L123.581 164.57L123.236 164.43C123.082 164.362 122.93 164.288 122.775 164.216L122.479 164.078C122.311 163.997 122.135 163.912 121.987 163.827L121.743 163.7C121.502 163.569 121.264 163.438 121.03 163.3L46.202 118.843C42.306 116.526 40.3512 113.487 40.3684 110.453L40.4062 96.0205C40.4062 99.052 42.3441 102.091 46.2398 104.407L46.4843 104.535Z" fill="#1D1D1B"/>
<path d="M46.4843 104.535L121.096 148.864C121.33 149.002 121.567 149.137 121.808 149.265L122.056 149.392L122.545 149.644L122.844 149.782C122.996 149.856 123.151 149.926 123.305 149.994L123.632 150.136C123.77 150.192 123.908 150.253 124.049 150.305C124.393 150.443 124.737 150.578 125.081 150.698L125.246 150.756C125.556 150.858 125.866 150.957 126.179 151.052L126.523 151.151L127.122 151.315L127.487 151.41L128.151 151.567L128.468 151.637L129.08 151.758L129.425 151.822L130.23 151.952L130.378 151.974C130.691 152.02 131.008 152.062 131.324 152.098H131.514C131.768 152.126 132.019 152.155 132.274 152.176L132.618 152.2C132.821 152.2 133.021 152.232 133.224 152.242L133.623 152.26C133.813 152.26 133.999 152.26 134.188 152.281H134.552H135.169H135.575H136.15H136.525L137.192 152.246L137.592 152.219L138.228 152.165L138.603 152.126C138.947 152.091 139.264 152.052 139.591 152.005L139.746 151.984C140.125 151.931 140.496 151.867 140.865 151.8L141.264 151.725L141.781 151.62C141.921 151.591 142.063 151.556 142.199 151.524C142.338 151.492 142.544 151.447 142.702 151.408L143.119 151.297L143.611 151.163L144.02 151.042L144.503 150.89L144.847 150.773C145.135 150.674 145.421 150.572 145.703 150.461L145.883 150.398C146.227 150.267 146.543 150.128 146.867 149.984L147.119 149.866C147.366 149.753 147.611 149.632 147.848 149.512L148.12 149.374C148.426 149.212 148.732 149.045 149.028 148.868L223.368 104.41C223.526 104.315 223.674 104.219 223.825 104.124L224.17 103.89L224.483 103.67L224.827 103.426L225.12 103.199L225.433 102.951L225.701 102.718L225.991 102.463L226.335 102.137L226.413 102.059C226.559 101.914 226.693 101.765 226.827 101.616C226.858 101.584 226.888 101.546 226.92 101.51C227.03 101.383 227.136 101.255 227.24 101.124L227.308 101.039L227.439 100.855C227.535 100.724 227.632 100.593 227.721 100.462C227.77 100.391 227.812 100.316 227.859 100.242C227.908 100.168 228.007 100.005 228.076 99.888L228.207 99.6401C228.262 99.5374 228.313 99.4381 228.362 99.3355C228.41 99.2326 228.44 99.1653 228.478 99.0771C228.516 98.9885 228.565 98.8716 228.603 98.769C228.641 98.6661 228.671 98.5952 228.699 98.5066C228.726 98.4184 228.764 98.3119 228.796 98.2129C228.826 98.1136 228.847 98.0322 228.871 97.9436C228.895 97.8551 228.919 97.7453 228.94 97.646C228.961 97.547 228.981 97.4689 228.995 97.3771C229.008 97.2849 229.029 97.1752 229.044 97.0726C229.057 96.9697 229.067 96.8952 229.074 96.8069C229.082 96.7184 229.074 96.6014 229.099 96.4988C229.122 96.3959 229.099 96.2616 229.099 96.1446L229.057 110.58V110.757V110.937C229.057 110.998 229.057 111.143 229.036 111.246C229.016 111.349 229.016 111.423 229.002 111.511C228.987 111.6 228.974 111.713 228.957 111.816V111.925C228.957 111.962 228.93 112.032 228.919 112.085C228.909 112.139 228.874 112.283 228.851 112.382C228.826 112.481 228.798 112.563 228.771 112.652C228.743 112.74 228.713 112.847 228.679 112.946C228.679 112.989 228.654 113.028 228.637 113.07L228.582 113.208C228.541 113.31 228.499 113.413 228.455 113.516C228.41 113.619 228.379 113.689 228.338 113.775C228.296 113.86 228.238 113.977 228.186 114.08C228.135 114.181 228.138 114.179 228.111 114.228C228.083 114.278 228.069 114.292 228.052 114.327C227.984 114.447 227.91 114.564 227.835 114.681L227.698 114.901C227.607 115.032 227.515 115.164 227.418 115.294C227.384 115.344 227.354 115.389 227.316 115.439L227.284 115.478L227.215 115.563C227.113 115.694 227.006 115.821 226.896 115.949L226.803 116.055C226.672 116.204 226.534 116.353 226.39 116.498L226.311 116.575L226.089 116.795L225.974 116.902L225.688 117.157L225.415 117.39L225.107 117.639C225.01 117.717 224.913 117.79 224.81 117.865C224.707 117.94 224.59 118.028 224.465 118.106L224.149 118.325C224.032 118.407 223.912 118.485 223.805 118.559L223.588 118.701L223.347 118.85L149.008 163.306C148.712 163.481 148.409 163.66 148.099 163.813L147.83 163.952C147.59 164.072 147.346 164.192 147.098 164.306L146.846 164.422C146.523 164.564 146.195 164.702 145.862 164.833L145.686 164.901C145.404 165.01 145.116 165.113 144.826 165.212L144.678 165.265L144.468 165.329L143.986 165.481L143.577 165.601L143.085 165.737L142.672 165.842L142.165 165.963L141.749 166.058L141.23 166.161L140.937 166.221H140.834C140.462 166.289 140.09 166.353 139.716 166.406L139.557 166.427C139.212 166.472 138.903 166.511 138.572 166.548H138.418L138.194 166.569L137.557 166.622L137.158 166.649L136.494 166.686H136.225H136.108H135.53H135.124H134.508H134.143L133.582 166.665H133.183L132.574 166.622L132.23 166.597H132.209C131.957 166.575 131.703 166.548 131.452 166.519H131.259C130.942 166.484 130.629 166.441 130.316 166.394L130.178 166.371C129.906 166.332 129.638 166.289 129.37 166.239L129.025 166.175C128.819 166.136 128.616 166.101 128.413 166.058H128.344L128.093 165.998L127.432 165.846L127.064 165.751L126.465 165.587L126.282 165.538L126.127 165.488C125.811 165.393 125.501 165.294 125.195 165.191L125.03 165.134C124.685 165.01 124.341 164.879 123.997 164.741L123.897 164.706L123.581 164.57L123.236 164.43C123.082 164.362 122.93 164.288 122.775 164.216L122.479 164.078C122.311 163.997 122.135 163.912 121.987 163.827L121.743 163.7C121.502 163.569 121.264 163.438 121.03 163.3L46.202 118.843C42.306 116.526 40.3512 113.487 40.3684 110.453L40.4062 96.0205C40.4062 99.052 42.3441 102.091 46.2398 104.407L46.4843 104.535Z" stroke="#1D1D1B" stroke-width="0.05859" stroke-miterlimit="10"/>
<path d="M223.271 88.8291C231.015 93.4331 231.052 100.871 223.36 105.475L149.021 149.931C141.329 154.536 128.815 154.536 121.071 149.931L46.2567 105.489C38.5164 100.885 38.4753 93.4475 46.1674 88.8432L120.507 44.3861C128.199 39.7821 140.716 39.7821 148.457 44.3861L223.271 88.8291Z" fill="white"/>
<path d="M223.271 88.8291C231.015 93.4331 231.052 100.871 223.36 105.475L149.021 149.931C141.329 154.536 128.815 154.536 121.071 149.931L46.2567 105.489C38.5164 100.885 38.4753 93.4475 46.1674 88.8432L120.507 44.3861C128.199 39.7821 140.716 39.7821 148.457 44.3861L223.271 88.8291Z" stroke="#1D1D1B" stroke-width="0.675" stroke-miterlimit="10"/>
</g>
<mask id="mask2_1_275" style="mask-type:luminance" maskUnits="userSpaceOnUse" x="0" y="-32" width="270" height="277">
<path d="M0.838501 -31.1597H269.161V244.678H0.838501V-31.1597Z" fill="white"/>
</mask>
<g mask="url(#mask2_1_275)">
<path d="M162.54 77.197C166.534 79.5635 169.573 82.454 171.386 85.6206C173.482 89.2845 173.924 93.1714 172.706 97.1829C172.6 97.5335 172.262 97.7486 171.908 97.705C171.423 97.6452 171.118 97.1387 171.252 96.656C172.288 92.9289 171.829 89.3229 169.885 85.9212C168.154 82.8906 165.245 80.1259 161.423 77.8613C160.946 77.5791 160.455 77.3027 159.948 77.0365C150.397 71.9972 137.332 70.4142 124.929 72.7839C124.731 72.822 124.53 72.7279 124.429 72.5481C124.266 72.2579 124.43 71.8885 124.751 71.8287C137.599 69.4388 151.102 71.111 160.998 76.3337C161.526 76.6139 162.041 76.9024 162.54 77.197Z" fill="#1D1D1B"/>
<path d="M138.787 93.0124C144.213 96.2279 142.821 100.573 141.584 104.438C140.684 107.252 139.906 109.681 141.858 111.14C141.969 111.222 142.087 111.302 142.215 111.377C143.518 112.151 145.734 112.581 148.951 112.69C149.212 112.699 149.416 112.925 149.4 113.192C149.384 113.445 149.176 113.639 148.931 113.632C145.274 113.511 142.7 112.991 141.103 112.045C140.931 111.943 140.771 111.837 140.621 111.725C138.215 109.927 139.097 107.174 140.028 104.26C141.246 100.461 142.502 96.5431 137.659 93.6708C137.316 93.4675 136.944 93.2706 136.54 93.0797C131.54 90.7114 124.315 90.6523 118.966 92.9396C110.892 96.3906 107.301 101.182 105.71 104.594C103.941 108.389 103.799 112.386 105.28 115.513C105.497 115.972 105.261 116.544 104.776 116.65C104.485 116.713 104.185 116.585 104.039 116.319C102.19 112.95 102.234 108.517 104.183 104.339C105.842 100.782 109.593 95.7835 118.038 92.1739C123.957 89.6428 131.972 89.712 137.522 92.3443C137.982 92.5598 138.401 92.7829 138.787 93.0124Z" fill="#1D1D1B"/>
<path d="M129.628 99.1117C130.183 99.4408 130.587 99.8551 130.788 100.326C131.614 102.25 130.885 104.531 130.181 106.739C129.135 110.006 128.134 113.137 131.719 115.262C132.948 115.989 134.712 116.598 137.199 117.054C137.506 117.11 137.681 117.452 137.547 117.742C137.457 117.935 137.254 118.044 137.049 118.009C134.096 117.494 132.011 116.777 130.569 115.922C126.414 113.461 127.572 109.849 128.623 106.559C129.328 104.356 129.993 102.276 129.254 100.556C129.126 100.255 128.866 99.9892 128.51 99.7779C128.181 99.5831 127.77 99.4347 127.303 99.3514C126.321 99.1768 125.289 99.3147 124.539 99.7191C121.083 101.594 118.175 105.092 116.761 109.079C115.452 112.769 115.664 116.156 117.319 118.556C117.598 118.962 117.447 119.561 116.987 119.711C116.75 119.789 116.488 119.723 116.325 119.529C114.136 116.922 113.728 113.07 115.212 108.882C116.692 104.709 119.778 101.025 123.47 99.0243C124.634 98.3945 126.234 98.1794 127.754 98.4516C128.48 98.5796 129.118 98.8091 129.628 99.1117Z" fill="#1D1D1B"/>
<path d="M124.33 104.765C124.818 104.863 125.064 105.43 124.835 105.883C121.441 112.597 123.858 116.637 126.175 118.733C126.516 119.042 126.457 119.626 126.044 119.821C125.849 119.914 125.619 119.891 125.449 119.757C122.773 117.646 121.478 114.957 121.595 111.758C121.687 109.217 122.669 106.819 123.571 105.125C123.719 104.846 124.027 104.704 124.33 104.765Z" fill="#1D1D1B"/>
<path d="M152.319 83.9448C162.702 90.0955 161.343 95.9148 160.349 100.162C159.753 102.722 159.486 104.288 161.069 105.224C161.201 105.303 161.347 105.377 161.507 105.446C161.835 105.591 161.961 106.024 161.728 106.303C161.602 106.452 161.402 106.514 161.218 106.452C160.724 106.286 160.307 106.099 159.957 105.892C157.723 104.57 158.221 102.439 158.784 100.03C159.729 95.9777 161.025 90.4265 151.206 84.6091C145.382 81.16 137.985 79.4495 129.809 79.663C122.323 79.858 114.276 81.6984 107.143 84.8427C100.67 87.6976 95.5538 91.9014 91.9298 97.3428C91.7643 97.5914 91.4697 97.7144 91.1836 97.649C90.6988 97.5387 90.4728 96.9627 90.7602 96.5462C94.4752 91.1574 99.6634 86.9677 106.195 84.0869C113.686 80.7843 121.824 78.9296 129.732 78.7224C138.363 78.497 146.172 80.3027 152.319 83.9448Z" fill="#1D1D1B"/>
<path d="M148.384 87.5839C151.804 89.6091 153.742 91.8944 154.306 94.5494C154.834 97.0336 154.072 99.4179 153.402 101.522C152.673 103.795 152.045 105.76 153.411 106.951C153.546 107.069 153.702 107.181 153.876 107.285C154.614 107.721 155.71 108.038 157.199 108.244C157.49 108.284 157.679 108.583 157.589 108.871C157.522 109.085 157.317 109.222 157.098 109.194C155.186 108.95 153.757 108.541 152.764 107.953C152.516 107.808 152.296 107.648 152.102 107.48C150.364 105.965 151.049 103.824 151.841 101.344C153.09 97.4399 154.63 92.6155 147.245 88.2401C146.952 88.0655 146.645 87.8931 146.322 87.7202C141.591 85.1894 135.445 83.7591 129.018 83.6963C122.626 83.6312 116.365 84.9133 111.38 87.3081C105.303 90.2267 100.79 93.6799 97.9671 97.5698C95.5036 100.968 94.382 104.606 94.6297 108.401C94.6605 108.874 94.316 109.294 93.8558 109.313C93.4464 109.329 93.0903 109.02 93.0589 108.601C92.4211 100.061 98.541 92.2624 110.383 86.5746C115.654 84.0438 122.277 82.687 129.039 82.7559C135.849 82.8249 142.362 84.3401 147.377 87.0234C147.728 87.2041 148.062 87.393 148.384 87.5839Z" fill="#1D1D1B"/>
<path d="M143.605 90.0117C150.123 93.8731 148.641 98.7665 147.434 102.756C146.63 105.415 145.935 107.713 147.685 109.077C147.804 109.168 147.934 109.258 148.075 109.34C149.133 109.967 150.831 110.355 153.237 110.519C153.506 110.538 153.706 110.788 153.665 111.063C153.631 111.303 153.424 111.477 153.188 111.461C150.349 111.276 148.299 110.8 146.964 110.007C146.773 109.894 146.594 109.771 146.43 109.645C144.255 107.952 145.005 105.465 145.878 102.587C147.073 98.6324 148.42 94.1901 142.485 90.6739C142.016 90.3959 141.501 90.1234 140.936 89.8572C134.009 86.5951 124.068 86.506 116.763 89.6423C109.415 92.7968 104.085 96.9139 101.345 101.551C99.1566 105.251 98.6642 109.225 99.9197 112.849C100.086 113.329 99.8019 113.864 99.313 113.938C98.9832 113.988 98.6588 113.808 98.5354 113.49C97.018 109.579 97.4763 105.249 99.8483 101.236C102.699 96.4183 108.224 92.1447 115.833 88.8785C123.709 85.4965 134.434 85.596 141.917 89.1224C142.53 89.4106 143.093 89.7069 143.605 90.0117Z" fill="#1D1D1B"/>
<path d="M134.553 95.7534C138.518 98.1017 137.19 101.689 135.901 105.17C134.791 108.167 133.746 110.999 135.909 112.956C136.163 113.186 136.456 113.399 136.792 113.598C138.104 114.377 140.059 114.929 142.719 115.278C143.009 115.317 143.197 115.619 143.104 115.906C143.035 116.118 142.831 116.254 142.613 116.226C139.536 115.841 137.248 115.194 135.68 114.264C135.266 114.019 134.904 113.754 134.589 113.471C132.057 111.179 133.227 108.019 134.357 104.963C135.602 101.6 136.782 98.4045 133.399 96.3997C133.053 96.1945 132.661 96.0011 132.213 95.8224C129.763 94.8393 125.764 94.2261 120.633 96.8949C116.486 99.0522 112.878 102.772 110.981 106.848C109.147 110.79 109.171 114.584 111.009 117.437C111.279 117.856 111.104 118.452 110.634 118.59C110.382 118.663 110.11 118.582 109.949 118.37C107.551 115.232 107.372 111.07 109.453 106.595C111.429 102.349 115.217 98.4594 119.588 96.1865C124.181 93.7978 128.979 93.3914 133.094 95.0429C133.645 95.2663 134.13 95.5016 134.553 95.7534Z" fill="#1D1D1B"/>
<path d="M157.695 80.2521C158.664 80.8247 159.608 81.4545 160.52 82.1432C166.978 87.0223 166.774 92.0373 166.609 96.0695C166.534 97.8754 166.47 99.4838 167.004 100.792C167.195 101.259 166.995 101.855 166.519 101.982C166.255 102.052 165.97 101.957 165.824 101.719C164.86 100.151 164.938 98.2356 165.026 96.043C165.184 92.1633 165.38 87.3351 159.277 82.7242C158.422 82.0781 157.522 81.4749 156.577 80.9163C153.454 79.0657 149.85 77.6926 145.824 76.8234C141.385 75.8624 136.432 75.5091 131.105 75.7733C121.051 76.266 112.775 78.7471 109.519 80.0965C109.342 80.1699 109.14 80.1415 108.991 80.0196C108.679 79.7658 108.746 79.2646 109.117 79.1181C113.746 77.2924 122.207 75.265 130.97 74.8346C138.619 74.457 149.116 75.1679 157.695 80.2521Z" fill="#1D1D1B"/>
<path d="M167.001 74.1235C170.558 76.3605 173.173 78.7239 174.815 81.1734C175.097 81.594 174.851 82.1575 174.362 82.2544C174.063 82.3142 173.76 82.1722 173.595 81.9076C172.054 79.4359 169.469 77.0454 165.9 74.7979C161.237 72.1995 156.231 70.4921 151.01 69.7175C150.712 69.6731 150.529 69.3562 150.637 69.0671C150.715 68.8613 150.919 68.7364 151.131 68.7667C156.717 69.5636 162.054 71.3637 167.001 74.1235Z" fill="#1D1D1B"/>
</g>
<mask id="mask3_1_275" style="mask-type:alpha" maskUnits="userSpaceOnUse" x="29" y="92" width="119" height="72">
<path d="M40.0472 92.5537L29.8174 99.1738L136.04 162.72L146.404 156.41L40.0472 92.5537Z" fill="#FFBC90"/>
<path d="M40.0472 92.5537L29.8174 99.1738L136.04 162.72L146.404 156.41L40.0472 92.5537Z" stroke="#1C1C1A" stroke-width="0.675"/>
</mask>
<g mask="url(#mask3_1_275)">
<path d="M162.541 77.1976C166.533 79.5643 169.573 82.4523 171.387 85.6189C173.483 89.2848 173.923 93.1713 172.707 97.182C172.6 97.5323 172.262 97.7475 171.908 97.7034C171.422 97.6454 171.119 97.1379 171.253 96.6552C172.289 92.9286 171.83 89.3234 169.885 85.9196C168.154 82.8909 165.245 80.1242 161.422 77.8596C160.947 77.5782 160.456 77.3024 159.949 77.0348C150.396 71.998 137.332 70.4147 124.93 72.7842C124.731 72.8228 124.53 72.729 124.431 72.5469C124.267 72.2573 124.431 71.8877 124.753 71.827C137.6 69.4382 151.102 71.1098 160.998 76.3342C161.526 76.6128 162.042 76.9024 162.541 77.1976ZM138.786 93.0114C144.214 96.2276 142.822 100.572 141.585 104.439C140.683 107.253 139.905 109.68 141.858 111.139C141.968 111.222 142.086 111.302 142.215 111.377C143.519 112.152 145.733 112.582 148.953 112.69C149.21 112.698 149.414 112.924 149.401 113.192C149.385 113.445 149.175 113.639 148.931 113.633C145.274 113.512 142.701 112.99 141.102 112.044C140.93 111.942 140.772 111.837 140.621 111.724C138.214 109.926 139.097 107.173 140.028 104.26C141.246 100.462 142.502 96.5421 137.659 93.6706C137.316 93.4665 136.945 93.2706 136.54 93.0803C131.541 90.7109 124.315 90.6529 118.965 92.9396C110.891 96.3904 107.301 101.182 105.71 104.594C103.942 108.389 103.799 112.386 105.28 115.511C105.498 115.972 105.262 116.543 104.776 116.651C104.486 116.711 104.186 116.584 104.038 116.32C102.189 112.949 102.235 108.516 104.183 104.34C105.841 100.782 109.592 95.7835 118.037 92.1728C123.956 89.6434 131.971 89.7123 137.522 92.3438C137.981 92.559 138.402 92.7824 138.786 93.0114ZM129.628 99.1129C130.184 99.4411 130.586 99.8549 130.787 100.327C131.614 102.249 130.887 104.53 130.181 106.74C129.134 110.006 128.134 113.136 131.718 115.263C132.947 115.989 134.713 116.598 137.197 117.053C137.506 117.111 137.68 117.451 137.546 117.74C137.458 117.936 137.254 118.044 137.05 118.008C134.096 117.495 132.011 116.778 130.567 115.922C126.414 113.462 127.573 109.848 128.622 106.558C129.328 104.357 129.993 102.277 129.255 100.556C129.126 100.255 128.866 99.99 128.509 99.7777C128.182 99.5818 127.769 99.4356 127.302 99.3501C126.32 99.1763 125.289 99.3142 124.538 99.7197C121.082 101.593 118.176 105.093 116.762 109.079C115.453 112.77 115.665 116.157 117.317 118.557C117.597 118.962 117.446 119.561 116.987 119.712C116.749 119.79 116.488 119.723 116.325 119.53C114.135 116.921 113.727 113.07 115.211 108.883C116.692 104.71 119.778 101.024 123.47 99.0246C124.635 98.3957 126.234 98.1806 127.753 98.4509C128.48 98.5805 129.118 98.8095 129.628 99.1129ZM124.329 104.765C124.817 104.861 125.064 105.43 124.836 105.882C121.442 112.596 123.859 116.637 126.175 118.733C126.516 119.042 126.457 119.627 126.043 119.82C125.85 119.914 125.619 119.892 125.45 119.757C122.772 117.646 121.479 114.957 121.595 111.757C121.686 109.217 122.67 106.817 123.572 105.123C123.72 104.845 124.028 104.704 124.329 104.765ZM152.317 83.9446C162.702 90.0957 161.344 95.9159 160.348 100.161C159.753 102.721 159.484 104.288 161.07 105.225C161.202 105.303 161.347 105.377 161.508 105.446C161.835 105.59 161.961 106.023 161.728 106.301C161.601 106.453 161.403 106.514 161.218 106.453C160.724 106.287 160.308 106.1 159.957 105.893C157.724 104.569 158.221 102.439 158.784 100.031C159.729 95.9766 161.025 90.4268 151.207 84.6093C145.381 81.1586 137.984 79.4484 129.811 79.6636C122.322 79.8566 114.275 81.6992 107.143 84.8438C100.671 87.6987 95.5538 91.9025 91.9287 97.342C91.7651 97.5903 91.4699 97.7144 91.1828 97.6482C90.6998 97.5379 90.4717 96.9613 90.7615 96.5448C94.4751 91.1577 99.6645 86.9677 106.195 84.088C113.687 80.7835 121.825 78.9298 129.733 78.7229C138.362 78.4968 146.173 80.3035 152.317 83.9446ZM148.384 87.5829C151.805 89.6103 153.742 91.8942 154.306 94.5505C154.834 97.0331 154.072 99.4191 153.402 101.521C152.672 103.794 152.044 105.761 153.412 106.952C153.546 107.068 153.702 107.181 153.876 107.286C154.614 107.722 155.709 108.039 157.198 108.243C157.491 108.284 157.679 108.582 157.59 108.872C157.523 109.084 157.316 109.222 157.099 109.195C155.186 108.949 153.756 108.541 152.763 107.953C152.516 107.807 152.296 107.647 152.103 107.479C150.364 105.965 151.048 103.824 151.84 101.344C153.09 97.4385 154.63 92.6141 147.246 88.2394C146.954 88.0656 146.645 87.8918 146.323 87.7208C141.593 85.1886 135.445 83.7598 129.019 83.6963C122.625 83.6301 116.365 84.9128 111.379 87.307C105.305 90.2254 100.789 93.6789 97.966 97.571C95.5028 100.967 94.3812 104.605 94.6307 108.4C94.6603 108.875 94.3168 109.294 93.8553 109.313C93.4474 109.33 93.0906 109.021 93.0584 108.602C92.4224 100.062 98.5402 92.2611 110.384 86.5733C115.654 84.0439 122.279 82.6867 129.04 82.7557C135.848 82.8247 142.363 84.339 147.378 87.0229C147.729 87.205 148.062 87.3925 148.384 87.5829ZM143.605 90.013C150.123 93.872 148.641 98.7653 147.434 102.757C146.629 105.416 145.934 107.714 147.686 109.076C147.804 109.167 147.933 109.258 148.075 109.341C149.132 109.967 150.831 110.356 153.238 110.519C153.506 110.538 153.705 110.789 153.664 111.062C153.632 111.302 153.423 111.476 153.187 111.459C150.348 111.277 148.298 110.8 146.964 110.008C146.774 109.895 146.594 109.771 146.43 109.644C144.254 107.951 145.006 105.465 145.878 102.588C147.072 98.6329 148.419 94.1892 142.486 90.675C142.017 90.3964 141.501 90.1233 140.935 89.8585C134.01 86.5954 124.068 86.5071 116.762 89.6434C109.415 92.7962 104.084 96.9145 101.344 101.551C99.1573 105.25 98.6636 109.225 99.9194 112.85C100.086 113.33 99.8013 113.865 99.313 113.939C98.9829 113.989 98.6583 113.81 98.5348 113.49C97.0188 109.578 97.475 105.25 99.8469 101.237C102.699 96.418 108.224 92.1452 115.834 88.8793C123.709 85.4975 134.434 85.5968 141.917 89.122C142.529 89.4117 143.093 89.7068 143.605 90.013ZM134.552 95.7532C138.518 98.1006 137.189 101.689 135.901 105.17C134.791 108.166 133.744 110.999 135.91 112.957C136.162 113.186 136.454 113.399 136.792 113.6C138.104 114.378 140.058 114.929 142.72 115.28C143.009 115.318 143.197 115.619 143.103 115.906C143.034 116.118 142.83 116.253 142.612 116.226C139.535 115.84 137.248 115.194 135.679 114.265C135.266 114.019 134.903 113.754 134.589 113.47C132.056 111.181 133.226 108.02 134.356 104.963C135.601 101.601 136.782 98.404 133.398 96.3986C133.052 96.1945 132.66 96.0014 132.212 95.8221C129.762 94.8402 125.764 94.225 120.634 96.8951C116.486 99.0522 112.877 102.77 110.982 106.847C109.147 110.792 109.171 114.585 111.009 117.437C111.277 117.856 111.103 118.452 110.634 118.59C110.381 118.662 110.11 118.582 109.949 118.372C107.55 115.233 107.371 111.07 109.453 106.596C111.428 102.348 115.216 98.4592 119.587 96.1862C124.181 93.7975 128.979 93.392 133.095 95.0443C133.645 95.2677 134.131 95.5022 134.552 95.7532ZM157.695 80.2511C158.663 80.8248 159.608 81.4537 160.52 82.1433C166.979 87.0229 166.775 92.0376 166.608 96.0704C166.533 97.8744 166.469 99.4825 167.006 100.793C167.196 101.259 166.995 101.855 166.517 101.982C166.254 102.053 165.97 101.957 165.822 101.72C164.859 100.15 164.937 98.2357 165.025 96.0428C165.184 92.1645 165.379 87.3346 159.278 82.7254C158.422 82.0771 157.523 81.4758 156.576 80.9159C153.455 79.065 149.849 77.6913 145.824 76.8224C141.386 75.8625 136.433 75.5094 131.104 75.7742C121.05 76.2652 112.775 78.7478 109.52 80.0966C109.343 80.1711 109.139 80.1408 108.991 80.0194C108.68 79.7656 108.745 79.2636 109.117 79.1174C113.746 77.2914 122.206 75.2639 130.97 74.8336C138.62 74.4557 149.116 75.1674 157.695 80.2511ZM167 74.122C170.558 76.359 173.172 78.7229 174.816 81.1724C175.098 81.5944 174.851 82.1571 174.363 82.2537C174.062 82.3144 173.759 82.1709 173.596 81.9061C172.055 79.4346 169.469 77.0459 165.9 74.7978C161.237 72.1994 156.232 70.4919 151.011 69.7168C150.713 69.6727 150.53 69.3555 150.638 69.0659C150.716 68.8618 150.92 68.7349 151.132 68.7652C156.718 69.5624 162.055 71.3636 167 74.122Z" stroke="#FFBC90" stroke-width="0.27"/>
<path d="M162.54 77.1966C166.534 79.563 169.573 82.4535 171.386 85.6201C173.482 89.284 173.924 93.1709 172.706 97.1824C172.6 97.533 172.262 97.7481 171.908 97.7045C171.423 97.6447 171.118 97.1383 171.252 96.6555C172.288 92.9284 171.829 89.3224 169.885 85.9208C168.154 82.8901 165.245 80.1254 161.423 77.8608C160.946 77.5786 160.455 77.3022 159.948 77.036C150.397 71.9967 137.332 70.4137 124.929 72.7834C124.731 72.8215 124.53 72.7274 124.429 72.5476C124.266 72.2574 124.43 71.8881 124.751 71.8282C137.599 69.4383 151.102 71.1105 160.998 76.3332C161.526 76.6134 162.041 76.902 162.54 77.1966Z" fill="#FFBC90"/>
<path d="M138.787 93.0124C144.213 96.2279 142.821 100.573 141.584 104.438C140.684 107.252 139.906 109.681 141.858 111.14C141.969 111.222 142.087 111.302 142.215 111.377C143.518 112.151 145.734 112.581 148.951 112.69C149.212 112.699 149.416 112.925 149.4 113.192C149.384 113.445 149.176 113.639 148.931 113.632C145.274 113.511 142.7 112.991 141.103 112.045C140.931 111.943 140.771 111.837 140.621 111.725C138.215 109.927 139.097 107.174 140.028 104.26C141.246 100.461 142.502 96.5431 137.659 93.6708C137.316 93.4675 136.944 93.2706 136.54 93.0797C131.54 90.7114 124.315 90.6523 118.966 92.9396C110.892 96.3906 107.301 101.182 105.71 104.594C103.941 108.389 103.799 112.386 105.28 115.513C105.497 115.972 105.261 116.544 104.776 116.65C104.485 116.713 104.185 116.585 104.039 116.319C102.19 112.95 102.234 108.517 104.183 104.339C105.842 100.782 109.593 95.7835 118.038 92.1739C123.957 89.6428 131.972 89.712 137.522 92.3443C137.982 92.5598 138.401 92.7829 138.787 93.0124Z" fill="#FFBC90"/>
<path d="M129.628 99.1117C130.183 99.4408 130.587 99.8551 130.788 100.326C131.614 102.25 130.885 104.531 130.181 106.739C129.135 110.006 128.134 113.137 131.719 115.262C132.948 115.989 134.712 116.598 137.199 117.054C137.506 117.11 137.681 117.452 137.547 117.742C137.457 117.935 137.254 118.044 137.049 118.009C134.096 117.494 132.011 116.777 130.569 115.922C126.414 113.461 127.572 109.849 128.623 106.559C129.328 104.356 129.993 102.276 129.254 100.556C129.126 100.255 128.866 99.9892 128.51 99.7779C128.181 99.5831 127.77 99.4347 127.303 99.3514C126.321 99.1768 125.289 99.3147 124.539 99.7191C121.083 101.594 118.175 105.092 116.761 109.079C115.452 112.769 115.664 116.156 117.319 118.556C117.598 118.962 117.447 119.561 116.987 119.711C116.75 119.789 116.488 119.723 116.325 119.529C114.136 116.922 113.728 113.07 115.212 108.882C116.692 104.709 119.778 101.025 123.47 99.0243C124.634 98.3945 126.234 98.1794 127.754 98.4516C128.48 98.5796 129.118 98.8091 129.628 99.1117Z" fill="#FFBC90"/>
<path d="M124.33 104.765C124.818 104.863 125.064 105.43 124.835 105.883C121.441 112.597 123.858 116.637 126.175 118.733C126.516 119.042 126.457 119.626 126.044 119.821C125.849 119.914 125.619 119.891 125.449 119.757C122.773 117.646 121.478 114.957 121.595 111.758C121.687 109.217 122.669 106.819 123.571 105.125C123.719 104.846 124.027 104.704 124.33 104.765Z" fill="#FFBC90"/>
<path d="M152.319 83.9444C162.702 90.095 161.343 95.9143 160.349 100.162C159.753 102.721 159.486 104.287 161.069 105.224C161.201 105.303 161.347 105.377 161.507 105.446C161.835 105.59 161.961 106.024 161.728 106.302C161.602 106.452 161.402 106.513 161.218 106.452C160.724 106.286 160.307 106.099 159.957 105.892C157.723 104.57 158.221 102.439 158.784 100.03C159.729 95.9772 161.025 90.426 151.206 84.6086C145.382 81.1595 137.985 79.449 129.809 79.6625C122.323 79.8575 114.276 81.6979 107.143 84.8422C100.67 87.6971 95.5538 91.9009 91.9298 97.3423C91.7643 97.5909 91.4697 97.7139 91.1836 97.6485C90.6988 97.5382 90.4728 96.9622 90.7602 96.5457C94.4752 91.157 99.6634 86.9673 106.195 84.0864C113.686 80.7838 121.824 78.9291 129.732 78.7219C138.363 78.4966 146.172 80.3022 152.319 83.9444Z" fill="#FFBC90"/>
<path d="M148.384 87.5839C151.804 89.6091 153.742 91.8944 154.306 94.5494C154.834 97.0336 154.072 99.4179 153.402 101.522C152.673 103.795 152.045 105.76 153.411 106.951C153.546 107.069 153.702 107.181 153.876 107.285C154.614 107.721 155.71 108.038 157.199 108.244C157.49 108.284 157.679 108.583 157.589 108.871C157.522 109.085 157.317 109.222 157.098 109.194C155.186 108.95 153.757 108.541 152.764 107.953C152.516 107.808 152.296 107.648 152.102 107.48C150.364 105.965 151.049 103.824 151.841 101.344C153.09 97.4399 154.63 92.6155 147.245 88.2401C146.952 88.0655 146.645 87.8931 146.322 87.7202C141.591 85.1894 135.445 83.7591 129.018 83.6963C122.626 83.6312 116.365 84.9133 111.38 87.3081C105.303 90.2267 100.79 93.6799 97.9671 97.5698C95.5036 100.968 94.382 104.606 94.6297 108.401C94.6605 108.874 94.316 109.294 93.8558 109.313C93.4464 109.329 93.0903 109.02 93.0589 108.601C92.4211 100.061 98.541 92.2624 110.383 86.5746C115.654 84.0438 122.277 82.687 129.039 82.7559C135.849 82.8249 142.362 84.3401 147.377 87.0234C147.728 87.2041 148.062 87.393 148.384 87.5839Z" fill="#FFBC90"/>
<path d="M143.605 90.0117C150.123 93.8731 148.641 98.7665 147.434 102.756C146.63 105.415 145.935 107.713 147.685 109.077C147.804 109.168 147.934 109.258 148.075 109.34C149.133 109.967 150.831 110.355 153.237 110.519C153.506 110.538 153.706 110.788 153.665 111.063C153.631 111.303 153.424 111.477 153.188 111.461C150.349 111.276 148.299 110.8 146.964 110.007C146.773 109.894 146.594 109.771 146.43 109.645C144.255 107.952 145.005 105.465 145.878 102.587C147.073 98.6324 148.42 94.1901 142.485 90.6739C142.016 90.3959 141.501 90.1234 140.936 89.8572C134.009 86.5951 124.068 86.506 116.763 89.6423C109.415 92.7968 104.085 96.9139 101.345 101.551C99.1566 105.251 98.6642 109.225 99.9197 112.849C100.086 113.329 99.8019 113.864 99.313 113.938C98.9832 113.988 98.6588 113.808 98.5354 113.49C97.018 109.579 97.4763 105.249 99.8483 101.236C102.699 96.4183 108.224 92.1447 115.833 88.8785C123.709 85.4965 134.434 85.596 141.917 89.1224C142.53 89.4106 143.093 89.7069 143.605 90.0117Z" fill="#FFBC90"/>
<path d="M134.553 95.7534C138.518 98.1017 137.19 101.689 135.901 105.17C134.791 108.167 133.746 110.999 135.909 112.956C136.163 113.186 136.456 113.399 136.792 113.598C138.104 114.377 140.059 114.929 142.719 115.278C143.009 115.317 143.197 115.619 143.104 115.906C143.035 116.118 142.831 116.254 142.613 116.226C139.536 115.841 137.248 115.194 135.68 114.264C135.266 114.019 134.904 113.754 134.589 113.471C132.057 111.179 133.227 108.019 134.357 104.963C135.602 101.6 136.782 98.4045 133.399 96.3997C133.053 96.1945 132.661 96.0011 132.213 95.8224C129.763 94.8393 125.764 94.2261 120.633 96.8949C116.486 99.0522 112.878 102.772 110.981 106.848C109.147 110.79 109.171 114.584 111.009 117.437C111.279 117.856 111.104 118.452 110.634 118.59C110.382 118.663 110.11 118.582 109.949 118.37C107.551 115.232 107.372 111.07 109.453 106.595C111.429 102.349 115.217 98.4594 119.588 96.1865C124.181 93.7978 128.979 93.3914 133.094 95.0429C133.645 95.2663 134.13 95.5016 134.553 95.7534Z" fill="#FFBC90"/>
<path d="M157.695 80.2521C158.664 80.8247 159.608 81.4545 160.52 82.1432C166.978 87.0223 166.774 92.0373 166.609 96.0695C166.534 97.8754 166.47 99.4838 167.004 100.792C167.195 101.259 166.995 101.855 166.519 101.982C166.255 102.052 165.97 101.957 165.824 101.719C164.86 100.151 164.938 98.2356 165.026 96.043C165.184 92.1633 165.38 87.3351 159.277 82.7242C158.422 82.0781 157.522 81.4749 156.577 80.9163C153.454 79.0657 149.85 77.6926 145.824 76.8234C141.385 75.8624 136.432 75.5091 131.105 75.7733C121.051 76.266 112.775 78.7471 109.519 80.0965C109.342 80.1699 109.14 80.1415 108.991 80.0196C108.679 79.7658 108.746 79.2646 109.117 79.1181C113.746 77.2924 122.207 75.265 130.97 74.8346C138.619 74.457 149.116 75.1679 157.695 80.2521Z" fill="#FFBC90"/>
</g>
</g>
</svg>
