<svg width="37" height="34" viewBox="0 0 37 34" fill="none" xmlns="http://www.w3.org/2000/svg">
<path d="M25.4075 1.48156L2.47752 14.7202C1.54427 15.259 0.78772 16.5694 0.78772 17.647L0.787721 28.6234C0.787721 29.701 1.54427 30.1378 2.47753 29.599L25.4075 16.3604C26.3408 15.8216 27.0973 14.5112 27.0973 13.4336L27.0973 2.45717C27.0973 1.37954 26.3408 0.942742 25.4075 1.48156Z" fill="#1D1D1B" stroke="#1D1D1B" stroke-width="0.8" stroke-linejoin="round"/>
<path d="M26.2917 4.10338L3.36168 17.342C2.42843 17.8808 1.67188 19.1912 1.67188 20.2688L1.67188 29.4547C1.67188 30.5323 2.42843 30.9691 3.36168 30.4303L26.2917 17.1917C27.2249 16.6529 27.9815 15.3425 27.9815 14.2648L27.9815 5.07899C27.9815 4.00136 27.2249 3.56457 26.2917 4.10338Z" fill="#D5C8FB" stroke="#1D1D1B" stroke-width="0.8" stroke-linejoin="round"/>
<path d="M1.67188 18.4138C1.67188 17.3362 2.42843 16.0258 3.36168 15.487L26.2916 2.24837C27.2249 1.70955 27.9815 2.14635 27.9815 3.22398V7.82052L1.67188 23.0104V18.4138Z" fill="#EFE9FE" stroke="#1D1D1B" stroke-width="0.8" stroke-linejoin="round"/>
<path d="M4.1676 26.5856L6.1891 25.4185" stroke="#1D1D1B" stroke-width="0.8" stroke-linejoin="round"/>
<path d="M7.04938 24.9259L9.07091 23.7588" stroke="#1D1D1B" stroke-width="0.8" stroke-linejoin="round"/>
<path d="M9.92889 23.2604L11.9504 22.0933" stroke="#1D1D1B" stroke-width="0.8" stroke-linejoin="round"/>
<path d="M12.8099 21.598L14.8314 20.4309" stroke="#1D1D1B" stroke-width="0.8" stroke-linejoin="round"/>
<path d="M15.6906 19.9325L17.7121 18.7654" stroke="#1D1D1B" stroke-width="0.8" stroke-linejoin="round"/>
<path d="M18.5704 18.2719L20.592 17.1047" stroke="#1D1D1B" stroke-width="0.8" stroke-linejoin="round"/>
<path d="M31.8357 33.4551L34.2472 31.9379L23.1099 13.5952L22.5613 14.3926C22.4442 14.5627 22.3962 14.771 22.4272 14.9752L24.6721 29.7925C24.7188 30.1006 25.0804 30.2437 25.3253 30.0512L28.0372 27.9191L31.2705 33.3199C31.3876 33.5155 31.6428 33.5766 31.8357 33.4551Z" fill="#1D1D1B"/>
<path fill-rule="evenodd" clip-rule="evenodd" d="M23.4341 13.7473L25.9751 28.8445L28.6446 26.7144L32.2827 32.8316L36.0379 30.7332L32.3976 24.6121L35.4989 23.4678L23.4341 13.7473Z" fill="white"/>
<path d="M25.9751 28.8444L25.5856 28.902C25.6086 29.0385 25.7046 29.1538 25.8371 29.2038C25.9695 29.2539 26.1184 29.2312 26.2273 29.1444L25.9751 28.8444ZM23.4341 13.7472L23.6828 13.451C23.5555 13.3485 23.3775 13.3326 23.2358 13.4111C23.094 13.4898 23.0179 13.6464 23.0446 13.8048L23.4341 13.7472ZM28.6446 26.7143L28.9853 26.524C28.9267 26.4256 28.8271 26.3566 28.713 26.3354C28.5988 26.3144 28.4816 26.3432 28.3925 26.4144L28.6446 26.7143ZM32.2827 32.8315L31.942 33.0219C32.0523 33.2071 32.294 33.2721 32.4822 33.1669L32.2827 32.8315ZM36.0379 30.7331L36.2374 31.0685C36.3278 31.018 36.3934 30.9342 36.4199 30.8356C36.4463 30.737 36.4315 30.6316 36.3786 30.5426L36.0379 30.7331ZM32.3975 24.612L32.2537 24.251C32.1461 24.2906 32.0624 24.3746 32.0246 24.4807C31.9867 24.5867 31.9985 24.7043 32.0569 24.8024L32.3975 24.612ZM35.4989 23.4677L35.6427 23.8287C35.7736 23.7804 35.8674 23.6674 35.889 23.5321C35.9106 23.3968 35.8568 23.2594 35.7476 23.1715L35.4989 23.4677ZM26.3647 28.7868L23.8236 13.6897L23.0446 13.8048L25.5856 28.902L26.3647 28.7868ZM28.3925 26.4144L25.7229 28.5444L26.2273 29.1444L28.8968 27.0144L28.3925 26.4144ZM32.6234 32.6412L28.9853 26.524L28.304 26.9047L31.942 33.0219L32.6234 32.6412ZM35.8385 30.3977L32.0833 32.4961L32.4822 33.1669L36.2374 31.0685L35.8385 30.3977ZM32.0569 24.8024L35.6973 30.9234L36.3786 30.5426L32.7382 24.4217L32.0569 24.8024ZM35.3551 23.1066L32.2537 24.251L32.5413 24.9731L35.6427 23.8287L35.3551 23.1066ZM23.1854 14.0434L35.2502 23.7639L35.7476 23.1715L23.6828 13.451L23.1854 14.0434Z" fill="#1D1D1B"/>
</svg>
