<svg width="40" height="40" viewBox="0 0 40 40" fill="none" xmlns="http://www.w3.org/2000/svg">
<path d="M2.78772 20.2229V18.6743C2.78772 18.5013 2.87944 18.3412 3.02873 18.2537L15.9445 10.678C16.0817 10.5976 16.2517 10.5976 16.3889 10.678L37.7788 23.2306V25.1005C37.7788 25.2735 37.6872 25.4336 37.5379 25.5212L25.142 32.7978C24.6839 33.0666 24.1161 33.0662 23.6584 32.7966L3.02793 20.6432C2.87909 20.5555 2.78772 20.3956 2.78772 20.2229Z" fill="#1D1D1B"/>
<path d="M2.78772 20.2229V18.6743C2.78772 18.5013 2.87944 18.3412 3.02873 18.2537L15.9445 10.678C16.0817 10.5976 16.2517 10.5976 16.3889 10.678L37.7788 23.2306V25.1005C37.7788 25.2735 37.6872 25.4336 37.5379 25.5212L25.142 32.7978C24.6839 33.0666 24.1161 33.0662 23.6584 32.7966L3.02793 20.6432C2.87909 20.5555 2.78772 20.3956 2.78772 20.2229Z" stroke="#1D1D1B" stroke-width="0.8" stroke-linecap="round" stroke-linejoin="round"/>
<path d="M23.9038 30.8442L3.49716 18.8145C3.17783 18.6262 3.17686 18.1647 3.49541 17.9751L15.669 10.7298C15.9758 10.5472 16.3578 10.5467 16.6651 10.7287L37.0693 22.8106C37.3884 22.9997 37.3882 23.4616 37.0689 23.6503L24.8956 30.8437C24.5897 31.0244 24.2098 31.0246 23.9038 30.8442Z" fill="#D5C8FB"/>
<path d="M23.9038 30.8442L3.49716 18.8145C3.17783 18.6262 3.17686 18.1647 3.49541 17.9751L15.669 10.7298C15.9758 10.5472 16.3578 10.5467 16.6651 10.7287L37.0693 22.8106C37.3884 22.9997 37.3882 23.4616 37.0689 23.6503L24.8956 30.8437C24.5897 31.0244 24.2098 31.0246 23.9038 30.8442Z" stroke="#1D1D1B" stroke-width="0.8" stroke-linecap="round" stroke-linejoin="round"/>
<path d="M15.6409 13.9674C15.6456 13.9646 15.6531 13.9646 15.6577 13.9674L20.2556 16.7057C20.3019 16.7333 20.3019 16.778 20.2556 16.8056L17.3749 18.5212C17.3703 18.524 17.3628 18.524 17.3582 18.5212L12.7602 15.7829C12.7139 15.7553 12.7139 15.7106 12.7602 15.6831L15.6409 13.9674Z" fill="#EFE9FE"/>
<path d="M15.6409 13.9674C15.6456 13.9646 15.6531 13.9646 15.6577 13.9674L20.2556 16.7057C20.3019 16.7333 20.3019 16.778 20.2556 16.8056L17.3749 18.5212C17.3703 18.524 17.3628 18.524 17.3582 18.5212L12.7602 15.7829C12.7139 15.7553 12.7139 15.7106 12.7602 15.6831L15.6409 13.9674Z" stroke="#1D1D1B" stroke-width="0.8"/>
</svg>
