<svg width="32" height="38" viewBox="0 0 32 38" fill="none" xmlns="http://www.w3.org/2000/svg">
<path d="M0.206701 22.3421L0.203491 20.9341L31.3906 14.1235C31.6948 14.057 31.9825 14.2888 31.9825 14.6001V15.4935C31.9825 15.8635 31.8774 16.2258 31.6792 16.5382L18.537 37.2692C18.1484 37.8821 17.2505 37.8714 16.8767 37.2493L11.2357 27.8621L0.787043 23.2318C0.434935 23.0758 0.207579 22.7272 0.206701 22.3421Z" fill="#1D1D1B"/>
<path d="M11.5424 25.6662L0.842922 21.2684C0.623351 21.1781 0.64903 20.8592 0.88021 20.8053L30.6399 13.8588C31.2288 13.7213 31.6862 14.3699 31.359 14.8785L18.5564 34.7784C18.161 35.3928 17.2556 35.3707 16.8907 34.7378L11.7796 25.8737C11.7256 25.7803 11.6422 25.7073 11.5424 25.6662Z" fill="#D5C8FB"/>
<path d="M11.5424 25.6662L0.842922 21.2684C0.623351 21.1781 0.64903 20.8592 0.88021 20.8053L30.6399 13.8588C31.2288 13.7213 31.6862 14.3699 31.359 14.8785L18.5564 34.7784C18.161 35.3928 17.2556 35.3707 16.8907 34.7378L11.7796 25.8737C11.7256 25.7803 11.6422 25.7073 11.5424 25.6662Z" stroke="#1D1D1B" stroke-width="0.8"/>
<path d="M11.254 25.7303L21.1569 20.0537" stroke="#1D1D1B" stroke-width="0.8"/>
<path d="M18.5364 13.9529C21.0763 9.27391 21.9974 4.88139 19.2767 3.40449C19.1392 3.32991 18.2249 2.89811 18.08 2.84404C15.3565 1.82747 10.9183 4.13873 8.50671 8.58146C6.24114 12.7551 6.39802 17.2406 8.51451 19.3844C8.74817 19.6211 9.01227 19.7823 9.01227 19.7823C10.0397 20.5232 10.8285 20.6738 11.095 20.6722C13.7822 21.2 16.2796 18.1105 18.5364 13.9529Z" fill="#1D1D1B" stroke="#1D1D1B" stroke-width="0.8" stroke-linecap="round" stroke-linejoin="round"/>
<path d="M15.0307 20.095C18.8108 17.9125 21.8753 12.6047 21.8753 8.23975C21.8753 3.87477 18.8108 2.10551 15.0307 4.288C11.2505 6.47049 8.18604 11.7783 8.18604 16.1432C8.18604 20.5082 11.2505 22.2775 15.0307 20.095Z" fill="#EFE9FE" stroke="#1D1D1B" stroke-width="0.8"/>
<path d="M10.3993 16.3606L11.6095 15.7855C11.7846 16.7264 12.2026 17.3503 12.8638 17.657C13.5292 17.9616 14.4042 17.8563 15.4885 17.3411C15.9068 17.1422 16.3192 16.8896 16.7256 16.5832C17.1317 16.2815 17.5148 15.934 17.8748 15.541L17.2679 14.6601C16.7618 15.236 16.2062 15.6609 15.6011 15.9347C14.9007 16.2722 14.3393 16.3599 13.917 16.198C13.4994 16.0295 13.2169 15.6607 13.0694 15.0917L16.3736 13.5215L16.4688 12.3343L12.9469 14.0079C12.945 13.8276 12.9519 13.6384 12.9678 13.4406C12.9833 13.2474 13.0067 13.0573 13.0381 12.8701L16.56 11.1966L16.6552 10.0094L13.3447 11.5824C13.5942 10.8249 13.9587 10.1464 14.4379 9.54711C14.9174 8.94301 15.5135 8.47401 16.226 8.13995C16.516 8.00672 16.7941 7.9176 17.0606 7.87257C17.3312 7.82552 17.5771 7.83101 17.7984 7.88905L18.6077 6.32165C18.2889 6.25105 17.9357 6.25355 17.5477 6.32913C17.164 6.40269 16.7609 6.53988 16.3382 6.7407C15.2454 7.26001 14.319 8.0084 13.559 8.98584C12.7993 9.95862 12.2455 11.0534 11.8974 12.2701L10.6809 12.8483L10.5856 14.0355L11.6166 13.5456C11.589 13.7355 11.5656 13.9256 11.5462 14.1161C11.5303 14.3139 11.5234 14.5031 11.5253 14.6834L10.4944 15.1733L10.3993 16.3606Z" fill="#1D1D1B"/>
</svg>
