<svg width="29" height="37" viewBox="0 0 29 37" fill="none" xmlns="http://www.w3.org/2000/svg">
<path d="M27.4992 25.2135C28.6015 17.9812 23.5039 11.2069 16.1131 10.0827C8.72233 8.95854 1.83732 13.9101 0.73495 21.1422C-0.367421 28.3744 4.73033 35.1487 12.1211 36.2729C19.5118 37.3972 26.3969 32.4457 27.4992 25.2135Z" fill="#D5C8FB" stroke="#1D1D1B" stroke-width="0.8" stroke-linecap="round" stroke-linejoin="round"/>
<path d="M27.4799 21.1917C27.4799 25.1342 21.6292 28.6365 14.2376 28.6365C6.77409 28.6365 0.765381 25.1342 0.765381 21.0732" stroke="#1D1D1B" stroke-width="0.8" stroke-linecap="round" stroke-linejoin="round"/>
<path d="M12.4757 36.324C8.57814 35.73 5.9958 29.4298 7.09863 22.1946C8.21219 14.8891 12.5709 9.53534 16.5855 10.1472" stroke="#1D1D1B" stroke-width="0.8" stroke-linecap="round" stroke-linejoin="round"/>
<path d="M26.3809 4.53742C26.3809 7.36469 24.8917 16.1761 23.5427 19.5489C23.4882 19.6851 23.3648 19.7692 23.2894 19.7269L21.2548 18.5854C21.2548 18.5854 16.4562 14.4317 16.4562 10.6977C16.4562 6.96371 18.5919 3.20818 21.2548 1.67075C22.4304 0.992012 23.8079 0.984372 24.5547 1.26891C24.8731 1.39227 26.7485 2.35453 26.7485 2.35453C27.3084 2.94069 26.3809 3.33656 26.3809 4.53742Z" fill="#1D1D1B"/>
<path d="M26.3809 4.53742C26.3809 7.36469 24.8917 16.1761 23.5427 19.5489C23.4882 19.6851 23.3648 19.7692 23.2894 19.7269L21.2548 18.5854C21.2548 18.5854 16.4562 14.4317 16.4562 10.6977C16.4562 6.96371 18.5919 3.20818 21.2548 1.67075C22.4304 0.992012 23.8079 0.984372 24.5547 1.26891C24.8731 1.39227 26.7485 2.35453 26.7485 2.35453C27.3084 2.94069 26.3809 3.33656 26.3809 4.53742Z" stroke="#1D1D1B" stroke-width="0.8" stroke-linecap="round" stroke-linejoin="round"/>
<path d="M28.2569 5.5133C28.2569 9.26707 23.8677 18.8663 23.4649 19.7394C23.4484 19.775 23.4216 19.7909 23.4045 19.7753C22.9867 19.3944 18.4641 15.1889 18.4641 11.6275C18.4641 8.5526 20.7724 4.26698 23.4353 2.72956C26.0983 1.19214 28.2569 2.43847 28.2569 5.5133Z" fill="#EFE9FE"/>
<path d="M28.2569 5.51331C28.2569 9.26707 23.8677 18.8663 23.4649 19.7394C23.4484 19.775 23.4216 19.7909 23.4045 19.7753C22.9867 19.3944 18.4641 15.1889 18.4641 11.6275C18.4641 8.5526 20.7724 4.26698 23.4353 2.72956C26.0983 1.19214 28.2569 2.43847 28.2569 5.51331Z" stroke="#1D1D1B" stroke-width="0.8" stroke-linecap="round"/>
<path d="M23.6577 11.0252C24.9003 10.3077 25.9077 8.56285 25.9077 7.12793C25.9077 5.69301 24.9003 5.11139 23.6577 5.82885C22.415 6.54631 21.4076 8.29116 21.4076 9.72609C21.4076 11.161 22.415 11.7426 23.6577 11.0252Z" fill="white" stroke="#1D1D1B" stroke-width="0.8" stroke-linecap="round" stroke-linejoin="round"/>
</svg>
