<svg width="40" height="40" viewBox="0 0 40 40" fill="none" xmlns="http://www.w3.org/2000/svg">
<path d="M26.7958 39.0242L38.5832 32.1209L38.5833 29.982C38.5833 28.1049 37.735 25.3414 36.2818 24.1635L20.924 12.2068C19.1316 10.7567 16.6237 10.5506 14.6174 11.7063L3.19666 18.162L26.7958 39.0242Z" fill="#D5C8FB" stroke="#1D1D1B" stroke-width="0.8" stroke-linejoin="round"/>
<path d="M6.26258 27.2622L26.8139 39.0239V38.1209C26.8139 35.9332 25.7344 33.1225 23.9356 31.885L6.35227 18.9987C5.2211 18.0895 4.01557 17.7642 3.1503 18.2672C1.74918 19.0815 1.77313 21.7598 3.1982 24.2513C4.03818 25.7197 5.17981 26.7942 6.26258 27.2622Z" fill="#EFE9FE" stroke="#1D1D1B" stroke-width="0.8" stroke-linejoin="round"/>
<path fill-rule="evenodd" clip-rule="evenodd" d="M24.1291 19.3783L22.6191 20.2164C22.4269 20.2483 22.2543 20.2995 22.1315 20.3676L22.1258 20.7267C22.1191 20.8803 22.2137 21.0363 22.4105 21.1584L23.2205 21.6455C23.228 21.6502 23.2357 21.655 23.2435 21.6598C23.6454 21.9014 24.3038 21.9129 24.7139 21.6855C24.7329 21.6749 24.7511 21.664 24.7684 21.6529L26.4047 20.7466C26.4194 20.7394 26.4338 20.7319 26.448 20.724C26.6524 20.6107 26.7566 20.4594 26.7599 20.3063L26.7661 19.9527C26.6528 19.8845 26.4949 19.8285 26.3174 19.7883L25.6559 19.3896L25.6413 19.3807C25.2389 19.1387 24.5798 19.1272 24.1691 19.3549C24.1554 19.3625 24.142 19.3703 24.1291 19.3783Z" fill="#1D1D1B"/>
<path d="M22.6192 20.2163L22.7043 20.3773L22.7718 20.3662L22.8221 20.3382L22.6192 20.2163ZM24.1292 19.3783L24.3325 19.5003L24.3431 19.4938L24.1292 19.3783ZM22.1316 20.3675L21.9287 20.2456L21.8429 20.2932L21.8418 20.3627L22.1316 20.3675ZM22.1259 20.7267L22.4157 20.7343V20.7316L22.1259 20.7267ZM22.4106 21.1584L22.6125 21.2807L22.8177 21.1679L22.6208 21.0456L22.4106 21.1584ZM22.4106 21.1584L22.2084 21.036L21.9998 21.1508L22.2035 21.2732L22.4106 21.1584ZM23.2205 21.6454L23.4339 21.5345L23.4276 21.5307L23.2205 21.6454ZM24.7684 21.6528L24.5657 21.5309L24.5579 21.5352L24.5507 21.5398L24.7684 21.6528ZM26.4048 20.7466L26.2135 20.6183L26.2021 20.6246L26.4048 20.7466ZM26.7662 19.9526L27.056 19.9577L27.0571 19.8883L26.9731 19.8378L26.7662 19.9526ZM26.3175 19.7882L26.1103 19.9028L26.1557 19.9301L26.2164 19.9439L26.3175 19.7882ZM25.656 19.3895L25.447 19.5031L25.4487 19.5041L25.656 19.3895ZM25.6414 19.3806L25.8504 19.2671L25.8483 19.2658L25.6414 19.3806ZM22.8221 20.3382L24.3325 19.5003L23.9263 19.2564L22.4163 20.0945L22.8221 20.3382ZM22.3345 20.4895C22.4155 20.4446 22.543 20.4041 22.7043 20.3773L22.534 20.0554C22.311 20.0923 22.0934 20.1544 21.9287 20.2456L22.3345 20.4895ZM22.4157 20.7316L22.4214 20.3725L21.8418 20.3627L21.8362 20.7218L22.4157 20.7316ZM22.6208 21.0456C22.4791 20.9576 22.4109 20.8453 22.4157 20.7343L21.8363 20.7191C21.8276 20.9151 21.9486 21.1149 22.2003 21.2711L22.6208 21.0456ZM23.4276 21.5307L22.6174 21.0436L22.2035 21.2732L23.0136 21.7601L23.4276 21.5307ZM23.4506 21.5449C23.4448 21.5415 23.4394 21.538 23.4339 21.5345L23.0073 21.7562C23.0168 21.7624 23.0267 21.7684 23.0366 21.7745L23.4506 21.5449ZM24.5112 21.5635C24.2154 21.7275 23.7405 21.7192 23.4506 21.5449L23.0366 21.7745C23.5506 22.0834 24.3924 22.0981 24.9168 21.8074L24.5112 21.5635ZM24.5507 21.5398C24.5382 21.5479 24.525 21.5558 24.5112 21.5635L24.9168 21.8074C24.941 21.7939 24.9642 21.78 24.9862 21.7658L24.5507 21.5398ZM26.2021 20.6246L24.5657 21.5309L24.9712 21.7748L26.6076 20.8686L26.2021 20.6246ZM26.2452 20.602C26.235 20.6077 26.2242 20.613 26.2135 20.6183L26.5958 20.8748C26.6145 20.8655 26.6329 20.8558 26.6509 20.8459L26.2452 20.602ZM26.4702 20.3007C26.4678 20.4115 26.3927 20.5202 26.2452 20.602L26.6509 20.8459C26.9122 20.701 27.0454 20.5074 27.0498 20.3117L26.4702 20.3007ZM26.4764 19.9475L26.4702 20.3007L27.0498 20.3117L27.056 19.9577L26.4764 19.9475ZM26.2164 19.9439C26.3654 19.9777 26.4832 20.0217 26.5592 20.0674L26.9731 19.8378C26.8225 19.7473 26.6245 19.6792 26.4187 19.6325L26.2164 19.9439ZM25.4487 19.5041L26.1103 19.9028L26.5247 19.6736L25.8632 19.275L25.4487 19.5041ZM25.4324 19.4942L25.447 19.5031L25.8649 19.2759L25.8504 19.2671L25.4324 19.4942ZM24.3721 19.4768C24.6683 19.3125 25.1441 19.3208 25.4344 19.4954L25.8483 19.2658C25.3339 18.9566 24.4913 18.9419 23.9664 19.2329L24.3721 19.4768ZM24.3431 19.4938C24.3523 19.488 24.362 19.4824 24.3721 19.4768L23.9664 19.2329C23.9488 19.2427 23.9319 19.2526 23.9155 19.2628L24.3431 19.4938Z" fill="#1D1D1B"/>
<path fill-rule="evenodd" clip-rule="evenodd" d="M24.1332 19.0277L22.4909 19.9392C22.4726 19.948 22.4548 19.9571 22.4374 19.9668C22.0272 20.1942 22.0142 20.572 22.416 20.8135C22.4333 20.8239 22.4509 20.8338 22.4692 20.8434L23.2199 21.2947C23.2282 21.3 23.2366 21.3052 23.2453 21.3104C23.6472 21.552 24.3055 21.5635 24.7156 21.3361C24.7347 21.3255 24.7528 21.3147 24.7701 21.3035L26.4207 20.3894C26.4301 20.3846 26.4392 20.3797 26.4483 20.3746C26.8585 20.1472 26.8651 19.767 26.4631 19.5254C26.4587 19.5227 26.4541 19.52 26.4495 19.5173L25.6599 19.0415L25.6432 19.0313C25.2408 18.7894 24.5817 18.7778 24.171 19.0055C24.1581 19.0127 24.1454 19.0202 24.1332 19.0277Z" fill="white"/>
<path d="M22.4909 19.9391L22.6791 20.0686L22.6867 20.065L22.6938 20.061L22.4909 19.9391ZM24.1332 19.0276L24.3364 19.1497L24.3464 19.1435L24.1332 19.0276ZM22.4692 20.8433L22.6761 20.7286L22.6691 20.7243L22.6615 20.7203L22.4692 20.8433ZM23.2199 21.2946L23.434 21.1841L23.427 21.1798L23.2199 21.2946ZM24.7701 21.3034L24.5673 21.1815L24.5595 21.1858L24.5523 21.1905L24.7701 21.3034ZM26.4207 20.3894L26.2253 20.2633L26.218 20.2673L26.4207 20.3894ZM26.4495 19.5173L26.2423 19.6319L26.2463 19.6343L26.4495 19.5173ZM25.6599 19.0415L25.4507 19.1548L25.4527 19.1561L25.6599 19.0415ZM25.6433 19.0312L25.8525 18.9179L25.8503 18.9165L25.6433 19.0312ZM22.6938 20.061L24.3364 19.1497L23.9303 18.9058L22.2879 19.8172L22.6938 20.061ZM22.6402 20.0887C22.6529 20.0817 22.6658 20.0749 22.6791 20.0686L22.3027 19.8096C22.2794 19.8208 22.2567 19.8325 22.2346 19.8448L22.6402 20.0887ZM22.6231 20.6987C22.3354 20.5259 22.342 20.2541 22.6402 20.0887L22.2346 19.8448C21.7125 20.1343 21.6928 20.618 22.2091 20.9283L22.6231 20.6987ZM22.6615 20.7203C22.6484 20.7135 22.6355 20.7063 22.6231 20.6987L22.2091 20.9283C22.2311 20.9415 22.2536 20.9542 22.2768 20.9663L22.6615 20.7203ZM23.427 21.1798L22.6761 20.7286L22.2622 20.9581L23.013 21.4094L23.427 21.1798ZM23.4522 21.1956C23.446 21.1918 23.4399 21.188 23.434 21.1841L23.0061 21.4051C23.0166 21.4118 23.0274 21.4185 23.0383 21.4251L23.4522 21.1956ZM24.5128 21.2141C24.217 21.3782 23.7422 21.3699 23.4522 21.1956L23.0383 21.4251C23.5522 21.7341 24.3941 21.7488 24.9186 21.458L24.5128 21.2141ZM24.5523 21.1905C24.5398 21.1985 24.5267 21.2065 24.5128 21.2141L24.9186 21.458C24.9427 21.4445 24.9658 21.4306 24.9879 21.4164L24.5523 21.1905ZM26.218 20.2673L24.5673 21.1815L24.9728 21.4255L26.6234 20.5113L26.218 20.2673ZM26.2455 20.2527C26.2389 20.2563 26.232 20.2598 26.2253 20.2633L26.616 20.5153C26.6279 20.5092 26.6396 20.5029 26.6512 20.4965L26.2455 20.2527ZM26.2562 19.6401C26.5461 19.8144 26.5413 20.0886 26.2455 20.2527L26.6512 20.4965C27.1756 20.2058 27.1841 19.7195 26.6702 19.4105L26.2562 19.6401ZM26.2463 19.6343C26.2496 19.6362 26.2529 19.6382 26.2562 19.6401L26.6702 19.4105C26.6644 19.4071 26.6586 19.4037 26.6528 19.4003L26.2463 19.6343ZM25.4527 19.1561L26.2423 19.6319L26.6568 19.4027L25.8672 18.9268L25.4527 19.1561ZM25.434 19.1446L25.4507 19.1548L25.8692 18.9281L25.8525 18.9179L25.434 19.1446ZM24.3739 19.1274C24.6703 18.9631 25.1459 18.9714 25.4363 19.146L25.8503 18.9165C25.3357 18.6072 24.4932 18.5925 23.9682 18.8836L24.3739 19.1274ZM24.3464 19.1435C24.3553 19.1381 24.3644 19.1327 24.3739 19.1274L23.9682 18.8836C23.9516 18.8928 23.9355 18.9022 23.9199 18.9118L24.3464 19.1435Z" fill="#1D1D1B"/>
<path fill-rule="evenodd" clip-rule="evenodd" d="M27.3416 21.7447L25.8118 22.5936C25.6195 22.6255 25.4469 22.6768 25.3241 22.7449L25.3183 23.104C25.3116 23.2571 25.4058 23.4128 25.6016 23.5348L26.444 24.0416C26.8465 24.2791 27.4999 24.289 27.9076 24.0629C27.9295 24.0508 27.9501 24.0382 27.9696 24.0253L29.5868 23.1297C29.6055 23.1208 29.6239 23.1114 29.6416 23.1014C29.846 22.9882 29.9502 22.837 29.9535 22.6838L29.9597 22.3301C29.8459 22.2617 29.6874 22.2055 29.5092 22.1652L28.8713 21.7809C28.8597 21.7731 28.8476 21.7655 28.8352 21.7581C28.4328 21.5162 27.7736 21.5047 27.363 21.7324C27.3557 21.7364 27.3486 21.7405 27.3416 21.7447Z" fill="#1D1D1B"/>
<path d="M25.8117 22.5936L25.8968 22.7546L25.9643 22.7434L26.0147 22.7154L25.8117 22.5936ZM27.3415 21.7446L27.5445 21.8665L27.5502 21.8631L27.3415 21.7446ZM25.324 22.7448L25.1212 22.6228L25.0354 22.6705L25.0342 22.7399L25.324 22.7448ZM25.3183 23.1039L25.608 23.1115V23.1089L25.3183 23.1039ZM25.6016 23.5347L25.8036 23.6572L26.0084 23.5445L25.8122 23.4223L25.6016 23.5347ZM25.6016 23.5347L25.3992 23.4126L25.1905 23.5273L25.3942 23.6498L25.6016 23.5347ZM26.4439 24.0416L26.2369 24.1563L26.4397 24.2783L26.6468 24.1634L26.4439 24.0416ZM26.4439 24.0416L26.6492 23.9255L26.4464 23.8058L26.2414 23.9194L26.4439 24.0416ZM27.9696 24.0253L27.767 23.9032L27.7579 23.9082L27.7497 23.9137L27.9696 24.0253ZM29.5868 23.1297L29.3991 23L29.3914 23.0037L29.3841 23.0077L29.5868 23.1297ZM29.9597 22.3301L30.2495 22.3351L30.2507 22.2658L30.1667 22.2152L29.9597 22.3301ZM29.5091 22.1652L29.3018 22.2798L29.3474 22.3072L29.4083 22.321L29.5091 22.1652ZM28.8713 21.7808L28.6542 21.8895L28.664 21.8954L28.8713 21.7808ZM26.0147 22.7154L27.5445 21.8665L27.1386 21.6226L25.6088 22.4717L26.0147 22.7154ZM25.5269 22.8667C25.6078 22.8218 25.7355 22.7814 25.8968 22.7546L25.7267 22.4325C25.5035 22.4696 25.2858 22.5316 25.1212 22.6228L25.5269 22.8667ZM25.608 23.1089L25.6138 22.7498L25.0342 22.7399L25.0285 23.099L25.608 23.1089ZM25.8122 23.4223C25.6712 23.3343 25.6032 23.2224 25.608 23.1115L25.0286 23.0963C25.02 23.2919 25.1405 23.4911 25.3909 23.6472L25.8122 23.4223ZM26.6509 23.9267L25.8081 23.4202L25.3942 23.6498L26.2369 24.1563L26.6509 23.9267ZM27.7047 23.9409C27.4106 24.104 26.9396 24.0968 26.6492 23.9255L26.2392 24.1573C26.754 24.461 27.589 24.4739 28.1104 24.1848L27.7047 23.9409ZM27.7497 23.9137C27.7356 23.923 27.7206 23.9321 27.7047 23.9409L28.1104 24.1848C28.1382 24.1694 28.1646 24.1534 28.1896 24.1369L27.7497 23.9137ZM29.3841 23.0077L27.767 23.9032L28.1723 24.1472L29.7895 23.2517L29.3841 23.0077ZM29.4388 22.9795C29.4258 22.9866 29.4125 22.9935 29.3991 23L29.7746 23.2593C29.7985 23.2479 29.8218 23.2359 29.8444 23.2233L29.4388 22.9795ZM29.6637 22.6782C29.6613 22.7889 29.5862 22.8978 29.4388 22.9795L29.8444 23.2233C30.1057 23.0785 30.239 22.8848 30.2433 22.6892L29.6637 22.6782ZM29.6699 22.325L29.6637 22.6782L30.2433 22.6892L30.2495 22.3351L29.6699 22.325ZM29.4083 22.321C29.558 22.3548 29.6764 22.3989 29.7527 22.4448L30.1667 22.2152C30.0155 22.1244 29.8166 22.0561 29.6099 22.0094L29.4083 22.321ZM28.664 21.8954L29.3018 22.2798L29.7163 22.0506L29.0785 21.6663L28.664 21.8954ZM28.6281 21.8728C28.6372 21.8783 28.6458 21.8838 28.6542 21.8895L29.0881 21.6723C29.0733 21.6625 29.0579 21.6528 29.0421 21.6432L28.6281 21.8728ZM27.5658 21.8543C27.8621 21.69 28.3378 21.6983 28.6281 21.8728L29.0421 21.6432C28.5277 21.3341 27.685 21.3193 27.1601 21.6104L27.5658 21.8543ZM27.5502 21.8631C27.5554 21.8601 27.5605 21.8572 27.5658 21.8543L27.1601 21.6104C27.1509 21.6155 27.1418 21.6207 27.1328 21.626L27.5502 21.8631Z" fill="#1D1D1B"/>
<path fill-rule="evenodd" clip-rule="evenodd" d="M28.8383 21.4085C28.4359 21.1666 27.7763 21.1548 27.3657 21.3825C27.3482 21.3922 27.3315 21.4021 27.3154 21.4124L25.6788 22.3207C25.6639 22.3281 25.6491 22.3358 25.6348 22.3437C25.2246 22.5711 25.2116 22.9489 25.6134 23.1904C25.6276 23.1989 25.642 23.2071 25.6566 23.215L26.4135 23.6699C26.4221 23.6755 26.4309 23.681 26.4399 23.6864C26.8418 23.928 27.5001 23.9395 27.9103 23.7121C27.9198 23.7068 27.9289 23.7016 27.938 23.6962L29.6202 22.7645C29.6284 22.7603 29.6364 22.756 29.6443 22.7516C30.0517 22.5257 30.061 22.1493 29.6676 21.9074L29.666 21.9064C29.6638 21.9051 29.6614 21.9037 29.6592 21.9023C29.6575 21.9014 29.6559 21.9004 29.6543 21.8994L28.8383 21.4085Z" fill="white"/>
<path d="M28.838 21.4082L28.6314 21.5231L28.8333 21.6447L29.0403 21.5308L28.838 21.4082ZM27.3155 21.4124L27.5184 21.5343L27.5255 21.5303L27.5321 21.5261L27.3155 21.4124ZM25.6789 22.3207L25.8699 22.4492L25.8818 22.4426L25.6789 22.3207ZM25.6567 23.215L25.864 23.1001L25.8518 23.0935L25.6567 23.215ZM26.4136 23.6699L26.6279 23.5596L26.6205 23.5552L26.4136 23.6699ZM27.9381 23.6962L27.7353 23.574L27.7277 23.5786L27.9381 23.6962ZM29.6203 22.7645L29.424 22.639L29.4177 22.6425L29.6203 22.7645ZM29.6677 21.9074L29.4648 21.7855L29.2601 21.8989L29.4584 22.0208L29.6677 21.9074ZM29.6677 21.9074L29.8705 22.0294L30.0772 21.9147L29.8749 21.7928L29.6677 21.9074ZM29.6661 21.9064L29.4572 22.0201L29.4584 22.0208L29.6661 21.9064ZM29.6544 21.8994L29.4471 22.0139L29.4487 22.0149L29.6544 21.8994ZM28.8391 21.4081L29.0463 21.2935L28.8443 21.1718L28.6371 21.2856L28.8391 21.4081ZM28.6314 21.5231L29.0463 21.2935H29.045L28.6314 21.5231ZM27.5686 21.5044C27.8649 21.3401 28.3409 21.3485 28.6314 21.5231L29.045 21.2935C28.5306 20.9842 27.6878 20.9695 27.163 21.2606L27.5686 21.5044ZM27.5321 21.5261C27.5438 21.5187 27.5559 21.5115 27.5686 21.5044L27.163 21.2606C27.1406 21.2729 27.1193 21.2856 27.0988 21.2987L27.5321 21.5261ZM25.8818 22.4426L27.5184 21.5343L27.1125 21.2905L25.4759 22.1988L25.8818 22.4426ZM25.8377 22.4656C25.8481 22.4599 25.8591 22.4545 25.8699 22.4492L25.488 22.1925C25.469 22.2018 25.4503 22.2117 25.432 22.2217L25.8377 22.4656ZM25.8205 23.0757C25.533 22.9029 25.5395 22.631 25.8377 22.4656L25.432 22.2217C24.9101 22.5112 24.8903 22.9949 25.4066 23.3053L25.8205 23.0757ZM25.8518 23.0935C25.8412 23.0878 25.8308 23.0818 25.8205 23.0757L25.4066 23.3053C25.4245 23.316 25.4429 23.3264 25.4617 23.3366L25.8518 23.0935ZM26.6205 23.5552L25.864 23.1001L25.4498 23.3298L26.2066 23.7847L26.6205 23.5552ZM26.647 23.5716C26.6404 23.5677 26.6342 23.5636 26.6279 23.5596L26.1994 23.7802C26.2103 23.7873 26.2215 23.7942 26.233 23.8012L26.647 23.5716ZM27.7076 23.5901C27.4118 23.7542 26.9368 23.7459 26.647 23.5716L26.233 23.8012C26.747 24.1101 27.5888 24.1248 28.1132 23.834L27.7076 23.5901ZM27.7277 23.5786C27.7211 23.5825 27.7144 23.5863 27.7076 23.5901L28.1132 23.834C28.1252 23.8273 28.137 23.8206 28.1485 23.8136L27.7277 23.5786ZM29.4177 22.6425L27.7353 23.574L28.1408 23.8181L29.8231 22.8865L29.4177 22.6425ZM29.4416 22.6296C29.4358 22.6329 29.4299 22.636 29.424 22.639L29.8166 22.8899C29.827 22.8846 29.8372 22.8791 29.8473 22.8735L29.4416 22.6296ZM29.4584 22.0208C29.7421 22.1952 29.7354 22.4667 29.4416 22.6296L29.8473 22.8735C30.368 22.5847 30.38 22.1033 29.8768 21.794L29.4584 22.0208ZM29.4584 22.0208L29.4604 22.022L29.8749 21.7928L29.8733 21.7919L29.4584 22.0208ZM29.4523 22.0171C29.454 22.0181 29.4557 22.0191 29.4572 22.0201L29.8749 21.7928C29.8719 21.791 29.8691 21.7894 29.8662 21.7876L29.4523 22.0171ZM29.4487 22.0149C29.4499 22.0157 29.4511 22.0164 29.4523 22.0171L29.8662 21.7876C29.8641 21.7863 29.8621 21.7851 29.8599 21.7838L29.4487 22.0149ZM28.6314 21.5231L29.4471 22.0139L29.8616 21.7848L29.0463 21.2935L28.6314 21.5231Z" fill="#1D1D1B"/>
<path fill-rule="evenodd" clip-rule="evenodd" d="M30.5749 24.124L29.0442 24.9734C28.8523 25.0053 28.6801 25.0565 28.5575 25.1245L28.5518 25.4837C28.5451 25.6371 28.6398 25.7931 28.8363 25.9153L29.6427 26.4002C29.6513 26.4057 29.66 26.4112 29.6691 26.4166C30.0711 26.6582 30.7294 26.6697 31.1396 26.4423C31.1585 26.4318 31.1766 26.4208 31.1939 26.4097L32.8187 25.5099C32.838 25.5007 32.8568 25.491 32.8752 25.4808C33.0796 25.3676 33.1838 25.2163 33.1871 25.0632L33.1933 24.7095C33.0795 24.641 32.9207 24.5848 32.7424 24.5446L32.1038 24.1598C32.0923 24.1522 32.0806 24.1447 32.0685 24.1375C31.6661 23.8956 31.007 23.8841 30.5963 24.1118C30.589 24.1158 30.5819 24.1199 30.5749 24.124Z" fill="#1D1D1B"/>
<path d="M29.0442 24.9734L29.1294 25.1343L29.1969 25.1232L29.2471 25.0953L29.0442 24.9734ZM30.5748 24.1239L30.7778 24.2458L30.7835 24.2425L30.5748 24.1239ZM28.5574 25.1245L28.3546 25.0025L28.2688 25.0501L28.2677 25.1196L28.5574 25.1245ZM28.5518 25.4836L28.8415 25.4912V25.4886L28.5518 25.4836ZM28.8363 25.9152L29.0382 26.0376L29.2434 25.9248L29.0466 25.8024L28.8363 25.9152ZM28.8363 25.9152L28.6341 25.7929L28.4253 25.9076L28.629 26.03L28.8363 25.9152ZM29.6426 26.4001L29.857 26.2897L29.8496 26.2854L29.6426 26.4001ZM31.1938 26.4097L30.9912 26.2877L30.9833 26.292L30.9761 26.2967L31.1938 26.4097ZM32.8186 25.5098L32.6313 25.38L32.6234 25.3838L32.6159 25.3879L32.8186 25.5098ZM33.1932 24.7095L33.483 24.7145L33.4842 24.6452L33.4002 24.5946L33.1932 24.7095ZM32.7423 24.5446L32.5351 24.6591L32.5807 24.6865L32.6416 24.7003L32.7423 24.5446ZM32.1037 24.1597L31.8868 24.2685L31.8965 24.2742L32.1037 24.1597ZM29.2471 25.0953L30.7778 24.2458L30.3719 24.002L28.8412 24.8515L29.2471 25.0953ZM28.7603 25.2464C28.8411 25.2016 28.9685 25.1612 29.1294 25.1343L28.9589 24.8124C28.7362 24.8495 28.519 24.9114 28.3546 25.0025L28.7603 25.2464ZM28.8415 25.4886L28.8473 25.1294L28.2677 25.1196L28.262 25.4787L28.8415 25.4886ZM29.0466 25.8024C28.9049 25.7144 28.8367 25.6022 28.8415 25.4912L28.262 25.476C28.2534 25.672 28.3744 25.8717 28.6259 26.0279L29.0466 25.8024ZM29.8496 26.2854L29.043 25.8005L28.629 26.03L29.4357 26.5148L29.8496 26.2854ZM29.876 26.3017C29.8694 26.2978 29.8632 26.2937 29.857 26.2897L29.4285 26.5103C29.4394 26.5175 29.4506 26.5244 29.462 26.5313L29.876 26.3017ZM30.9366 26.3203C30.6408 26.4844 30.1659 26.476 29.876 26.3017L29.462 26.5313C29.9761 26.8403 30.8178 26.8549 31.3423 26.5642L30.9366 26.3203ZM30.9761 26.2967C30.9636 26.3048 30.9504 26.3127 30.9366 26.3203L31.3423 26.5642C31.3665 26.5507 31.3896 26.5369 31.4117 26.5226L30.9761 26.2967ZM32.6159 25.3879L30.9912 26.2877L31.3966 26.5316L33.0213 25.6319L32.6159 25.3879ZM32.6723 25.3588C32.6589 25.3662 32.6452 25.3733 32.6313 25.38L33.0059 25.6398C33.0306 25.628 33.0546 25.6157 33.0779 25.6027L32.6723 25.3588ZM32.8972 25.0576C32.8948 25.1683 32.8198 25.2771 32.6723 25.3588L33.0779 25.6027C33.3392 25.4578 33.4725 25.2642 33.4768 25.0686L32.8972 25.0576ZM32.9034 24.7044L32.8972 25.0576L33.4768 25.0686L33.483 24.7145L32.9034 24.7044ZM32.6416 24.7003C32.7914 24.7341 32.9098 24.7782 32.9862 24.8242L33.4002 24.5946C33.2489 24.5037 33.0499 24.4354 32.8431 24.3888L32.6416 24.7003ZM31.8965 24.2742L32.5351 24.6591L32.9496 24.4299L32.3109 24.0451L31.8965 24.2742ZM31.8614 24.2522C31.8703 24.2575 31.8785 24.263 31.8868 24.2685L32.3204 24.051C32.3058 24.0414 32.2908 24.0319 32.2754 24.0226L31.8614 24.2522ZM30.7991 24.2337C31.0954 24.0694 31.571 24.0777 31.8614 24.2522L32.2754 24.0226C31.7609 23.7135 30.9183 23.6987 30.3934 23.9897L30.7991 24.2337ZM30.7835 24.2425C30.7886 24.2395 30.7938 24.2366 30.7991 24.2337L30.3934 23.9897C30.3842 23.9949 30.375 24.0001 30.3661 24.0054L30.7835 24.2425Z" fill="#1D1D1B"/>
<path fill-rule="evenodd" clip-rule="evenodd" d="M30.5584 23.7861L28.9206 24.695C28.9014 24.7042 28.8827 24.7138 28.8646 24.7239C28.4544 24.9513 28.4412 25.3291 28.8432 25.5706C28.8614 25.5816 28.8802 25.5921 28.8995 25.6021L29.6447 26.0501C29.6533 26.0556 29.6621 26.0611 29.6712 26.0665C30.0731 26.3081 30.7315 26.3196 31.1416 26.0922C31.151 26.087 31.1603 26.0817 31.1692 26.0763L32.8483 25.1464C32.8576 25.1417 32.8668 25.1368 32.8759 25.1317C33.286 24.9043 33.2926 24.5241 32.8907 24.2824C32.8862 24.2798 32.8816 24.2771 32.877 24.2744L32.0803 23.7943L32.0706 23.7884C31.6682 23.5464 31.009 23.5349 30.5984 23.7626C30.5846 23.7703 30.5713 23.7781 30.5584 23.7861Z" fill="white"/>
<path d="M28.9206 24.695L29.1082 24.8248L29.1162 24.821L29.1236 24.8168L28.9206 24.695ZM30.5585 23.786L30.7617 23.908L30.7724 23.9015L30.5585 23.786ZM28.8996 25.602L29.1065 25.4873L29.099 25.4828L29.091 25.4786L28.8996 25.602ZM29.6448 26.05L29.8592 25.9397L29.8519 25.9353L29.6448 26.05ZM31.1693 26.0762L30.9665 25.9542L30.959 25.9587L31.1693 26.0762ZM32.8484 25.1464L32.6529 25.0203L32.6456 25.0244L32.8484 25.1464ZM32.8771 24.2744L32.6699 24.389L32.6739 24.3914L32.8771 24.2744ZM32.0804 23.7942L31.8721 23.9081L31.8731 23.9088L32.0804 23.7942ZM32.0707 23.7883L32.279 23.6743L32.2776 23.6735L32.0707 23.7883ZM29.1236 24.8168L30.7617 23.908L30.3556 23.6641L28.7177 24.573L29.1236 24.8168ZM29.0675 24.8457C29.0807 24.8384 29.0943 24.8315 29.1082 24.8248L28.7332 24.5651C28.7088 24.5767 28.6849 24.589 28.6618 24.6019L29.0675 24.8457ZM29.0503 25.4558C28.7627 25.283 28.7692 25.0111 29.0675 24.8457L28.6618 24.6019C28.1398 24.8914 28.1201 25.375 28.6364 25.6853L29.0503 25.4558ZM29.091 25.4786C29.0771 25.4714 29.0635 25.4637 29.0503 25.4558L28.6364 25.6853C28.6596 25.6993 28.6835 25.7126 28.7081 25.7254L29.091 25.4786ZM29.8519 25.9353L29.1065 25.4873L28.6925 25.7168L29.4379 26.1648L29.8519 25.9353ZM29.8782 25.9518C29.8717 25.9478 29.8654 25.9438 29.8592 25.9397L29.4307 26.1603C29.4416 26.1674 29.4528 26.1744 29.4643 26.1812L29.8782 25.9518ZM30.9389 25.9703C30.643 26.1343 30.1682 26.126 29.8782 25.9518L29.4643 26.1812C29.9783 26.4902 30.8201 26.5049 31.3445 26.2141L30.9389 25.9703ZM30.959 25.9587C30.9525 25.9626 30.9457 25.9665 30.9389 25.9703L31.3445 26.2141C31.3565 26.2075 31.3683 26.2006 31.3798 26.1938L30.959 25.9587ZM32.6456 25.0244L30.9665 25.9542L31.3721 26.1982L33.0511 25.2684L32.6456 25.0244ZM32.6731 25.0097C32.6665 25.0134 32.6598 25.0169 32.6529 25.0203L33.0437 25.2724C33.0555 25.2663 33.0673 25.26 33.0788 25.2536L32.6731 25.0097ZM32.6838 24.3972C32.9737 24.5715 32.9689 24.8457 32.6731 25.0097L33.0788 25.2536C33.6033 24.9628 33.6118 24.4766 33.0977 24.1677L32.6838 24.3972ZM32.6739 24.3914C32.6772 24.3932 32.6805 24.3952 32.6838 24.3972L33.0977 24.1677C33.092 24.1642 33.0862 24.1608 33.0804 24.1574L32.6739 24.3914ZM31.8731 23.9088L32.6699 24.389L33.0844 24.1598L32.2877 23.6797L31.8731 23.9088ZM31.8624 23.9023L31.8721 23.9081L32.2886 23.6802L32.279 23.6743L31.8624 23.9023ZM30.8013 23.8845C31.0976 23.7201 31.5733 23.7285 31.8637 23.9031L32.2776 23.6735C31.7632 23.3643 30.9205 23.3496 30.3957 23.6406L30.8013 23.8845ZM30.7724 23.9015C30.7816 23.8958 30.7913 23.8901 30.8013 23.8845L30.3957 23.6406C30.3781 23.6504 30.3611 23.6603 30.3447 23.6705L30.7724 23.9015Z" fill="#1D1D1B"/>
<path fill-rule="evenodd" clip-rule="evenodd" d="M19.8174 21.8087L18.3177 22.641C18.1247 22.6729 17.9516 22.7242 17.8284 22.7925L17.8226 23.1516C17.8158 23.3083 17.9145 23.4675 18.1195 23.5908C18.1323 23.5985 18.1453 23.606 18.1586 23.6132L18.8983 24.0578C18.9118 24.0669 18.9258 24.0758 18.9404 24.0846C19.3424 24.3262 20.0006 24.3377 20.4108 24.1103C20.4265 24.1016 20.4416 24.0927 20.4561 24.0835L22.1011 23.1725C22.1165 23.165 22.1317 23.1571 22.1465 23.1488C22.3509 23.0355 22.455 22.8843 22.4584 22.7311L22.4645 22.3775C22.3513 22.3094 22.1935 22.2534 22.0162 22.2131L21.3395 21.8054L21.3384 21.8055C20.936 21.5635 20.2768 21.552 19.8662 21.7797C19.8493 21.7891 19.833 21.7988 19.8174 21.8087Z" fill="#1D1D1B"/>
<path d="M18.3178 22.6409L18.4026 22.802L18.4703 22.7909L18.5207 22.7628L18.3178 22.6409ZM19.8175 21.8086L20.0204 21.9305L20.0274 21.9267L20.0338 21.9226L19.8175 21.8086ZM17.8284 22.7924L17.6256 22.6706L17.5398 22.7182L17.5387 22.7876L17.8284 22.7924ZM17.8227 23.1516L18.1124 23.1592L18.1125 23.1565L17.8227 23.1516ZM18.1587 23.6131L18.3659 23.4982L18.3549 23.4921L18.1587 23.6131ZM18.8984 24.0577L19.1169 23.9503L19.1114 23.9465L19.1054 23.943L18.8984 24.0577ZM20.4561 24.0835L20.2535 23.9615L20.247 23.965L20.2409 23.9689L20.4561 24.0835ZM22.1012 23.1724L21.9105 23.0439L21.8985 23.0505L22.1012 23.1724ZM22.4646 22.3774L22.7545 22.3825L22.7557 22.3131L22.6717 22.2627L22.4646 22.3774ZM22.0162 22.213L21.809 22.3277L21.8544 22.355L21.9151 22.3687L22.0162 22.213ZM21.3396 21.8053L21.5468 21.6907L21.3448 21.5689L21.1376 21.6829L21.3396 21.8053ZM21.3396 21.8053L21.1319 21.9203L21.3338 22.0419L21.5409 21.928L21.3396 21.8053ZM18.5207 22.7628L20.0204 21.9305L19.6146 21.6868L18.1149 22.5191L18.5207 22.7628ZM18.0313 22.9144C18.1125 22.8693 18.2406 22.8287 18.4026 22.802L18.233 22.4799C18.0091 22.5168 17.7907 22.579 17.6256 22.6706L18.0313 22.9144ZM18.1125 23.1565L18.1182 22.7974L17.5387 22.7876L17.5329 23.1467L18.1125 23.1565ZM18.3265 23.476C18.1786 23.3871 18.1075 23.2725 18.1124 23.1592L17.533 23.144C17.5242 23.344 17.6505 23.548 17.9125 23.7055L18.3265 23.476ZM18.3549 23.4921C18.3453 23.487 18.3358 23.4815 18.3265 23.476L17.9125 23.7055C17.9288 23.7153 17.9455 23.7247 17.9625 23.734L18.3549 23.4921ZM19.1054 23.943L18.3659 23.4982L17.9517 23.7279L18.6915 24.1724L19.1054 23.943ZM19.1475 23.9697C19.1368 23.9634 19.1267 23.9569 19.1169 23.9503L18.6798 24.1651C18.6971 24.1767 18.715 24.1881 18.7335 24.1993L19.1475 23.9697ZM20.208 23.9882C19.9122 24.1523 19.4374 24.144 19.1475 23.9697L18.7335 24.1993C19.2475 24.5082 20.0893 24.523 20.6137 24.2321L20.208 23.9882ZM20.2409 23.9689C20.2304 23.9755 20.2195 23.982 20.208 23.9882L20.6137 24.2321C20.6337 24.221 20.6529 24.2097 20.6715 24.198L20.2409 23.9689ZM21.8985 23.0505L20.2535 23.9615L20.6589 24.2054L22.3039 23.2945L21.8985 23.0505ZM21.9438 23.0269C21.9329 23.0328 21.9217 23.0384 21.9105 23.0439L22.2916 23.3009C22.3113 23.2912 22.3306 23.2811 22.3494 23.2707L21.9438 23.0269ZM22.1687 22.7256C22.1663 22.8362 22.0912 22.9451 21.9438 23.0269L22.3494 23.2707C22.6107 23.1258 22.7439 22.9321 22.7482 22.7365L22.1687 22.7256ZM22.1749 22.3723L22.1687 22.7256L22.7482 22.7365L22.7545 22.3825L22.1749 22.3723ZM21.9151 22.3687C22.0639 22.4026 22.1817 22.4465 22.2577 22.4921L22.6717 22.2627C22.521 22.1721 22.3233 22.104 22.1174 22.0574L21.9151 22.3687ZM21.1319 21.9203L21.809 22.3277L22.2235 22.0985L21.5468 21.6907L21.1319 21.9203ZM21.1319 21.9203L21.5468 21.6907H21.5456L21.1319 21.9203ZM20.0691 21.9016C20.3655 21.7373 20.8414 21.7458 21.1319 21.9203L21.5456 21.6907C21.0311 21.3814 20.1884 21.3667 19.6635 21.6577L20.0691 21.9016ZM20.0338 21.9226C20.045 21.9155 20.0568 21.9084 20.0691 21.9016L19.6635 21.6577C19.6419 21.6697 19.6212 21.682 19.6013 21.6947L20.0338 21.9226Z" fill="#1D1D1B"/>
<path fill-rule="evenodd" clip-rule="evenodd" d="M21.3417 21.4561C20.9393 21.2142 20.2798 21.2024 19.8691 21.4301C19.8516 21.4398 19.8348 21.4498 19.8188 21.4601L18.1793 22.3699C18.1655 22.3768 18.1519 22.384 18.1385 22.3913C17.7285 22.6187 17.7153 22.9965 18.1172 23.2381C18.1303 23.2459 18.1436 23.2535 18.1572 23.261L18.9205 23.7197C18.928 23.7246 18.9357 23.7294 18.9435 23.734C19.3455 23.9756 20.0038 23.9871 20.4139 23.7597C20.4244 23.7539 20.4345 23.7481 20.4444 23.7421L22.1204 22.8139C22.1297 22.8092 22.1389 22.8043 22.148 22.7992C22.5581 22.5718 22.5648 22.1916 22.1628 21.9499C22.1583 21.9472 22.1537 21.9446 22.1491 21.9419L21.3417 21.4561Z" fill="white"/>
<path d="M21.3414 21.4558L21.1347 21.5708L21.3367 21.6922L21.5437 21.5785L21.3414 21.4558ZM19.8188 21.46L20.0218 21.5819L20.0289 21.5779L20.0355 21.5737L19.8188 21.46ZM18.1793 22.3699L18.3713 22.4979L18.3822 22.4918L18.1793 22.3699ZM18.1573 23.2609L18.3645 23.146L18.3532 23.1399L18.1573 23.2609ZM18.9205 23.7197L19.1339 23.6088L19.1275 23.6049L18.9205 23.7197ZM20.4444 23.7421L20.2415 23.6199L20.2333 23.625L20.4444 23.7421ZM22.1204 22.8139L21.925 22.6879L21.9178 22.6919L22.1204 22.8139ZM22.1492 21.9419L21.9419 22.0565L21.946 22.0589L22.1492 21.9419ZM21.3424 21.4557L21.5497 21.3411L21.3477 21.2194L21.1405 21.3333L21.3424 21.4557ZM21.1347 21.5708L21.5497 21.3411H21.5484L21.1347 21.5708ZM20.072 21.5519C20.3683 21.3877 20.8444 21.3962 21.1347 21.5708L21.5484 21.3411C21.0339 21.0319 20.1912 21.0171 19.6663 21.3081L20.072 21.5519ZM20.0355 21.5737C20.0471 21.5663 20.0592 21.5591 20.072 21.5519L19.6663 21.3081C19.644 21.3205 19.6226 21.3332 19.6021 21.3463L20.0355 21.5737ZM18.3822 22.4918L20.0218 21.5819L19.6159 21.3381L17.9764 22.248L18.3822 22.4918ZM18.3414 22.5132C18.3511 22.5079 18.3613 22.5029 18.3713 22.4979L17.9877 22.2421C17.97 22.2509 17.9527 22.2599 17.9357 22.2694L18.3414 22.5132ZM18.3242 23.1233C18.0367 22.9505 18.0432 22.6786 18.3414 22.5132L17.9357 22.2694C17.4138 22.5589 17.3939 23.0425 17.9102 23.3528L18.3242 23.1233ZM18.3532 23.1399C18.3433 23.1345 18.3337 23.129 18.3242 23.1233L17.9102 23.3528C17.9269 23.3629 17.9439 23.3725 17.9613 23.3819L18.3532 23.1399ZM19.1275 23.6049L18.3645 23.146L17.9502 23.3757L18.7136 23.8345L19.1275 23.6049ZM19.1505 23.6193C19.1448 23.6158 19.1393 23.6123 19.1339 23.6088L18.7072 23.8306C18.7168 23.8367 18.7266 23.8428 18.7366 23.8487L19.1505 23.6193ZM20.2111 23.6377C19.9153 23.8018 19.4405 23.7935 19.1505 23.6193L18.7366 23.8487C19.2505 24.1577 20.0924 24.1724 20.6168 23.8816L20.2111 23.6377ZM20.2333 23.625C20.226 23.6293 20.2187 23.6336 20.2111 23.6377L20.6168 23.8816C20.63 23.8743 20.643 23.8668 20.6556 23.8592L20.2333 23.625ZM21.9178 22.6919L20.2415 23.6199L20.6471 23.864L22.3231 22.9359L21.9178 22.6919ZM21.9452 22.6772C21.9386 22.6809 21.9317 22.6843 21.925 22.6879L22.3157 22.9399C22.3276 22.9338 22.3393 22.9275 22.3509 22.9211L21.9452 22.6772ZM21.9559 22.0647C22.2459 22.239 22.2411 22.5132 21.9452 22.6772L22.3509 22.9211C22.8753 22.6303 22.8838 22.1441 22.3699 21.8352L21.9559 22.0647ZM21.946 22.0589C21.9493 22.0607 21.9526 22.0627 21.9559 22.0647L22.3699 21.8352C22.3641 21.8317 22.3582 21.8282 22.3525 21.8249L21.946 22.0589ZM21.1347 21.5708L21.9419 22.0565L22.3565 21.8273L21.5497 21.3411L21.1347 21.5708Z" fill="#1D1D1B"/>
<path fill-rule="evenodd" clip-rule="evenodd" d="M23.0386 24.169L21.5083 25.0182C21.3162 25.0501 21.1438 25.1014 21.021 25.1694L21.0153 25.5285C21.0086 25.6821 21.1033 25.8381 21.3 25.9602L22.1064 26.4451C22.1151 26.4506 22.1238 26.4561 22.1328 26.4616C22.5348 26.7031 23.1931 26.7146 23.6033 26.4872C23.6223 26.4767 23.6404 26.4659 23.6577 26.4546L25.2824 25.5548C25.3017 25.5457 25.3205 25.536 25.3389 25.5258C25.5433 25.4125 25.6474 25.2612 25.6509 25.1081L25.657 24.7544C25.5432 24.686 25.3845 24.6298 25.2062 24.5896L24.5674 24.2047C24.5561 24.1971 24.5443 24.1897 24.5322 24.1824C24.1298 23.9405 23.4707 23.929 23.06 24.1567C23.0527 24.1607 23.0456 24.1648 23.0386 24.169Z" fill="#1D1D1B"/>
<path d="M21.5083 25.0182L21.5934 25.1792L21.6608 25.1679L21.7112 25.14L21.5083 25.0182ZM23.0385 24.1689L23.2415 24.2908L23.2472 24.2875L23.0385 24.1689ZM21.0209 25.1693L20.8181 25.0475L20.7323 25.095L20.7312 25.1644L21.0209 25.1693ZM21.0153 25.5284L21.305 25.536V25.5334L21.0153 25.5284ZM21.3 25.9601L21.5019 26.0825L21.7071 25.9697L21.5102 25.8474L21.3 25.9601ZM21.3 25.9601L21.0978 25.8378L20.8891 25.9525L21.0928 26.075L21.3 25.9601ZM22.1063 26.445L22.3206 26.3347L22.3133 26.3303L22.1063 26.445ZM23.6576 26.4546L23.4549 26.3326L23.447 26.3369L23.4398 26.3416L23.6576 26.4546ZM25.2823 25.5548L25.095 25.4249L25.0871 25.4287L25.0797 25.4328L25.2823 25.5548ZM25.6569 24.7544L25.9467 24.7595L25.9479 24.6901L25.8639 24.6396L25.6569 24.7544ZM25.2061 24.5895L24.9989 24.704L25.0444 24.7315L25.1053 24.7452L25.2061 24.5895ZM24.5674 24.2046L24.3505 24.3134L24.3602 24.3192L24.5674 24.2046ZM21.7112 25.14L23.2415 24.2908L22.8356 24.047L21.3053 24.8962L21.7112 25.14ZM21.2239 25.2913C21.3047 25.2464 21.4322 25.2059 21.5934 25.1792L21.423 24.8571C21.2001 24.8942 20.9827 24.9561 20.8181 25.0475L21.2239 25.2913ZM21.305 25.5334L21.3108 25.1743L20.7312 25.1644L20.7255 25.5235L21.305 25.5334ZM21.5102 25.8474C21.3685 25.7594 21.3003 25.6471 21.305 25.536L20.7255 25.5208C20.7169 25.7168 20.838 25.9166 21.0896 26.0728L21.5102 25.8474ZM22.3133 26.3303L21.5068 25.8454L21.0928 26.075L21.8994 26.5597L22.3133 26.3303ZM22.3397 26.3467C22.3331 26.3428 22.3269 26.3387 22.3206 26.3347L21.8922 26.5553C21.9031 26.5624 21.9143 26.5693 21.9258 26.5762L22.3397 26.3467ZM23.4004 26.3652C23.1045 26.5293 22.6296 26.521 22.3397 26.3467L21.9258 26.5762C22.4398 26.8852 23.2815 26.8998 23.806 26.6091L23.4004 26.3652ZM23.4398 26.3416C23.4273 26.3497 23.4141 26.3576 23.4004 26.3652L23.806 26.6091C23.8302 26.5956 23.8533 26.5818 23.8754 26.5676L23.4398 26.3416ZM25.0797 25.4328L23.4549 26.3326L23.8603 26.5766L25.485 25.6768L25.0797 25.4328ZM25.136 25.4038C25.1227 25.4112 25.1089 25.4182 25.095 25.4249L25.4696 25.6847C25.4943 25.6729 25.5183 25.6606 25.5417 25.6476L25.136 25.4038ZM25.3609 25.1025C25.3585 25.2132 25.2835 25.322 25.136 25.4038L25.5417 25.6476C25.8029 25.5028 25.9363 25.3091 25.9405 25.1135L25.3609 25.1025ZM25.3672 24.7493L25.3609 25.1025L25.9405 25.1135L25.9467 24.7595L25.3672 24.7493ZM25.1053 24.7452C25.2552 24.7791 25.3736 24.8233 25.4499 24.8691L25.8639 24.6396C25.7126 24.5486 25.5137 24.4803 25.3068 24.4337L25.1053 24.7452ZM24.3602 24.3192L24.9989 24.704L25.4133 24.4749L24.7747 24.09L24.3602 24.3192ZM24.3251 24.2971C24.334 24.3024 24.3422 24.3079 24.3505 24.3134L24.7841 24.0959C24.7695 24.0863 24.7546 24.0768 24.7391 24.0676L24.3251 24.2971ZM23.2628 24.2786C23.5591 24.1143 24.0348 24.1226 24.3251 24.2971L24.7391 24.0676C24.2246 23.7584 23.382 23.7436 22.8571 24.0347L23.2628 24.2786ZM23.2472 24.2875C23.2524 24.2844 23.2575 24.2815 23.2628 24.2786L22.8571 24.0347C22.8479 24.0398 22.8388 24.045 22.8298 24.0503L23.2472 24.2875Z" fill="#1D1D1B"/>
<path fill-rule="evenodd" clip-rule="evenodd" d="M24.5336 23.833C24.1312 23.5911 23.4716 23.5794 23.061 23.8071C23.0435 23.8168 23.0267 23.8268 23.0107 23.837L21.374 24.7453C21.3591 24.7527 21.3445 24.7603 21.3301 24.7683C20.92 24.9958 20.9068 25.3735 21.3088 25.6151C21.3228 25.6236 21.3372 25.6318 21.352 25.6397L22.1088 26.0946C22.1173 26.1001 22.1261 26.1056 22.1352 26.111C22.5372 26.3526 23.1955 26.3641 23.6056 26.1366C23.615 26.1315 23.6243 26.1261 23.6333 26.1207L25.3156 25.1891C25.3237 25.1849 25.3317 25.1805 25.3397 25.1761C25.7469 24.9503 25.7563 24.5738 25.3628 24.332L25.3613 24.3311C25.359 24.3297 25.3568 24.3283 25.3544 24.3269C25.3529 24.3259 25.3512 24.3249 25.3495 24.324L24.5336 23.833Z" fill="white"/>
<path d="M24.5332 23.8328L24.3266 23.9477L24.5286 24.0693L24.7356 23.9554L24.5332 23.8328ZM23.0107 23.837L23.2137 23.9588L23.2207 23.9549L23.2273 23.9506L23.0107 23.837ZM21.3741 24.7453L21.5652 24.8736L21.577 24.8671L21.3741 24.7453ZM21.352 25.6396L21.5593 25.5247L21.547 25.518L21.352 25.6396ZM22.1088 26.0945L22.3231 25.9842L22.3158 25.9797L22.1088 26.0945ZM23.6333 26.1207L23.4305 25.9986L23.4229 26.0031L23.6333 26.1207ZM25.3156 25.1891L25.1192 25.0635L25.1129 25.067L25.3156 25.1891ZM25.3628 24.3319L25.16 24.21L24.9553 24.3235L25.1536 24.4454L25.3628 24.3319ZM25.3628 24.3319L25.5657 24.4538L25.7724 24.3392L25.5701 24.2174L25.3628 24.3319ZM25.3613 24.331L25.1525 24.4447L25.1536 24.4454L25.3613 24.331ZM25.3496 24.3239L25.1424 24.4385L25.144 24.4395L25.3496 24.3239ZM24.5344 23.8326L24.7416 23.718L24.5395 23.5963L24.3323 23.7102L24.5344 23.8326ZM24.3266 23.9477L24.7416 23.718H24.7403L24.3266 23.9477ZM23.2639 23.929C23.5602 23.7647 24.0361 23.7732 24.3266 23.9477L24.7403 23.718C24.2259 23.4089 23.3831 23.394 22.8582 23.6851L23.2639 23.929ZM23.2273 23.9506C23.2389 23.9432 23.2511 23.936 23.2639 23.929L22.8582 23.6851C22.8359 23.6975 22.8146 23.7101 22.7941 23.7232L23.2273 23.9506ZM21.577 24.8671L23.2137 23.9588L22.8078 23.7151L21.1711 24.6234L21.577 24.8671ZM21.533 24.8901C21.5434 24.8844 21.5544 24.879 21.5652 24.8736L21.1833 24.6171C21.1642 24.6264 21.1456 24.6362 21.1272 24.6463L21.533 24.8901ZM21.5157 25.5003C21.2282 25.3274 21.2347 25.0555 21.533 24.8901L21.1272 24.6463C20.6053 24.9358 20.5855 25.4194 21.1018 25.7297L21.5157 25.5003ZM21.547 25.518C21.5364 25.5124 21.526 25.5064 21.5157 25.5003L21.1018 25.7297C21.1197 25.7406 21.1382 25.751 21.1569 25.7611L21.547 25.518ZM22.3158 25.9797L21.5593 25.5247L21.145 25.7543L21.9019 26.2093L22.3158 25.9797ZM22.3422 25.9962C22.3356 25.9922 22.3294 25.9883 22.3231 25.9842L21.8946 26.2048C21.9056 26.2118 21.9168 26.2188 21.9282 26.2256L22.3422 25.9962ZM23.4027 26.0147C23.1069 26.1787 22.6321 26.1704 22.3422 25.9962L21.9282 26.2256C22.4423 26.5346 23.284 26.5494 23.8085 26.2585L23.4027 26.0147ZM23.4229 26.0031C23.4164 26.007 23.4097 26.0109 23.4027 26.0147L23.8085 26.2585C23.8205 26.2519 23.8322 26.2451 23.8437 26.2382L23.4229 26.0031ZM25.1129 25.067L23.4305 25.9986L23.836 26.2426L25.5184 25.311L25.1129 25.067ZM25.1369 25.0542C25.131 25.0574 25.1252 25.0604 25.1192 25.0635L25.5118 25.3145C25.5222 25.3092 25.5324 25.3036 25.5426 25.298L25.1369 25.0542ZM25.1536 24.4454C25.4374 24.6197 25.4306 24.8913 25.1369 25.0542L25.5426 25.298C26.0633 25.0093 26.0753 24.5278 25.5721 24.2185L25.1536 24.4454ZM25.1536 24.4454L25.1556 24.4465L25.5701 24.2174L25.5685 24.2164L25.1536 24.4454ZM25.1475 24.4416C25.1492 24.4426 25.1508 24.4436 25.1525 24.4447L25.5701 24.2174C25.5671 24.2156 25.5644 24.2138 25.5615 24.2121L25.1475 24.4416ZM25.144 24.4395C25.1452 24.4402 25.1464 24.4409 25.1475 24.4416L25.5615 24.2121C25.5594 24.2108 25.5573 24.2096 25.5552 24.2084L25.144 24.4395ZM24.3266 23.9477L25.1424 24.4385L25.5568 24.2094L24.7416 23.718L24.3266 23.9477Z" fill="#1D1D1B"/>
<path fill-rule="evenodd" clip-rule="evenodd" d="M26.2712 26.5488L24.7409 27.398C24.5488 27.4299 24.3764 27.4812 24.2537 27.5493L24.248 27.9084C24.2413 28.0618 24.3359 28.2179 24.5326 28.34L25.339 28.825C25.3476 28.8304 25.3564 28.836 25.3655 28.8414C25.7674 29.083 26.4258 29.0945 26.8359 28.867C26.8548 28.8565 26.873 28.8457 26.8903 28.8345L28.515 27.9347C28.5344 27.9255 28.5532 27.9158 28.5715 27.9057C28.7759 27.7923 28.8801 27.6411 28.8834 27.4879L28.8897 27.1342C28.7758 27.0658 28.6171 27.0097 28.4387 26.9694L27.8001 26.5845C27.7887 26.577 27.777 26.5696 27.7649 26.5622C27.3625 26.3204 26.7033 26.3089 26.2927 26.5366C26.2854 26.5406 26.2783 26.5447 26.2712 26.5488Z" fill="#1D1D1B"/>
<path d="M24.7408 27.398L24.826 27.559L24.8934 27.5479L24.9438 27.5199L24.7408 27.398ZM26.2712 26.5488L26.4742 26.6707L26.4798 26.6673L26.2712 26.5488ZM24.2536 27.5493L24.0508 27.4273L23.9649 27.4749L23.9638 27.5443L24.2536 27.5493ZM24.2479 27.9084L24.5377 27.916V27.9133L24.2479 27.9084ZM24.5325 28.34L24.7346 28.4624L24.9398 28.3496L24.7429 28.2273L24.5325 28.34ZM24.5325 28.34L24.3304 28.2177L24.1218 28.3325L24.3254 28.4549L24.5325 28.34ZM25.339 28.825L25.5533 28.7146L25.546 28.7101L25.339 28.825ZM26.8902 28.8345L26.6876 28.7125L26.6797 28.7169L26.6724 28.7216L26.8902 28.8345ZM28.515 27.9347L28.3277 27.8048L28.3198 27.8086L28.3122 27.8128L28.515 27.9347ZM28.8896 27.1342L29.1794 27.1393L29.1805 27.07L29.0965 27.0195L28.8896 27.1342ZM28.4387 26.9694L28.2315 27.084L28.277 27.1114L28.338 27.1252L28.4387 26.9694ZM27.8 26.5845L27.5832 26.6933L27.5928 26.6991L27.8 26.5845ZM24.9438 27.5199L26.4742 26.6707L26.0682 26.4269L24.5379 27.2762L24.9438 27.5199ZM24.4564 27.6712C24.5374 27.6262 24.6648 27.5858 24.826 27.559L24.6557 27.2371C24.4327 27.274 24.2154 27.3361 24.0508 27.4273L24.4564 27.6712ZM24.5377 27.9133L24.5434 27.5541L23.9638 27.5443L23.9581 27.9035L24.5377 27.9133ZM24.7429 28.2273C24.601 28.1392 24.5328 28.027 24.5377 27.916L23.9582 27.9008C23.9496 28.0968 24.0707 28.2966 24.3223 28.4528L24.7429 28.2273ZM25.546 28.7101L24.7394 28.2254L24.3254 28.4549L25.132 28.9397L25.546 28.7101ZM25.5723 28.7266C25.5658 28.7226 25.5596 28.7187 25.5533 28.7146L25.1248 28.9352C25.1358 28.9422 25.147 28.9493 25.1584 28.9561L25.5723 28.7266ZM26.633 28.7452C26.3371 28.9092 25.8623 28.9009 25.5723 28.7266L25.1584 28.9561C25.6724 29.2651 26.5142 29.2798 27.0387 28.989L26.633 28.7452ZM26.6724 28.7216C26.6599 28.7296 26.6468 28.7375 26.633 28.7452L27.0387 28.989C27.0629 28.9756 27.086 28.9618 27.108 28.9475L26.6724 28.7216ZM28.3122 27.8128L26.6876 28.7125L27.0929 28.9565L28.7177 28.0567L28.3122 27.8128ZM28.3686 27.7837C28.3553 27.7911 28.3416 27.7981 28.3277 27.8048L28.7023 28.0647C28.727 28.0529 28.751 28.0405 28.7743 28.0275L28.3686 27.7837ZM28.5936 27.4824C28.5912 27.5932 28.5161 27.7019 28.3686 27.7837L28.7743 28.0275C29.0356 27.8827 29.1688 27.689 29.1732 27.4935L28.5936 27.4824ZM28.5998 27.1292L28.5936 27.4824L29.1732 27.4935L29.1794 27.1393L28.5998 27.1292ZM28.338 27.1252C28.4878 27.159 28.6062 27.2031 28.6826 27.2491L29.0965 27.0195C28.9453 26.9286 28.7463 26.8603 28.5395 26.8136L28.338 27.1252ZM27.5928 26.6991L28.2315 27.084L28.646 26.8547L28.0073 26.4698L27.5928 26.6991ZM27.5578 26.6771C27.5667 26.6823 27.5749 26.6878 27.5832 26.6933L28.0167 26.4758C28.0022 26.4662 27.9872 26.4568 27.9718 26.4475L27.5578 26.6771ZM26.4955 26.6584C26.7918 26.4941 27.2675 26.5024 27.5578 26.6771L27.9718 26.4475C27.4573 26.1382 26.6147 26.1235 26.0898 26.4146L26.4955 26.6584ZM26.4798 26.6673C26.4849 26.6644 26.4902 26.6614 26.4955 26.6584L26.0898 26.4146C26.0805 26.4197 26.0714 26.425 26.0625 26.4302L26.4798 26.6673Z" fill="#1D1D1B"/>
<path fill-rule="evenodd" clip-rule="evenodd" d="M27.7639 26.2132C27.3614 25.9713 26.7019 25.9595 26.2913 26.1872C26.2737 26.1969 26.2569 26.2068 26.2409 26.2171L24.6043 27.1254C24.5893 27.1328 24.5747 27.1405 24.5604 27.1484C24.1502 27.3758 24.137 27.7536 24.539 27.9951C24.5531 28.0036 24.5675 28.0118 24.5822 28.0197L25.339 28.4746C25.3477 28.4802 25.3564 28.4857 25.3654 28.4911C25.7674 28.7327 26.4257 28.7442 26.8359 28.5168C26.8453 28.5115 26.8545 28.5062 26.8636 28.5009L28.5458 27.5692C28.5539 27.565 28.562 27.5607 28.5699 27.5563C28.9772 27.3304 28.9866 26.9539 28.593 26.7121L28.5916 26.7111C28.5892 26.7097 28.587 26.7084 28.5847 26.707C28.5831 26.706 28.5814 26.7051 28.5799 26.7041L27.7639 26.2132Z" fill="white"/>
<path d="M27.7636 26.2129L27.5569 26.3278L27.7589 26.4494L27.9659 26.3355L27.7636 26.2129ZM26.241 26.2171L26.444 26.339L26.4511 26.335L26.4577 26.3308L26.241 26.2171ZM24.6043 27.1254L24.7955 27.2538L24.8074 27.2473L24.6043 27.1254ZM24.5823 28.0197L24.7896 27.9048L24.7774 27.8982L24.5823 28.0197ZM25.3391 28.4746L25.5534 28.3643L25.5461 28.3599L25.3391 28.4746ZM26.8637 28.5009L26.6607 28.3787L26.6532 28.3833L26.8637 28.5009ZM28.5459 27.5692L28.3496 27.4437L28.3432 27.4472L28.5459 27.5692ZM28.5931 26.7121L28.3903 26.5901L28.1857 26.7036L28.384 26.8255L28.5931 26.7121ZM28.5931 26.7121L28.7961 26.834L29.0027 26.7194L28.8004 26.5975L28.5931 26.7121ZM28.5917 26.7111L28.3828 26.8248L28.384 26.8255L28.5917 26.7111ZM28.58 26.7041L28.3726 26.8187L28.3743 26.8197L28.58 26.7041ZM27.7646 26.2128L27.9719 26.0981L27.7699 25.9765L27.5627 26.0903L27.7646 26.2128ZM27.5569 26.3278L27.9719 26.0981L27.9706 26.0982L27.5569 26.3278ZM26.4942 26.3091C26.7905 26.1448 27.2666 26.1532 27.5569 26.3278L27.9706 26.0982C27.4562 25.789 26.6134 25.7741 26.0885 26.0653L26.4942 26.3091ZM26.4577 26.3308C26.4693 26.3234 26.4814 26.3162 26.4942 26.3091L26.0885 26.0653C26.0662 26.0776 26.0448 26.0903 26.0243 26.1034L26.4577 26.3308ZM24.8074 27.2473L26.444 26.339L26.0381 26.0952L24.4014 27.0035L24.8074 27.2473ZM24.7633 27.2703C24.7737 27.2646 24.7846 27.2592 24.7955 27.2538L24.4136 26.9972C24.3946 27.0065 24.3759 27.0164 24.3576 27.0265L24.7633 27.2703ZM24.7461 27.8804C24.4585 27.7076 24.465 27.4357 24.7633 27.2703L24.3576 27.0265C23.8356 27.3159 23.8159 27.7996 24.3322 28.1099L24.7461 27.8804ZM24.7774 27.8982C24.7668 27.8925 24.7563 27.8865 24.7461 27.8804L24.3322 28.1099C24.3501 28.1207 24.3684 28.1311 24.3873 28.1413L24.7774 27.8982ZM25.5461 28.3599L24.7896 27.9048L24.3754 28.1345L25.1322 28.5894L25.5461 28.3599ZM25.5724 28.3763C25.5659 28.3724 25.5597 28.3683 25.5534 28.3643L25.1249 28.5849C25.1359 28.592 25.1471 28.5989 25.1586 28.6058L25.5724 28.3763ZM26.6331 28.3948C26.3373 28.5589 25.8624 28.5506 25.5724 28.3763L25.1586 28.6058C25.6725 28.9148 26.5143 28.9295 27.0388 28.6387L26.6331 28.3948ZM26.6532 28.3833C26.6467 28.3872 26.64 28.391 26.6331 28.3948L27.0388 28.6387C27.0508 28.632 27.0626 28.6253 27.074 28.6184L26.6532 28.3833ZM28.3432 27.4472L26.6607 28.3787L27.0663 28.6228L28.7486 27.6912L28.3432 27.4472ZM28.3672 27.4343C28.3614 27.4376 28.3555 27.4407 28.3496 27.4437L28.7422 27.6946C28.7525 27.6893 28.7628 27.6838 28.7728 27.6781L28.3672 27.4343ZM28.384 26.8255C28.6677 26.9999 28.6609 27.2714 28.3672 27.4343L28.7728 27.6781C29.2936 27.3895 29.3056 26.908 28.8024 26.5987L28.384 26.8255ZM28.384 26.8255L28.386 26.8267L28.8004 26.5975L28.7989 26.5966L28.384 26.8255ZM28.3778 26.8218C28.3795 26.8228 28.3811 26.8238 28.3828 26.8248L28.8004 26.5975C28.7976 26.5957 28.7947 26.594 28.7918 26.5923L28.3778 26.8218ZM28.3743 26.8197C28.3755 26.8204 28.3766 26.8211 28.3778 26.8218L28.7918 26.5923C28.7897 26.591 28.7877 26.5897 28.7855 26.5885L28.3743 26.8197ZM27.5569 26.3278L28.3726 26.8187L28.7872 26.5895L27.9719 26.0981L27.5569 26.3278Z" fill="#1D1D1B"/>
<path d="M14.4504 22.0395L22.6616 17.1307C22.9681 16.9475 22.9691 16.5038 22.6633 16.3192L18.0229 13.5185C17.7227 13.3373 17.347 13.3369 17.0465 13.5174L8.83757 18.4467C8.53119 18.6306 8.5314 19.0748 8.83794 19.2584L13.478 22.0389C13.7773 22.2182 14.1508 22.2184 14.4504 22.0395Z" fill="white"/>
<path d="M14.4504 22.0395L22.6616 17.1307C22.9681 16.9475 22.9691 16.5038 22.6633 16.3192L18.0229 13.5185C17.7227 13.3373 17.347 13.3369 17.0465 13.5174L8.83757 18.4467C8.53119 18.6306 8.5314 19.0748 8.83794 19.2584L13.478 22.0389C13.7773 22.2182 14.1508 22.2184 14.4504 22.0395Z" stroke="#1D1D1B" stroke-width="0.8" stroke-linecap="round" stroke-linejoin="round"/>
<path d="M34.7206 8.71885V7.62185C34.7206 7.45391 34.6316 7.29854 34.4867 7.21357L24.5298 1.37349C24.3968 1.29541 24.2318 1.29543 24.0987 1.37354L7.50403 11.112V12.5126C7.50403 12.6805 7.59296 12.8358 7.73774 12.9208L17.1902 18.4696C17.6347 18.7304 18.1857 18.73 18.6298 18.4684L34.4875 9.12668C34.632 9.04159 34.7206 8.88647 34.7206 8.71885Z" fill="#1D1D1B"/>
<path d="M34.7206 8.71885V7.62185C34.7206 7.45391 34.6316 7.29854 34.4867 7.21357L24.5298 1.37349C24.3968 1.29541 24.2318 1.29543 24.0987 1.37354L7.50403 11.112V12.5126C7.50403 12.6805 7.59296 12.8358 7.73774 12.9208L17.1902 18.4696C17.6347 18.7304 18.1857 18.73 18.6298 18.4684L34.4875 9.12668C34.632 9.04159 34.7206 8.88647 34.7206 8.71885Z" stroke="#1D1D1B" stroke-width="0.776249" stroke-linecap="round" stroke-linejoin="round"/>
<path d="M18.3917 16.9778L34.0322 7.7578C34.3421 7.57513 34.3431 7.12727 34.034 6.94331L24.7972 1.44592C24.4995 1.26874 24.1288 1.26833 23.8308 1.44483L8.19261 10.7046C7.8829 10.8881 7.8831 11.3364 8.19298 11.5195L17.4294 16.9773C17.7262 17.1527 18.0948 17.1529 18.3917 16.9778Z" fill="#D5C8FB"/>
<path d="M18.3917 16.9778L34.0322 7.7578C34.3421 7.57513 34.3431 7.12727 34.034 6.94331L24.7972 1.44592C24.4995 1.26874 24.1288 1.26833 23.8308 1.44483L8.19261 10.7046C7.8829 10.8881 7.8831 11.3364 8.19298 11.5195L17.4294 16.9773C17.7262 17.1527 18.0948 17.1529 18.3917 16.9778Z" stroke="#1D1D1B" stroke-width="0.8" stroke-linecap="round" stroke-linejoin="round"/>
<path d="M16.5948 9.58745C16.5903 9.58478 16.583 9.58478 16.5785 9.58745L13.0199 11.7067C12.975 11.7336 12.975 11.7769 13.0199 11.8036L15.2428 13.1275C15.2473 13.1303 15.2546 13.1303 15.2591 13.1275L18.8176 11.0082C18.8626 10.9815 18.8626 10.9381 18.8176 10.9113L16.5948 9.58745Z" fill="white" stroke="#1D1D1B" stroke-width="0.776249"/>
</svg>
