<svg width="38" height="38" viewBox="0 0 38 38" fill="none" xmlns="http://www.w3.org/2000/svg">
<path d="M28.5925 1.74023C32.5027 1.74023 35.9932 3.41359 36.8683 5.66476L36.8852 14.7011C36.8852 17.532 33.1762 19.8276 28.5926 19.8276C24.0128 19.8276 20.3 17.532 20.3 14.7011L20.2999 5.92419C21.0157 3.54336 24.5334 1.74023 28.5925 1.74023Z" fill="#D5C8FB" stroke="#1D1D1B" stroke-width="0.8" stroke-miterlimit="10"/>
<path d="M28.5927 20.2273C28.8083 20.2273 28.983 20.0526 28.983 19.837C28.983 19.6215 28.8083 19.4468 28.5927 19.4468V20.2273ZM19.9099 14.7107C19.9099 16.3113 20.9582 17.6995 22.5238 18.6674C24.0955 19.639 26.2422 20.2273 28.5927 20.2273V19.4468C26.3635 19.4468 24.3639 18.8874 22.9342 18.0035C21.4984 17.1159 20.6904 15.9409 20.6904 14.7107H19.9099Z" fill="#1D1D1B"/>
<path d="M28.5927 17.0518C28.8083 17.0518 28.983 16.8771 28.983 16.6616C28.983 16.4461 28.8083 16.2714 28.5927 16.2714V17.0518ZM19.9099 11.5352C19.9099 13.1357 20.9582 14.5239 22.5238 15.4918C24.0955 16.4634 26.2422 17.0518 28.5927 17.0518V16.2714C26.3635 16.2714 24.3639 15.7118 22.9342 14.828C21.4984 13.9403 20.6904 12.7654 20.6904 11.5352H19.9099Z" fill="#1D1D1B"/>
<path d="M28.5927 13.8765C28.8083 13.8765 28.983 13.7018 28.983 13.4863C28.983 13.2707 28.8083 13.096 28.5927 13.096V13.8765ZM19.9099 8.35986C19.9099 9.9605 20.9582 11.3487 22.5238 12.3165C24.0955 13.2882 26.2422 13.8765 28.5927 13.8765V13.096C26.3635 13.096 24.3639 12.5365 22.9342 11.6527C21.4984 10.7651 20.6904 9.59006 20.6904 8.35986H19.9099Z" fill="#1D1D1B"/>
<path d="M28.5925 10.8076C33.1761 10.8076 36.8851 8.5121 36.8851 5.6813C36.8851 2.85051 33.1723 0.554932 28.5925 0.554932C24.0127 0.554932 20.2999 2.85051 20.2999 5.6813C20.2999 8.5121 24.0127 10.8076 28.5925 10.8076Z" fill="#EFE9FE" stroke="#1D1D1B" stroke-width="0.8" stroke-miterlimit="10"/>
<path d="M29.843 8.17434C28.8883 8.25755 27.9263 8.18397 26.9952 7.95642C26.9285 7.93114 26.8567 7.92173 26.7857 7.92893C26.7148 7.93614 26.6465 7.9598 26.5861 7.99798L25.2813 8.75041L24.4217 8.23147L25.6851 7.4997L24.8463 7.01192L23.5777 7.74358L22.7389 7.25582L24.0541 6.49819C24.1011 6.47971 24.1398 6.44467 24.1629 6.39962C24.1697 6.3784 24.1699 6.35559 24.1635 6.33425C24.157 6.3129 24.1442 6.29406 24.1266 6.28027C23.815 5.88481 23.6616 5.38707 23.6968 4.88437C23.7629 4.36134 24.0103 3.87817 24.3959 3.5195C24.8745 3.05985 25.4445 2.70624 26.0684 2.48163C26.8062 2.19432 27.5829 2.01941 28.3726 1.96269L28.735 1.92114H28.7712L28.3001 2.8137C27.7904 2.86937 27.2906 2.9934 26.8139 3.18225C26.4088 3.3397 26.0379 3.57396 25.7214 3.87234C25.4625 4.10823 25.2818 4.41787 25.2036 4.75971C25.1436 5.08028 25.2005 5.41183 25.3641 5.69382L27.7874 4.29271L28.621 4.77529L27.5854 5.38772L26.0787 6.25949C26.0269 6.28544 25.9803 6.36847 26.0114 6.38923L26.6793 6.77324C26.7134 6.78085 26.7488 6.78085 26.7829 6.77324C26.817 6.78103 26.8524 6.78103 26.8864 6.77324L29.4754 5.26318L30.3142 5.75095L27.9117 7.14166C28.4395 7.23623 28.9767 7.26581 29.5117 7.22984C30.0403 7.20126 30.5627 7.10186 31.065 6.93414C31.4961 6.7974 31.8994 6.58478 32.256 6.30625C32.546 6.08818 32.7672 5.7908 32.8928 5.44992L34.4462 5.16968C34.4462 5.16968 33.7213 7.74346 29.843 8.17434Z" fill="#1D1D1B"/>
<path d="M9.08029 9.54492C12.9905 9.54492 16.4811 11.2183 17.3561 13.4694L17.3731 22.5058C17.3731 25.3366 13.664 27.6322 9.08048 27.6322C4.50068 27.6322 0.787846 25.3366 0.787846 22.5058L0.78772 13.7288C1.50348 11.348 5.02127 9.54492 9.08029 9.54492Z" fill="#D5C8FB" stroke="#1D1D1B" stroke-width="0.8" stroke-miterlimit="10"/>
<path d="M9.08056 28.0322C9.29608 28.0322 9.47081 27.8576 9.47081 27.642C9.47081 27.4265 9.29608 27.2517 9.08056 27.2517V28.0322ZM0.397705 22.5156C0.397705 24.1162 1.44604 25.5044 3.01163 26.4723C4.5833 27.4439 6.73 28.0322 9.08056 28.0322V27.2517C6.85133 27.2517 4.85172 26.6923 3.42204 25.8084C1.98627 24.9208 1.17819 23.7459 1.17819 22.5156H0.397705Z" fill="#1D1D1B"/>
<path d="M9.08056 24.8568C9.29608 24.8568 9.47081 24.682 9.47081 24.4665C9.47081 24.251 9.29608 24.0763 9.08056 24.0763V24.8568ZM0.397705 19.3401C0.397705 20.9407 1.44604 22.3289 3.01163 23.2968C4.5833 24.2684 6.73 24.8568 9.08056 24.8568V24.0763C6.85133 24.0763 4.85172 23.5168 3.42204 22.633C1.98627 21.7453 1.17819 20.5703 1.17819 19.3401H0.397705Z" fill="#1D1D1B"/>
<path d="M9.08056 21.6814C9.29608 21.6814 9.47081 21.5066 9.47081 21.2911C9.47081 21.0756 9.29608 20.9009 9.08056 20.9009V21.6814ZM0.397705 16.1648C0.397705 17.7654 1.44604 19.1536 3.01163 20.1214C4.5833 21.0931 6.73 21.6814 9.08056 21.6814V20.9009C6.85133 20.9009 4.85172 20.3414 3.42204 19.4576C1.98627 18.57 1.17819 17.3949 1.17819 16.1648H0.397705Z" fill="#1D1D1B"/>
<path d="M9.08029 18.6125C13.6639 18.6125 17.373 16.317 17.373 13.4863C17.373 10.6554 13.6601 8.35986 9.08029 8.35986C4.50055 8.35986 0.78772 10.6554 0.78772 13.4863C0.78772 16.317 4.50055 18.6125 9.08029 18.6125Z" fill="#EFE9FE" stroke="#1D1D1B" stroke-width="0.8" stroke-miterlimit="10"/>
<path d="M10.3308 15.9793C9.37609 16.0626 8.41414 15.9889 7.483 15.7614C7.41627 15.7361 7.34458 15.7267 7.27359 15.7339C7.20261 15.7411 7.13431 15.7648 7.07398 15.803L5.76914 16.5553L4.90958 16.0364L6.17297 15.3047L5.33414 14.8169L4.06557 15.5485L3.22675 15.0608L4.54197 14.3031C4.589 14.2847 4.62764 14.2497 4.65068 14.2046C4.65756 14.1833 4.6578 14.1605 4.65131 14.1392C4.64483 14.1179 4.63197 14.0991 4.61446 14.0853C4.30279 13.6898 4.1495 13.192 4.18466 12.6893C4.25069 12.1663 4.49811 11.6831 4.88366 11.3245C5.36237 10.8648 5.93225 10.5112 6.55619 10.2866C7.29409 9.99934 8.07073 9.82442 8.86038 9.76764L9.22282 9.72607H9.25902L8.7879 10.6187C8.27824 10.6744 7.77843 10.7984 7.30179 10.9872C6.89668 11.1447 6.52572 11.379 6.20924 11.6773C5.95031 11.9132 5.76961 12.2229 5.69145 12.5647C5.63143 12.8853 5.68836 13.2168 5.85194 13.4988L8.27521 12.0977L9.10887 12.5802L8.07326 13.1927L6.56649 14.0645C6.51472 14.0904 6.46811 14.1735 6.49918 14.1942L7.16716 14.5782C7.20125 14.5858 7.23665 14.5858 7.27075 14.5782C7.30483 14.586 7.3402 14.586 7.37429 14.5782L9.96321 13.0681L10.802 13.5559L8.39951 14.9467C8.92731 15.0412 9.46458 15.0708 9.99951 15.0349C10.5281 15.0063 11.0505 14.9069 11.5529 14.7391C11.9839 14.6024 12.3872 14.3898 12.7438 14.1112C13.0338 13.8931 13.255 13.5957 13.3807 13.2549L14.934 12.9747C14.934 12.9747 14.2092 15.5484 10.3308 15.9793Z" fill="#1D1D1B"/>
<path d="M23.7144 19.301C27.6246 19.301 31.1152 20.9744 31.9902 23.2255L32.0072 32.2619C32.0072 35.0927 28.2981 37.3883 23.7146 37.3883C19.1348 37.3883 15.4219 35.0927 15.4219 32.2619L15.4218 23.4849C16.1376 21.1041 19.6554 19.301 23.7144 19.301Z" fill="#D5C8FB" stroke="#1D1D1B" stroke-width="0.8" stroke-miterlimit="10"/>
<path d="M23.7147 37.7883C23.9302 37.7883 24.1049 37.6137 24.1049 37.3981C24.1049 37.1826 23.9302 37.0078 23.7147 37.0078V37.7883ZM15.0319 32.2717C15.0319 33.8723 16.0802 35.2605 17.6457 36.2284C19.2174 37.2 21.3642 37.7883 23.7147 37.7883V37.0078C21.4854 37.0078 19.4858 36.4484 18.0562 35.5645C16.6203 34.6769 15.8123 33.502 15.8123 32.2717H15.0319Z" fill="#1D1D1B"/>
<path d="M23.7147 34.6129C23.9302 34.6129 24.1049 34.4381 24.1049 34.2226C24.1049 34.0071 23.9302 33.8324 23.7147 33.8324V34.6129ZM15.0319 29.0962C15.0319 30.6968 16.0802 32.085 17.6457 33.0529C19.2174 34.0245 21.3642 34.6129 23.7147 34.6129V33.8324C21.4854 33.8324 19.4858 33.2729 18.0562 32.3891C16.6203 31.5014 15.8123 30.3264 15.8123 29.0962H15.0319Z" fill="#1D1D1B"/>
<path d="M23.7147 31.4375C23.9302 31.4375 24.1049 31.2628 24.1049 31.0472C24.1049 30.8317 23.9302 30.657 23.7147 30.657V31.4375ZM15.0319 25.9209C15.0319 27.5215 16.0802 28.9097 17.6457 29.8775C19.2174 30.8492 21.3642 31.4375 23.7147 31.4375V30.657C21.4854 30.657 19.4858 30.0975 18.0562 29.2137C16.6203 28.3261 15.8123 27.151 15.8123 25.9209H15.0319Z" fill="#1D1D1B"/>
<path d="M23.7144 28.3686C28.298 28.3686 32.0071 26.073 32.0071 23.2423C32.0071 20.4115 28.2942 18.116 23.7144 18.116C19.1347 18.116 15.4218 20.4115 15.4218 23.2423C15.4218 26.073 19.1347 28.3686 23.7144 28.3686Z" fill="#EFE9FE" stroke="#1D1D1B" stroke-width="0.8" stroke-miterlimit="10"/>
<path d="M24.9649 25.7354C24.0102 25.8187 23.0483 25.745 22.1171 25.5175C22.0504 25.4922 21.9787 25.4828 21.9077 25.49C21.8367 25.4972 21.7684 25.5209 21.7081 25.5591L20.4033 26.3114L19.5437 25.7925L20.8071 25.0608L19.9683 24.573L18.6997 25.3046L17.8608 24.8169L19.1761 24.0593C19.2231 24.0408 19.2617 24.0058 19.2848 23.9607C19.2917 23.9394 19.2919 23.9166 19.2854 23.8953C19.279 23.874 19.2661 23.8552 19.2485 23.8414C18.9369 23.4459 18.7836 22.9481 18.8188 22.4454C18.8848 21.9224 19.1323 21.4393 19.5178 21.0806C19.9964 20.6209 20.5664 20.2673 21.1903 20.0427C21.9282 19.7554 22.7048 19.5805 23.4945 19.5237L23.8569 19.4822H23.8931L23.422 20.3748C22.9124 20.4305 22.4125 20.5545 21.9359 20.7433C21.5308 20.9008 21.1599 21.1351 20.8434 21.4334C20.5844 21.6693 20.4038 21.979 20.3255 22.3208C20.2655 22.6414 20.3225 22.9729 20.486 23.2549L22.9093 21.8538L23.743 22.3363L22.7074 22.9488L21.2006 23.8206C21.1488 23.8465 21.1022 23.9296 21.1333 23.9503L21.8012 24.3343C21.8354 24.3419 21.8708 24.3419 21.9048 24.3343C21.939 24.3421 21.9743 24.3421 22.0084 24.3343L24.5973 22.8242L25.4362 23.312L23.0336 24.7028C23.5614 24.7973 24.0987 24.8269 24.6336 24.791C25.1622 24.7624 25.6846 24.663 26.187 24.4953C26.618 24.3585 27.0213 24.1459 27.3779 23.8673C27.668 23.6492 27.8891 23.3518 28.0148 23.011L29.5682 22.7308C29.5682 22.7308 28.8433 25.3045 24.9649 25.7354Z" fill="#1D1D1B"/>
</svg>
