<svg width="40" height="40" viewBox="0 0 40 40" fill="none" xmlns="http://www.w3.org/2000/svg">
<path d="M35.4238 10.571C35.6193 10.6858 35.7401 10.9259 35.741 11.2678L35.7868 27.5209C35.7884 28.2136 35.296 29.063 34.6902 29.413L20.4686 37.6245C20.1443 37.8119 19.8515 37.8176 19.6496 37.6768C19.6609 37.6848 19.6721 37.6937 19.6842 37.7009L5.26691 29.4121C5.07061 29.2978 4.94833 29.0557 4.94753 28.713L4.90168 12.4608C4.90007 11.7673 5.39161 10.9185 5.99818 10.5678L20.2199 2.35639C20.5264 2.18021 20.804 2.16332 21.0043 2.27997L35.4216 10.5695L35.4238 10.571Z" fill="#D5C8FB" stroke="#1D1D1B" stroke-width="0.8" stroke-miterlimit="10"/>
<path d="M34.6481 10.6442C35.2533 10.2947 35.7484 10.5736 35.75 11.2652L35.7958 27.4927C35.7975 28.1843 35.3063 29.0326 34.7004 29.3819L20.4935 37.5809C19.8875 37.9303 19.3924 37.6516 19.3908 36.96L19.345 20.7324C19.3434 20.0408 19.8344 19.1926 20.4404 18.8431L34.6481 10.6442Z" fill="white" stroke="#1D1D1B" stroke-width="0.8" stroke-miterlimit="10"/>
<path d="M19.3457 20.7305L5.00953 12.3585C5.00792 11.6669 5.4814 10.8542 6.08738 10.5049L20.4404 18.8413C19.8352 19.1907 19.3434 20.0389 19.3457 20.7305Z" fill="white" stroke="#1D1D1B" stroke-width="0.8" stroke-miterlimit="10"/>
<path d="M32.8228 14.4411C33.1342 14.2617 33.4051 14.3078 33.5406 14.5246C33.6098 14.6075 33.6502 14.7306 33.651 14.8869L33.684 26.4684C33.6848 26.6247 33.6444 26.7946 33.5753 26.9575C33.4412 27.3292 33.1716 27.6872 32.861 27.8666L22.7207 33.7182C22.2753 33.9753 21.912 33.7707 21.9106 33.2622L21.8782 21.6808C21.8767 21.1722 22.2378 20.5498 22.6833 20.2926L32.8228 14.4411Z" stroke="#1D1D1B" stroke-width="0.8" stroke-miterlimit="10"/>
<mask id="mask0_1_446" style="mask-type:alpha" maskUnits="userSpaceOnUse" x="21" y="14" width="13" height="20">
<path d="M32.8223 14.4427C33.1337 14.2634 33.4046 14.3095 33.5401 14.5264C33.6094 14.6092 33.6497 14.7324 33.6505 14.8887L33.6835 26.4701C33.6843 26.6264 33.6439 26.7964 33.5748 26.9592C33.4407 27.3309 33.1712 27.6889 32.8605 27.8683L22.7202 33.7198C22.2748 33.977 21.9115 33.7724 21.9101 33.2639L21.8777 21.6825C21.8762 21.1739 22.2373 20.5515 22.6828 20.2944L32.8223 14.4427Z" fill="#C4C4C4"/>
</mask>
<g mask="url(#mask0_1_446)">
<path d="M26.1614 25.6914L19.8464 21.7007C19.719 21.6202 19.727 21.4319 19.8607 21.3626L23.4805 19.4851L29.7481 23.4243C29.8747 23.5038 29.8685 23.6903 29.737 23.7613L26.1614 25.6914Z" fill="#EFE9FE"/>
<path d="M26.1614 25.6914L19.8464 21.7007C19.719 21.6202 19.727 21.4319 19.8607 21.3626L23.4805 19.4851L29.7481 23.4243C29.8747 23.5038 29.8685 23.6903 29.737 23.7613L26.1614 25.6914Z" stroke="#1D1D1B" stroke-width="0.8" stroke-linecap="round" stroke-linejoin="round"/>
<path d="M26.1544 25.8367L19.6564 21.4739L19.5534 24.0728L26.0514 28.4357L29.7806 26.2934L29.8836 23.6945L26.1544 25.8367Z" fill="#EFE9FE" stroke="#1D1D1B" stroke-width="0.8" stroke-linejoin="round"/>
<path d="M22.2764 27.7683L15.9613 23.7776C15.8339 23.6971 15.842 23.5088 15.9757 23.4395L19.5955 21.562L25.8631 25.5012C25.9896 25.5807 25.9835 25.7672 25.852 25.8382L22.2764 27.7683Z" fill="#EFE9FE"/>
<path d="M22.2764 27.7683L15.9613 23.7776C15.8339 23.6971 15.842 23.5088 15.9757 23.4395L19.5955 21.562L25.8631 25.5012C25.9896 25.5807 25.9835 25.7672 25.852 25.8382L22.2764 27.7683Z" stroke="#1D1D1B" stroke-width="0.8" stroke-linecap="round" stroke-linejoin="round"/>
<path d="M22.2694 27.9136L15.7714 23.5508L15.6683 26.1497L22.1663 30.5126L25.8956 28.3703L25.9986 25.7714L22.2694 27.9136Z" fill="#EFE9FE" stroke="#1D1D1B" stroke-width="0.8" stroke-linejoin="round"/>
</g>
<path d="M32.8228 14.4411C33.1342 14.2617 33.4051 14.3078 33.5406 14.5246C33.6098 14.6075 33.6502 14.7306 33.651 14.8869L33.684 26.4684C33.6848 26.6247 33.6444 26.7946 33.5753 26.9575C33.4412 27.3292 33.1716 27.6872 32.861 27.8666L22.7207 33.7182C22.2753 33.9753 21.912 33.7707 21.9106 33.2622L21.8782 21.6808C21.8767 21.1722 22.2378 20.5498 22.6833 20.2926L32.8228 14.4411Z" stroke="#1D1D1B" stroke-width="0.8" stroke-miterlimit="10"/>
<path d="M32.3838 14.8076C32.4653 14.8076 33.4599 15.061 33.8753 15.1677C33.9516 15.1873 33.9786 15.2803 33.9188 15.3316C32.8684 16.2319 26.1264 22.0091 25.9256 22.1248L24.7818 23.2272C24.7277 23.2792 24.6376 23.2534 24.6193 23.1806L24.3251 22.0034C24.2829 21.8345 24.3468 21.6478 24.4807 21.5365C25.7976 20.4407 32.2899 14.8076 32.3838 14.8076Z" fill="#1D1D1B"/>
<path d="M32.3838 14.8076C32.4653 14.8076 33.4599 15.061 33.8753 15.1677C33.9516 15.1873 33.9786 15.2803 33.9188 15.3316C32.8684 16.2319 26.1264 22.0091 25.9256 22.1248L24.7818 23.2272C24.7277 23.2792 24.6376 23.2534 24.6193 23.1806L24.3251 22.0034C24.2829 21.8345 24.3468 21.6478 24.4807 21.5365C25.7976 20.4407 32.2899 14.8076 32.3838 14.8076Z" stroke="#1D1D1B" stroke-width="0.8" stroke-miterlimit="10"/>
<path d="M25.9257 35.1551C25.9257 35.3147 25.7445 35.4068 25.6155 35.3128L24.334 34.3779C24.2837 34.3413 24.254 34.2827 24.2539 34.2204L24.2512 21.9521C24.2512 21.8042 24.4093 21.71 24.5392 21.7804L25.8234 22.4755C25.8863 22.5096 25.9257 22.5755 25.9257 22.6471V35.1551Z" fill="#1D1D1B" stroke="#1D1D1B" stroke-width="0.8" stroke-miterlimit="10" stroke-linejoin="round"/>
<path d="M34.5622 20.036C34.3974 20.036 34.2633 19.8679 34.2633 19.6601V17.3051C34.2633 17.0973 34.3968 16.9292 34.5622 16.9292C34.7272 16.9292 34.8613 17.0973 34.8613 17.3051V19.6601C34.8613 19.8679 34.7272 20.036 34.5622 20.036Z" fill="white" stroke="#1D1D1B" stroke-width="0.8" stroke-miterlimit="10"/>
<path d="M34.5622 26.0069C34.3974 26.0069 34.2633 25.8388 34.2633 25.631V23.276C34.2633 23.0681 34.3968 22.9001 34.5622 22.9001C34.7272 22.9001 34.8613 23.0681 34.8613 23.276V25.631C34.8613 25.8388 34.7272 26.0069 34.5622 26.0069Z" fill="white" stroke="#1D1D1B" stroke-width="0.8" stroke-miterlimit="10"/>
<path d="M33.9001 15.3455C34.1383 15.1718 34.3458 15.2165 34.4495 15.4264C34.5024 15.5066 34.5333 15.6259 34.5339 15.7772L34.5592 26.9888C34.5598 27.1401 34.5289 27.3047 34.4759 27.4623C34.3734 27.8222 34.167 28.1687 33.9293 28.3424L26.336 35.4702C25.9951 35.7191 25.7171 35.5211 25.716 35.0287L25.7161 23.4685C25.7149 22.9761 25.9913 22.3736 26.3322 22.1247L33.9001 15.3455Z" fill="#D5C8FB" stroke="#1D1D1B" stroke-width="0.8" stroke-miterlimit="10"/>
<path d="M32.4522 22.6946C32.3092 22.6485 32.1479 22.6473 31.9742 22.6982C31.8867 22.7238 31.7955 22.7626 31.7015 22.8148C31.639 22.8499 31.5757 22.89 31.5114 22.9373C30.6281 23.5818 30.3192 25.3138 30.3221 26.5968C30.3221 26.6295 30.323 26.6635 30.324 26.6951C30.324 26.7157 30.325 26.7364 30.3269 26.7569C30.3278 26.78 30.3288 26.8031 30.3307 26.8261C30.3327 26.8577 30.3355 26.8881 30.3394 26.9184C30.3394 26.9245 30.3403 26.9293 30.3413 26.9341C30.3442 26.9657 30.349 26.9961 30.3528 27.0251C30.3778 27.1879 30.4172 27.3311 30.468 27.4561C30.4945 27.5183 30.5877 27.5695 30.7008 27.6151C30.8019 27.6558 30.7913 27.6816 30.6875 27.6485L29.6441 27.3153C29.3571 27.1041 29.1795 26.6562 29.1776 26.019C29.1747 24.7361 29.4914 23.1752 30.3738 22.5307C30.8183 22.2066 31.3755 22.3222 31.5114 22.3899C31.7015 22.4488 32.4522 22.6488 32.4522 22.6946Z" fill="#1D1D1B"/>
<path d="M32.4522 22.6946C32.3092 22.6485 32.1479 22.6473 31.9742 22.6982C31.8867 22.7238 31.7955 22.7626 31.7015 22.8148C31.639 22.8499 31.5757 22.89 31.5114 22.9373C30.6281 23.5818 30.3192 25.3138 30.3221 26.5968C30.3221 26.6295 30.323 26.6635 30.324 26.6951C30.324 26.7157 30.325 26.7364 30.3269 26.7569C30.3278 26.78 30.3288 26.8031 30.3307 26.8261C30.3327 26.8577 30.3355 26.8881 30.3394 26.9184C30.3394 26.9245 30.3403 26.9293 30.3413 26.9341C30.3442 26.9657 30.349 26.9961 30.3528 27.0251C30.3778 27.1879 30.4172 27.3311 30.468 27.4561C30.4945 27.5183 30.5877 27.5695 30.7008 27.6151C30.8019 27.6558 30.7913 27.6816 30.6875 27.6485L29.6441 27.3153C29.3571 27.1041 29.1795 26.6562 29.1776 26.019C29.1747 24.7361 29.4914 23.1752 30.3738 22.5307C30.8183 22.2066 31.3755 22.3222 31.5114 22.3899C31.7015 22.4488 32.4522 22.6488 32.4522 22.6946Z" stroke="#1D1D1B" stroke-width="0.8" stroke-miterlimit="10"/>
<path d="M32.871 24.0573C32.8732 25.3403 32.3211 26.9023 31.6374 27.5468C31.2867 27.877 30.9701 27.9024 30.7441 27.6742C30.7248 27.6548 30.7063 27.633 30.6884 27.6099C30.6788 27.5978 30.6698 27.5856 30.6617 27.5735C30.6512 27.5577 30.6408 27.5419 30.6305 27.525C30.6155 27.5007 30.6022 27.4752 30.5888 27.4485L30.5873 27.4461C30.5814 27.4339 30.5754 27.4206 30.5695 27.4072C30.5539 27.3732 30.5397 27.3369 30.5264 27.298C30.5204 27.2834 30.5152 27.2677 30.5101 27.2507C30.4707 27.1256 30.4402 26.9824 30.4209 26.8198C30.4179 26.7907 30.4142 26.7604 30.4119 26.7288C30.4112 26.7239 30.4105 26.7191 30.4105 26.713C30.4075 26.6826 30.406 26.6523 30.4037 26.6208C30.4023 26.5976 30.4016 26.5746 30.4008 26.5516C30.3993 26.5309 30.3986 26.5103 30.3986 26.4896C30.3979 26.4581 30.3971 26.4241 30.3971 26.3914C30.3949 25.1085 30.9463 23.5476 31.63 22.9031C31.6797 22.8558 31.7288 22.8157 31.7771 22.7805C31.8499 22.7283 31.9205 22.6894 31.9881 22.664C32.1227 22.613 32.2475 22.6142 32.3583 22.6604C32.3716 22.6664 32.385 22.6725 32.3984 22.6798C32.414 22.6883 32.4288 22.6979 32.443 22.7077C32.4534 22.7149 32.4645 22.7222 32.4742 22.7307C32.4808 22.7356 32.4875 22.7405 32.4935 22.7465C32.498 22.7501 32.5024 22.755 32.5069 22.7586C32.7312 22.9687 32.8703 23.4177 32.871 24.0573Z" fill="#EFE9FE" stroke="#1D1D1B" stroke-width="0.8" stroke-miterlimit="10"/>
<path d="M31.9744 24.886V22.7344" stroke="#1D1D1B" stroke-width="0.8" stroke-linejoin="round"/>
</svg>
