<svg width="21" height="37" viewBox="0 0 21 37" fill="none" xmlns="http://www.w3.org/2000/svg">
<path d="M1.08768 35.0122L1.08759 7.98912C1.08759 7.8499 1.16173 7.72128 1.28212 7.65148L12.2393 1.30026C12.2541 1.29165 12.271 1.28711 12.2882 1.28711H12.6298C12.6968 1.28711 12.7568 1.31708 12.791 1.37457C14.1998 3.74169 16.4745 12.8519 17.3349 16.0943C17.4149 16.3959 17.3469 16.7134 17.1518 16.9569L2.26427 35.532C2.20749 35.6029 2.10944 35.6252 2.02768 35.586L1.19841 35.1881C1.13071 35.1558 1.08768 35.0874 1.08768 35.0122Z" fill="#1D1D1B"/>
<path d="M1.08768 35.0122L1.08759 7.98912C1.08759 7.8499 1.16173 7.72128 1.28212 7.65148L12.2393 1.30026C12.2541 1.29165 12.271 1.28711 12.2882 1.28711H12.6298C12.6968 1.28711 12.7568 1.31708 12.791 1.37457C14.1998 3.74169 16.4745 12.8519 17.3349 16.0943C17.4149 16.3958 17.3469 16.7134 17.1518 16.9569L2.26427 35.532C2.20749 35.6029 2.10944 35.6252 2.02768 35.586L1.19841 35.1881C1.13071 35.1558 1.08768 35.0874 1.08768 35.0122Z" stroke="#1D1D1B"/>
<path d="M2.16614 7.8713C2.16614 7.76349 2.24184 7.63247 2.33511 7.57859L12.7569 1.56161C12.8017 1.53573 12.8447 1.53147 12.8763 1.54977L19.5615 5.40941C19.5931 5.42771 19.6109 5.46828 19.6109 5.52002C19.6109 13.1486 19.6109 16.6423 19.6109 25.3835C19.6109 25.4913 19.5352 25.6252 19.4419 25.679L2.33511 35.5556C2.24184 35.6095 2.16614 35.5658 2.16614 35.458V7.8713Z" fill="#D5C8FB" stroke="#1D1D1B"/>
<path d="M19.3211 5.27167L13.1139 1.68798C13.0075 1.62652 12.8254 1.81866 12.8254 1.9925V9.15989C12.8254 9.2676 12.901 9.31131 12.9944 9.25745L19.2015 5.67375C19.3521 5.58683 19.4275 5.33313 19.3211 5.27167Z" fill="#EFE9FE" stroke="#1D1D1B"/>
<path d="M11.9736 9.35585C11.9736 9.62521 12.1921 9.84365 12.4614 9.84365C12.7309 9.84365 12.9492 9.62521 12.9492 9.35585H11.9736ZM11.9736 2.08179V9.35585H12.9492V2.08179H11.9736Z" fill="#1D1D1B"/>
<path d="M16.7144 11.9811L5.52356 18.4421L5.52356 28.4541L16.7144 21.9931L16.7144 11.9811Z" fill="white" stroke="#1D1D1B" stroke-linejoin="round"/>
<path d="M14.4705 15.1648C14.5117 15.1671 14.5287 15.2181 14.5045 15.2786C13.921 16.8137 13.4003 18.1115 12.9354 19.2084C13.0105 19.436 13.0759 19.6685 13.1316 19.8888C13.2308 20.3029 13.2937 20.683 13.2937 20.9736C13.2937 21.1213 13.2816 21.2448 13.2332 21.3634C13.2138 21.4046 13.1921 21.4458 13.1582 21.4821C13.1339 21.5087 13.1073 21.533 13.0831 21.5451C12.9983 21.591 12.9354 21.5765 12.8651 21.5475C12.795 21.516 12.7199 21.4627 12.64 21.3901C12.5068 21.269 12.3543 21.102 12.1872 20.901C11.4511 22.499 10.8845 23.4943 10.4366 24.0996C10.1581 24.4749 9.9232 24.7026 9.71744 24.8236C9.63754 24.8696 9.56485 24.8987 9.49705 24.9107C9.30095 24.9495 9.13871 24.8745 9.00554 24.7219C8.86993 24.5694 8.76339 24.3393 8.67617 24.0585C8.50671 23.4943 8.42437 22.7194 8.42193 21.9204C8.41959 21.3853 8.45344 20.8404 8.52612 20.3417C8.59627 19.8404 8.70524 19.3852 8.85295 19.0244C8.95227 18.7823 9.0709 18.5765 9.22349 18.4336C9.27188 18.39 9.32027 18.3537 9.36876 18.3246C9.50915 18.2424 9.64964 18.2254 9.79246 18.2471C9.93295 18.2713 10.0782 18.3344 10.2259 18.4239C10.5116 18.6007 10.8094 18.8912 11.1073 19.2182C11.1485 18.8331 11.1993 18.4942 11.2622 18.2157C11.3155 17.9857 11.3761 17.7968 11.4608 17.6442C11.5092 17.5571 11.5697 17.4796 11.6375 17.4287L11.6715 17.4045C11.7514 17.3609 11.8264 17.3586 11.8967 17.3779C11.9645 17.4021 12.0323 17.4481 12.0976 17.511C12.2308 17.6394 12.364 17.8427 12.4898 18.0947C12.6254 18.3586 12.7563 18.6757 12.8725 19.0051C13.3156 17.9517 13.8095 16.7169 14.3592 15.2689C14.3737 15.2277 14.4028 15.1938 14.4342 15.1769L14.4705 15.1648ZM11.2937 22.4168C11.5334 21.9616 11.7973 21.4191 12.088 20.7848C11.8168 20.453 11.5238 20.0729 11.2211 19.7146C11.1896 20.1262 11.1678 20.5765 11.1532 21.0438C11.1509 21.0995 11.1145 21.16 11.0661 21.1891C11.0176 21.2157 10.9789 21.1915 10.9813 21.1358C11.0008 20.5668 11.0274 20.0268 11.071 19.5426C10.945 19.3973 10.8191 19.2593 10.6908 19.1334C10.3712 18.8113 10.054 18.5643 9.77793 18.4893C9.62056 18.4457 9.47773 18.4602 9.36388 18.5256C9.33237 18.545 9.30095 18.5667 9.26944 18.5958C9.175 18.683 9.08056 18.8355 8.99344 19.0462C8.90622 19.2569 8.83119 19.5208 8.77061 19.8162C8.64954 20.407 8.58661 21.1237 8.58905 21.826C8.59149 22.4144 8.63744 22.9882 8.72944 23.4676C8.82388 23.947 8.96437 24.3297 9.14359 24.5354C9.26456 24.671 9.40017 24.7292 9.54554 24.7001C9.59637 24.688 9.65207 24.6662 9.71256 24.6323C9.87725 24.5379 10.0807 24.3466 10.3372 23.9979C10.6036 23.642 10.9184 23.1335 11.2937 22.4168ZM11.2501 19.3852C11.5843 19.7726 11.9088 20.194 12.1969 20.5499C12.3712 20.1649 12.5553 19.7435 12.749 19.2883C12.6086 18.8646 12.439 18.4578 12.2671 18.1503C12.1218 17.8839 11.9692 17.6903 11.8385 17.62C11.7683 17.5788 11.7053 17.5813 11.6715 17.6006L11.657 17.6104C11.6375 17.6249 11.6109 17.6515 11.5818 17.7072C11.5504 17.7605 11.5189 17.838 11.4874 17.9324C11.4269 18.1236 11.3736 18.3876 11.3276 18.6999C11.2985 18.9082 11.2719 19.1383 11.2501 19.3852ZM13.1218 21.0729C13.1218 20.7315 13.0177 20.194 12.8604 19.6491C12.8458 19.5983 12.8289 19.545 12.8143 19.4942C12.6328 19.9179 12.4609 20.3077 12.2962 20.6709C12.456 20.8647 12.6037 21.0317 12.7296 21.1528C12.8458 21.2618 12.945 21.332 13.0177 21.3489C13.0516 21.3586 13.0759 21.3538 13.0831 21.3489L13.088 21.3368C13.0928 21.3271 13.0976 21.3077 13.1025 21.2835C13.1146 21.2351 13.1218 21.16 13.1218 21.0729Z" fill="#1D1D1B" stroke="#1D1D1B" stroke-width="0.2"/>
</svg>
