<svg width="28" height="36" viewBox="0 0 28 36" fill="none" xmlns="http://www.w3.org/2000/svg">
<path d="M25.0862 2.21575L26.7659 3.22359C26.8248 3.25886 26.8607 3.32237 26.8607 3.39091V5.07956C26.8607 5.14997 26.8228 5.21492 26.7615 5.2495L3.64614 18.289C3.5838 18.3241 3.50731 18.3223 3.44663 18.2844L0.854979 16.6611C0.798013 16.6255 0.763428 16.5629 0.763428 16.4957V15.2088C0.763428 15.1645 0.778511 15.1215 0.806189 15.0869L12.0148 1.07615C12.0558 1.02488 12.1199 0.997677 12.1853 1.00377L25.0451 2.20226C25.0597 2.20362 25.0737 2.20822 25.0862 2.21575Z" fill="#1D1D1B"/>
<path d="M25.0862 2.21575L26.7659 3.22359C26.8248 3.25886 26.8607 3.32237 26.8607 3.39091V5.07956C26.8607 5.14997 26.8228 5.21492 26.7615 5.2495L3.64614 18.289C3.5838 18.3241 3.50731 18.3224 3.44663 18.2844L0.854979 16.6611C0.798013 16.6255 0.763428 16.5629 0.763428 16.4957V15.2088C0.763428 15.1645 0.778511 15.1215 0.806189 15.0869L12.0148 1.07615C12.0558 1.02488 12.1199 0.997677 12.1853 1.00377L25.0451 2.20226C25.0597 2.20362 25.0738 2.20822 25.0862 2.21575Z" stroke="#1D1D1B" stroke-width="0.8" stroke-linejoin="round"/>
<path d="M1.5554 29.7235C1.22877 29.5349 1.22877 29.2291 1.5554 29.0406L22.3069 17.0597C22.4002 17.0058 22.5515 17.0058 22.6449 17.0597L26.3997 19.2276C26.7263 19.4162 26.7263 19.7219 26.3997 19.9105L5.64818 31.8913C5.55481 31.9452 5.4036 31.9452 5.31023 31.8913L1.5554 29.7235Z" fill="#D5C8FB"/>
<path d="M1.5554 29.7235C1.22877 29.5349 1.22877 29.2291 1.5554 29.0406L22.3069 17.0597C22.4002 17.0058 22.5515 17.0058 22.6449 17.0597L26.3997 19.2276C26.7263 19.4162 26.7263 19.7219 26.3997 19.9105L5.64818 31.8913C5.55482 31.9452 5.4036 31.9452 5.31023 31.8913L1.5554 29.7235Z" stroke="#1D1D1B" stroke-width="0.8" stroke-linejoin="round"/>
<path fill-rule="evenodd" clip-rule="evenodd" d="M23.8563 19.7573C23.8602 19.7552 23.8642 19.7529 23.868 19.7507C23.868 19.7507 23.8677 19.7182 23.8673 19.6637C23.8687 19.6364 23.8685 19.6091 23.8668 19.5818C23.8651 19.3318 23.8629 18.87 23.868 18.6548C23.8756 18.3401 23.6716 18.0242 23.2559 17.7842C22.4393 17.3128 21.1155 17.3128 20.2991 17.7842C19.8833 18.0242 19.6792 18.3401 19.6869 18.6548C19.692 18.87 19.6899 19.3318 19.6881 19.5818C19.6864 19.6091 19.6862 19.6364 19.6875 19.6637C19.6872 19.7182 19.6869 19.7507 19.6869 19.7507C19.6908 19.7529 19.6947 19.7552 19.6987 19.7573C19.7477 20.0218 19.9479 20.2787 20.2991 20.4814C21.1155 20.9528 22.4393 20.9528 23.2559 20.4814C23.6071 20.2787 23.8072 20.0218 23.8563 19.7573Z" fill="#D5C8FB"/>
<path fill-rule="evenodd" clip-rule="evenodd" d="M23.868 19.7479C23.876 20.0629 23.672 20.3792 23.2559 20.6194C22.4394 21.0909 21.1156 21.0909 20.2991 20.6194C19.8829 20.3792 19.6789 20.0629 19.6869 19.7479C19.6874 19.6975 19.6939 18.9477 19.6869 18.6548C19.6793 18.3401 19.8834 18.0242 20.2991 17.7842C21.1156 17.3128 22.4394 17.3128 23.2559 17.7842C23.6717 18.0242 23.8757 18.3401 23.868 18.6548C23.861 18.9477 23.8677 19.6975 23.868 19.7479Z" fill="#EFE9FE"/>
<mask id="mask0_1_501" style="mask-type:luminance" maskUnits="userSpaceOnUse" x="18" y="16" width="8" height="7">
<path d="M25.5403 16.4551H18.7111V22.3087H25.5403V16.4551Z" fill="white"/>
<path fill-rule="evenodd" clip-rule="evenodd" d="M23.868 19.7479C23.876 20.0629 23.672 20.3792 23.2559 20.6194C22.4394 21.0909 21.1156 21.0909 20.2991 20.6194C19.8829 20.3792 19.6789 20.0629 19.6869 19.7479C19.6874 19.6975 19.6939 18.9477 19.6869 18.6548C19.6793 18.3401 19.8834 18.0242 20.2991 17.7842C21.1156 17.3128 22.4394 17.3128 23.2559 17.7842C23.6717 18.0242 23.8757 18.3401 23.868 18.6548C23.861 18.9477 23.8677 19.6975 23.868 19.7479Z" fill="black"/>
</mask>
<g mask="url(#mask0_1_501)">
<path d="M23.868 19.7479H23.0876V19.7579L23.0878 19.7678L23.868 19.7479ZM19.6869 19.7479L20.4672 19.7678L20.4674 19.7549L19.6869 19.7479ZM23.868 19.7479H24.6486L24.6485 19.7409L23.868 19.7479ZM23.0878 19.7678C23.0872 19.7423 23.0976 19.7409 23.0778 19.7696C23.0551 19.8026 22.9958 19.8683 22.8657 19.9434L23.6462 21.2953C24.2071 20.9714 24.6662 20.4305 24.6483 19.7281L23.0878 19.7678ZM22.8657 19.9434C22.6039 20.0945 22.2118 20.1925 21.7775 20.1925C21.3431 20.1925 20.951 20.0945 20.6893 19.9434L19.9088 21.2953C20.4637 21.6156 21.1417 21.7535 21.7775 21.7535C22.4132 21.7535 23.0914 21.6156 23.6462 21.2953L22.8657 19.9434ZM20.6893 19.9434C20.5591 19.8683 20.4998 19.8026 20.4771 19.7696C20.4574 19.7409 20.4678 19.7423 20.4672 19.7678L18.9067 19.728C18.8887 20.4305 19.3478 20.9714 19.9088 21.2953L20.6893 19.9434ZM20.4674 19.7549C20.4678 19.7113 20.4746 18.9452 20.4671 18.6359L18.9066 18.6735C18.9132 18.9502 18.907 19.6836 18.9064 19.7409L20.4674 19.7549ZM20.4671 18.6359C20.4678 18.6614 20.4574 18.6627 20.4772 18.6339C20.4999 18.6008 20.5593 18.5352 20.6893 18.4601L19.9088 17.1083C19.3484 17.4318 18.8897 17.9719 18.9066 18.6735L20.4671 18.6359ZM20.6893 18.4601C20.951 18.3091 21.3431 18.2111 21.7775 18.2111C22.2118 18.2111 22.6039 18.3091 22.8657 18.4601L23.6462 17.1083C23.0914 16.788 22.4132 16.6501 21.7775 16.6501C21.1417 16.6501 20.4637 16.788 19.9088 17.1083L20.6893 18.4601ZM22.8657 18.4601C22.9958 18.5352 23.055 18.6008 23.0777 18.6339C23.0976 18.6627 23.0873 18.6614 23.0878 18.6359L24.6483 18.6735C24.6653 17.9719 24.2065 17.4318 23.6462 17.1083L22.8657 18.4601ZM23.0878 18.6359C23.0803 18.9452 23.0873 19.7113 23.0877 19.7549L24.6485 19.7409C24.648 19.6836 24.6417 18.9502 24.6483 18.6735L23.0878 18.6359Z" fill="#1D1D1B"/>
</g>
<path d="M20.5691 8.16431H22.9863V17.8328C22.9863 17.8328 22.9863 18.2356 21.7777 18.2356C20.5691 18.2356 20.5691 17.8328 20.5691 17.8328V8.16431Z" fill="white"/>
<path d="M20.5691 7.77417H20.1788V8.16441V17.8329H20.5691C20.1788 17.8329 20.1788 17.8341 20.1788 17.8341V17.8352V17.8376L20.1789 17.8425L20.1793 17.8529C20.1797 17.8601 20.1802 17.8679 20.1811 17.8762C20.1827 17.8929 20.1855 17.9115 20.1899 17.932C20.1986 17.973 20.2139 18.0201 20.2389 18.0704C20.2904 18.1734 20.376 18.274 20.5037 18.359C20.7487 18.5224 21.1423 18.626 21.7777 18.626C22.413 18.626 22.8066 18.5224 23.0516 18.359C23.1793 18.2739 23.2649 18.1734 23.3164 18.0704C23.3415 18.0201 23.3566 17.973 23.3655 17.9319C23.3698 17.9115 23.3726 17.8928 23.3742 17.8762C23.375 17.8679 23.3756 17.8601 23.3759 17.8529L23.3763 17.8425L23.3764 17.8376V17.8351L23.3765 17.834C23.3765 17.834 23.3765 17.8329 22.9862 17.8329H23.3765V8.16441V7.77417H22.9862H20.5691Z" stroke="#1D1D1B" stroke-width="0.8"/>
<path fill-rule="evenodd" clip-rule="evenodd" d="M23.868 8.4674C23.876 8.78233 23.672 9.09862 23.2559 9.33892C22.4394 9.81033 21.1156 9.81033 20.2991 9.33892C19.8829 9.09862 19.6789 8.78233 19.6869 8.4674C19.6874 8.41697 19.6939 7.66721 19.6869 7.37423C19.6793 7.0596 19.8834 6.74372 20.2991 6.50371C21.1156 6.03229 22.4394 6.03229 23.2559 6.50371C23.6717 6.74372 23.8757 7.0596 23.868 7.37423C23.861 7.66721 23.8677 8.41697 23.868 8.4674Z" fill="#EFE9FE"/>
<mask id="mask1_1_501" style="mask-type:luminance" maskUnits="userSpaceOnUse" x="18" y="5" width="8" height="7">
<path d="M25.5403 5.17456H18.7111V11.0282H25.5403V5.17456Z" fill="white"/>
<path fill-rule="evenodd" clip-rule="evenodd" d="M23.868 8.4674C23.876 8.78233 23.672 9.09862 23.2559 9.33892C22.4394 9.81033 21.1156 9.81033 20.2991 9.33892C19.8829 9.09862 19.6789 8.78233 19.6869 8.4674C19.6874 8.41697 19.6939 7.66721 19.6869 7.37423C19.6793 7.0596 19.8834 6.74372 20.2991 6.50371C21.1156 6.03229 22.4394 6.03229 23.2559 6.50371C23.6717 6.74372 23.8757 7.0596 23.868 7.37423C23.861 7.66721 23.8677 8.41697 23.868 8.4674Z" fill="black"/>
</mask>
<g mask="url(#mask1_1_501)">
<path d="M23.868 8.46738H23.0876V8.47733L23.0878 8.48728L23.868 8.46738ZM19.6869 8.46738L20.4672 8.48728L20.4674 8.4744L19.6869 8.46738ZM23.868 8.46738H24.6486L24.6485 8.46035L23.868 8.46738ZM23.0878 8.48728C23.0872 8.46181 23.0976 8.46035 23.0778 8.48903C23.0551 8.52211 22.9958 8.58777 22.8657 8.66289L23.6462 10.0148C24.2071 9.69089 24.6662 9.15001 24.6483 8.44757L23.0878 8.48728ZM22.8657 8.66289C22.6039 8.81401 22.2118 8.91196 21.7775 8.91196C21.3431 8.91196 20.951 8.81401 20.6893 8.66289L19.9088 10.0148C20.4637 10.3351 21.1417 10.4729 21.7775 10.4729C22.4132 10.4729 23.0914 10.3351 23.6462 10.0148L22.8657 8.66289ZM20.6893 8.66289C20.5591 8.58777 20.4998 8.52211 20.4771 8.48903C20.4574 8.46035 20.4678 8.46181 20.4672 8.48728L18.9067 8.44747C18.8887 9.15001 19.3478 9.69089 19.9088 10.0148L20.6893 8.66289ZM20.4674 8.4744C20.4678 8.43079 20.4746 7.66464 20.4671 7.35538L18.9066 7.39294C18.9132 7.66972 18.907 8.40308 18.9064 8.46035L20.4674 8.4744ZM20.4671 7.35538C20.4678 7.38084 20.4574 7.3822 20.4772 7.35333C20.4999 7.32025 20.5593 7.25469 20.6893 7.17957L19.9088 5.82776C19.3484 6.15129 18.8897 6.69135 18.9066 7.39294L20.4671 7.35538ZM20.6893 7.17957C20.951 7.02855 21.3431 6.93059 21.7775 6.93059C22.2118 6.93059 22.6039 7.02855 22.8657 7.17957L23.6462 5.82776C23.0914 5.50742 22.4132 5.36963 21.7775 5.36963C21.1417 5.36963 20.4637 5.50742 19.9088 5.82776L20.6893 7.17957ZM22.8657 7.17957C22.9958 7.25469 23.055 7.32025 23.0777 7.35333C23.0976 7.3822 23.0873 7.38084 23.0878 7.35538L24.6483 7.39294C24.6653 6.69135 24.2065 6.15129 23.6462 5.82776L22.8657 7.17957ZM23.0878 7.35538C23.0803 7.66464 23.0873 8.43079 23.0877 8.4744L24.6485 8.46035C24.648 8.40308 24.6417 7.66972 24.6483 7.39294L23.0878 7.35538Z" fill="#1D1D1B"/>
</g>
<path fill-rule="evenodd" clip-rule="evenodd" d="M16.6824 23.9419C16.6864 23.9396 16.6903 23.9374 16.6942 23.9351C16.6942 23.9351 16.6939 23.9026 16.6934 23.8483C16.6949 23.821 16.6947 23.7936 16.6928 23.7663C16.6912 23.5164 16.689 23.0546 16.6942 22.8392C16.7017 22.5247 16.4977 22.2088 16.082 21.9688C15.2655 21.4974 13.9416 21.4974 13.1251 21.9688C12.7094 22.2088 12.5053 22.5247 12.5129 22.8392C12.5181 23.0546 12.5159 23.5164 12.5142 23.7663C12.5124 23.7936 12.5122 23.821 12.5136 23.8483C12.5132 23.9026 12.5129 23.9351 12.5129 23.9351C12.5168 23.9374 12.5207 23.9396 12.5247 23.9419C12.5739 24.2064 12.774 24.4632 13.1251 24.666C13.9416 25.1374 15.2655 25.1374 16.082 24.666C16.4331 24.4632 16.6332 24.2064 16.6824 23.9419Z" fill="#D5C8FB"/>
<path fill-rule="evenodd" clip-rule="evenodd" d="M12.5129 23.9325C12.5134 23.8821 12.5199 23.1322 12.5129 22.8392C12.5053 22.5247 12.7094 22.2088 13.1251 21.9688C13.9416 21.4974 15.2655 21.4974 16.082 21.9688C16.4977 22.2088 16.7017 22.5247 16.6942 22.8392C16.6871 23.1322 16.6937 23.8821 16.6942 23.9325C16.7022 24.2473 16.4981 24.5637 16.082 24.8039C15.2655 25.2753 13.9416 25.2753 13.1251 24.8039C12.7089 24.5637 12.5049 24.2473 12.5129 23.9325Z" fill="#EFE9FE"/>
<mask id="mask2_1_501" style="mask-type:luminance" maskUnits="userSpaceOnUse" x="11" y="20" width="8" height="7">
<path d="M18.3664 20.6396H11.5371V26.4933H18.3664V20.6396Z" fill="white"/>
<path fill-rule="evenodd" clip-rule="evenodd" d="M12.5129 23.9325C12.5134 23.8821 12.5199 23.1322 12.5129 22.8392C12.5053 22.5247 12.7094 22.2088 13.1251 21.9688C13.9416 21.4974 15.2655 21.4974 16.082 21.9688C16.4977 22.2088 16.7017 22.5247 16.6942 22.8392C16.6871 23.1322 16.6937 23.8821 16.6942 23.9325C16.7022 24.2473 16.4981 24.5637 16.082 24.8039C15.2655 25.2753 13.9416 25.2753 13.1251 24.8039C12.7089 24.5637 12.5049 24.2473 12.5129 23.9325Z" fill="black"/>
</mask>
<g mask="url(#mask2_1_501)">
<path d="M12.5129 23.9325L13.2933 23.9524L13.2934 23.9395L12.5129 23.9325ZM16.6942 23.9325L15.9136 23.9395L15.9139 23.9524L16.6942 23.9325ZM13.2934 23.9395C13.2938 23.8959 13.3006 23.1297 13.2932 22.8204L11.7326 22.858C11.7394 23.1347 11.733 23.8682 11.7325 23.9254L13.2934 23.9395ZM13.2932 22.8204C13.2938 22.8458 13.2835 22.8472 13.3033 22.8184C13.3261 22.7854 13.3853 22.7197 13.5154 22.6447L12.7349 21.2929C12.1745 21.6164 11.7158 22.1564 11.7326 22.858L13.2932 22.8204ZM13.5154 22.6447C13.777 22.4935 14.1691 22.3957 14.6036 22.3957C15.0379 22.3957 15.4301 22.4935 15.6918 22.6447L16.4722 21.2929C15.9174 20.9725 15.2394 20.8347 14.6036 20.8347C13.9678 20.8347 13.2897 20.9725 12.7349 21.2929L13.5154 22.6447ZM15.6918 22.6447C15.8218 22.7197 15.881 22.7854 15.9038 22.8184C15.9237 22.8472 15.9133 22.8458 15.9139 22.8204L17.4744 22.858C17.4914 22.1564 17.0326 21.6164 16.4722 21.2929L15.6918 22.6447ZM15.9139 22.8204C15.9065 23.1297 15.9132 23.8959 15.9136 23.9395L17.4746 23.9254C17.4741 23.8682 17.4678 23.1347 17.4744 22.858L15.9139 22.8204ZM15.9139 23.9524C15.9132 23.9269 15.9237 23.9253 15.9038 23.9541C15.8811 23.9872 15.8219 24.0529 15.6918 24.128L16.4722 25.4799C17.0332 25.156 17.4923 24.6151 17.4744 23.9126L15.9139 23.9524ZM15.6918 24.128C15.4301 24.2791 15.0379 24.377 14.6036 24.377C14.1691 24.377 13.777 24.2791 13.5154 24.128L12.7349 25.4799C13.2897 25.8002 13.9678 25.9379 14.6036 25.9379C15.2394 25.9379 15.9174 25.8002 16.4722 25.4799L15.6918 24.128ZM13.5154 24.128C13.3851 24.0529 13.3259 23.9872 13.3033 23.9541C13.2835 23.9253 13.2939 23.9269 13.2933 23.9524L11.7327 23.9126C11.7148 24.6151 12.1739 25.156 12.7349 25.4799L13.5154 24.128Z" fill="#1D1D1B"/>
</g>
<path d="M13.3949 12.3499H15.812V22.0183C15.812 22.0183 15.812 22.4213 14.6035 22.4213C13.3949 22.4213 13.3949 22.0183 13.3949 22.0183V12.3499Z" fill="white"/>
<path d="M13.3949 11.9595H13.0046V12.3497V22.0182H13.3949C13.0046 22.0182 13.0046 22.0194 13.0046 22.0194V22.0205V22.0229L13.0047 22.0279L13.0051 22.0383C13.0054 22.0455 13.006 22.0533 13.0069 22.0616C13.0085 22.0782 13.0113 22.0969 13.0157 22.1173C13.0244 22.1584 13.0396 22.2055 13.0647 22.2558C13.1162 22.3588 13.2018 22.4593 13.3295 22.5444C13.5745 22.7077 13.9682 22.8114 14.6035 22.8114C15.2388 22.8114 15.6324 22.7077 15.8774 22.5444C16.005 22.4593 16.0907 22.3587 16.1422 22.2557C16.1673 22.2054 16.1824 22.1583 16.1912 22.1173C16.1956 22.0968 16.1983 22.0782 16.2001 22.0615C16.2008 22.0532 16.2014 22.0454 16.2017 22.0382L16.2021 22.0278L16.2022 22.0229V22.0205V22.0194C16.2022 22.0194 16.2022 22.0182 15.812 22.0182H16.2022V12.3497V11.9595H15.812H13.3949Z" stroke="#1D1D1B" stroke-width="0.8"/>
<path fill-rule="evenodd" clip-rule="evenodd" d="M12.5129 12.6531C12.5134 12.6025 12.5199 11.8528 12.5129 11.5598C12.5053 11.2453 12.7094 10.9294 13.1251 10.6893C13.9416 10.2178 15.2655 10.2178 16.082 10.6893C16.4977 10.9294 16.7017 11.2453 16.6942 11.5598C16.6871 11.8528 16.6937 12.6026 16.6942 12.6531C16.7022 12.9679 16.4981 13.2842 16.082 13.5245C15.2655 13.9959 13.9416 13.9959 13.1251 13.5245C12.7089 13.2842 12.5049 12.9679 12.5129 12.6531Z" fill="#EFE9FE"/>
<mask id="mask3_1_501" style="mask-type:luminance" maskUnits="userSpaceOnUse" x="11" y="9" width="8" height="7">
<path d="M18.3664 9.36011H11.5371V15.2138H18.3664V9.36011Z" fill="white"/>
<path fill-rule="evenodd" clip-rule="evenodd" d="M12.5129 12.6531C12.5134 12.6025 12.5199 11.8528 12.5129 11.5598C12.5053 11.2453 12.7094 10.9294 13.1251 10.6893C13.9416 10.2178 15.2655 10.2178 16.082 10.6893C16.4977 10.9294 16.7017 11.2453 16.6942 11.5598C16.6871 11.8528 16.6937 12.6026 16.6942 12.6531C16.7022 12.9679 16.4981 13.2842 16.082 13.5245C15.2655 13.9959 13.9416 13.9959 13.1251 13.5245C12.7089 13.2842 12.5049 12.9679 12.5129 12.6531Z" fill="black"/>
</mask>
<g mask="url(#mask3_1_501)">
<path d="M12.5129 12.653L13.2933 12.6729L13.2934 12.6601L12.5129 12.653ZM16.6942 12.653L15.9136 12.6601L15.9139 12.6729L16.6942 12.653ZM13.2934 12.6601C13.2938 12.6163 13.3006 11.8502 13.2932 11.5409L11.7326 11.5786C11.7394 11.8553 11.733 12.5886 11.7325 12.646L13.2934 12.6601ZM13.2932 11.5409C13.2938 11.5664 13.2835 11.5678 13.3033 11.539C13.3261 11.5058 13.3853 11.4402 13.5154 11.3652L12.7349 10.0133C12.1745 10.3369 11.7158 10.8769 11.7326 11.5786L13.2932 11.5409ZM13.5154 11.3652C13.777 11.2141 14.1691 11.1162 14.6036 11.1162C15.0379 11.1162 15.4301 11.2141 15.6918 11.3652L16.4722 10.0133C15.9174 9.69303 15.2394 9.55518 14.6036 9.55518C13.9678 9.55518 13.2897 9.69303 12.7349 10.0133L13.5154 11.3652ZM15.6918 11.3652C15.8218 11.4402 15.881 11.5058 15.9038 11.539C15.9237 11.5678 15.9133 11.5664 15.9139 11.5409L17.4744 11.5786C17.4914 10.8769 17.0326 10.3369 16.4722 10.0133L15.6918 11.3652ZM15.9139 11.5409C15.9065 11.8502 15.9132 12.6164 15.9136 12.6601L17.4746 12.646C17.4741 12.5887 17.4678 11.8553 17.4744 11.5786L15.9139 11.5409ZM15.9139 12.6729C15.9132 12.6474 15.9237 12.6459 15.9038 12.6747C15.8811 12.7078 15.8219 12.7733 15.6918 12.8485L16.4722 14.2003C17.0332 13.8765 17.4923 13.3356 17.4744 12.6331L15.9139 12.6729ZM15.6918 12.8485C15.4301 12.9997 15.0379 13.0975 14.6036 13.0975C14.1691 13.0975 13.777 12.9997 13.5154 12.8485L12.7349 14.2003C13.2897 14.5207 13.9678 14.6585 14.6036 14.6585C15.2394 14.6585 15.9174 14.5207 16.4722 14.2003L15.6918 12.8485ZM13.5154 12.8485C13.3851 12.7733 13.3259 12.7078 13.3033 12.6747C13.2835 12.6459 13.2939 12.6474 13.2933 12.6729L11.7327 12.6331C11.7148 13.3356 12.1739 13.8765 12.7349 14.2003L13.5154 12.8485Z" fill="#1D1D1B"/>
</g>
<path fill-rule="evenodd" clip-rule="evenodd" d="M8.91051 28.3655C8.91451 28.3633 8.91841 28.361 8.92231 28.3588C8.92231 28.3588 8.92202 28.3263 8.92163 28.272C8.923 28.2446 8.9228 28.2172 8.92104 28.1899C8.91929 27.9401 8.91714 27.4782 8.92231 27.2629C8.92992 26.9484 8.72582 26.6325 8.31012 26.3925C7.49363 25.9209 6.16982 25.9209 5.35324 26.3925C4.93753 26.6325 4.73353 26.9484 4.74104 27.2629C4.74631 27.4782 4.74407 27.9401 4.74241 28.1899C4.74056 28.2172 4.74036 28.2446 4.74183 28.272C4.74134 28.3263 4.74104 28.3588 4.74104 28.3588C4.74495 28.361 4.74885 28.3633 4.75285 28.3655C4.80202 28.63 5.00212 28.8869 5.35324 29.0896C6.16982 29.561 7.49363 29.561 8.31012 29.0896C8.66124 28.8869 8.86143 28.63 8.91051 28.3655Z" fill="#D5C8FB"/>
<path fill-rule="evenodd" clip-rule="evenodd" d="M8.922 28.3562C8.9301 28.671 8.726 28.9873 8.3099 29.2276C7.49332 29.699 6.16951 29.699 5.35302 29.2276C4.93683 28.9873 4.73283 28.671 4.74083 28.3562C4.74131 28.3056 4.74785 27.5559 4.74083 27.2629C4.73322 26.9484 4.93731 26.6325 5.35302 26.3925C6.16951 25.9209 7.49332 25.9209 8.3099 26.3925C8.72561 26.6325 8.92961 26.9484 8.9221 27.2629C8.91497 27.5559 8.92161 28.3057 8.922 28.3562Z" fill="#EFE9FE"/>
<mask id="mask4_1_501" style="mask-type:luminance" maskUnits="userSpaceOnUse" x="3" y="25" width="8" height="6">
<path d="M10.5943 25.0632H3.76501V30.9169H10.5943V25.0632Z" fill="white"/>
<path fill-rule="evenodd" clip-rule="evenodd" d="M8.922 28.3562C8.9301 28.671 8.726 28.9873 8.3099 29.2276C7.49332 29.699 6.16951 29.699 5.35302 29.2276C4.93683 28.9873 4.73283 28.671 4.74083 28.3562C4.74131 28.3056 4.74785 27.5559 4.74083 27.2629C4.73322 26.9484 4.93731 26.6325 5.35302 26.3925C6.16951 25.9209 7.49332 25.9209 8.3099 26.3925C8.72561 26.6325 8.92961 26.9484 8.9221 27.2629C8.91497 27.5559 8.92161 28.3057 8.922 28.3562Z" fill="black"/>
</mask>
<g mask="url(#mask4_1_501)">
<path d="M8.922 28.3562H8.14151V28.3661L8.1418 28.3761L8.922 28.3562ZM4.74083 28.3562L5.52122 28.3761L5.52131 28.3632L4.74083 28.3562ZM8.922 28.3562H9.70258L9.70249 28.3491L8.922 28.3562ZM8.1418 28.3761C8.14112 28.3505 8.15156 28.349 8.13175 28.3778C8.10902 28.4109 8.0498 28.4764 7.91966 28.5517L8.70014 29.9035C9.26112 29.5797 9.72014 29.0388 9.70229 28.3363L8.1418 28.3761ZM7.91966 28.5517C7.6579 28.7028 7.2658 28.8006 6.83146 28.8006C6.39702 28.8006 6.00492 28.7028 5.74327 28.5517L4.96278 29.9035C5.51761 30.2239 6.19566 30.3616 6.83146 30.3616C7.46727 30.3616 8.14531 30.2239 8.70014 29.9035L7.91966 28.5517ZM5.74327 28.5517C5.61302 28.4764 5.5538 28.4109 5.53107 28.3778C5.51136 28.349 5.5218 28.3505 5.52122 28.3761L3.96063 28.3363C3.94268 29.0387 4.4018 29.5797 4.96278 29.9035L5.74327 28.5517ZM5.52131 28.3632C5.52171 28.3195 5.52853 27.5533 5.52112 27.2441L3.96053 27.2817C3.96727 27.5584 3.96092 28.2918 3.96034 28.3491L5.52131 28.3632ZM5.52112 27.2441C5.52171 27.2695 5.51136 27.2709 5.53117 27.2421C5.5539 27.2089 5.61322 27.1434 5.74327 27.0684L4.96278 25.7164C4.40239 26.0401 3.94366 26.5801 3.96053 27.2817L5.52112 27.2441ZM5.74327 27.0684C6.00492 26.9172 6.39702 26.8193 6.83146 26.8193C7.2658 26.8193 7.6579 26.9172 7.91966 27.0684L8.70014 25.7164C8.14531 25.3962 7.46727 25.2583 6.83146 25.2583C6.19566 25.2583 5.51761 25.3962 4.96278 25.7164L5.74327 27.0684ZM7.91966 27.0684C8.04971 27.1434 8.10892 27.2089 8.13166 27.2421C8.15156 27.2709 8.14122 27.2695 8.1418 27.2441L9.70229 27.2817C9.71927 26.5801 9.26053 26.0401 8.70014 25.7164L7.91966 27.0684ZM8.1418 27.2441C8.13439 27.5533 8.14122 28.3196 8.14161 28.3632L9.70249 28.3491C9.702 28.2919 9.69566 27.5584 9.70229 27.2817L8.1418 27.2441Z" fill="#1D1D1B"/>
</g>
<path d="M5.62292 16.7734H8.04V26.4419C8.04 26.4419 8.04 26.8449 6.83151 26.8449C5.62292 26.8449 5.62292 26.4419 5.62292 26.4419V16.7734Z" fill="white"/>
<path d="M5.62291 16.3831H5.23267V16.7733V26.4418H5.62291C5.23267 26.4418 5.23267 26.443 5.23267 26.443V26.4441V26.4465L5.23276 26.4513L5.23315 26.4618C5.23345 26.4691 5.23403 26.4768 5.23491 26.4852C5.23657 26.5018 5.2393 26.5205 5.24369 26.5409C5.25247 26.5819 5.26759 26.6291 5.29276 26.6793C5.34428 26.7824 5.42984 26.8829 5.55745 26.9679C5.80242 27.1313 6.19618 27.235 6.8315 27.235C7.46681 27.235 7.86047 27.1313 8.10545 26.9679C8.23306 26.8828 8.31862 26.7823 8.37023 26.6793C8.3953 26.629 8.41042 26.5819 8.4192 26.5408C8.42359 26.5204 8.42632 26.5018 8.42798 26.4851C8.42886 26.4768 8.42945 26.469 8.42974 26.4618L8.43013 26.4513L8.43023 26.4465V26.4441V26.443C8.43023 26.443 8.43023 26.4418 8.03998 26.4418H8.43023V16.7733V16.3831H8.03998H5.62291Z" stroke="#1D1D1B" stroke-width="0.8"/>
<path fill-rule="evenodd" clip-rule="evenodd" d="M8.922 17.0766C8.9301 17.3915 8.726 17.7078 8.3099 17.9481C7.49332 18.4195 6.16951 18.4195 5.35302 17.9481C4.93683 17.7078 4.73283 17.3915 4.74083 17.0765C4.74131 17.0261 4.74785 16.2764 4.74083 15.9834C4.73322 15.6688 4.93731 15.3528 5.35302 15.1128C6.16951 14.6414 7.49332 14.6414 8.3099 15.1128C8.72561 15.3528 8.92961 15.6688 8.9221 15.9834C8.91497 16.2764 8.92161 17.0262 8.922 17.0766Z" fill="#EFE9FE"/>
<mask id="mask5_1_501" style="mask-type:luminance" maskUnits="userSpaceOnUse" x="3" y="13" width="8" height="7">
<path d="M10.5943 13.7837H3.76501V19.6374H10.5943V13.7837Z" fill="white"/>
<path fill-rule="evenodd" clip-rule="evenodd" d="M8.922 17.0766C8.9301 17.3915 8.726 17.7078 8.3099 17.9481C7.49332 18.4195 6.16951 18.4195 5.35302 17.9481C4.93683 17.7078 4.73283 17.3915 4.74083 17.0765C4.74131 17.0261 4.74785 16.2764 4.74083 15.9834C4.73322 15.6688 4.93731 15.3528 5.35302 15.1128C6.16951 14.6414 7.49332 14.6414 8.3099 15.1128C8.72561 15.3528 8.92961 15.6688 8.9221 15.9834C8.91497 16.2764 8.92161 17.0262 8.922 17.0766Z" fill="black"/>
</mask>
<g mask="url(#mask5_1_501)">
<path d="M8.922 17.0766H8.14151V17.0865L8.1418 17.0964L8.922 17.0766ZM4.74083 17.0765L5.52122 17.0964L5.52131 17.0835L4.74083 17.0765ZM8.922 17.0766L9.70258 17.0765L9.70249 17.0695L8.922 17.0766ZM8.1418 17.0964C8.14112 17.071 8.15156 17.0695 8.13175 17.0983C8.10902 17.1313 8.0498 17.1969 7.91966 17.2721L8.70014 18.6239C9.26112 18.3 9.72014 17.7592 9.70229 17.0567L8.1418 17.0964ZM7.91966 17.2721C7.6579 17.4231 7.2658 17.5211 6.83146 17.5211C6.39702 17.5211 6.00492 17.4231 5.74327 17.2721L4.96278 18.6239C5.51761 18.9442 6.19566 19.0821 6.83146 19.0821C7.46727 19.0821 8.14531 18.9442 8.70014 18.6239L7.91966 17.2721ZM5.74327 17.2721C5.61302 17.1969 5.5538 17.1312 5.53107 17.0983C5.51136 17.0695 5.5218 17.071 5.52122 17.0964L3.96063 17.0566C3.94268 17.7592 4.4018 18.3 4.96278 18.6239L5.74327 17.2721ZM5.52131 17.0835C5.52171 17.0399 5.52853 16.2738 5.52112 15.9645L3.96053 16.0021C3.96727 16.2789 3.96092 17.0122 3.96034 17.0695L5.52131 17.0835ZM5.52112 15.9645C5.52171 15.99 5.51136 15.9913 5.53117 15.9625C5.5539 15.9294 5.61322 15.8638 5.74327 15.7887L4.96278 14.4369C4.40239 14.7604 3.94366 15.3005 3.96053 16.0021L5.52112 15.9645ZM5.74327 15.7887C6.00492 15.6377 6.39702 15.5397 6.83146 15.5397C7.2658 15.5397 7.6579 15.6377 7.91966 15.7887L8.70014 14.4369C8.14531 14.1166 7.46727 13.9788 6.83146 13.9788C6.19566 13.9788 5.51761 14.1166 4.96278 14.4369L5.74327 15.7887ZM7.91966 15.7887C8.04971 15.8638 8.10892 15.9294 8.13166 15.9625C8.15156 15.9913 8.14122 15.99 8.1418 15.9645L9.70229 16.0021C9.71927 15.3005 9.26053 14.7604 8.70014 14.4369L7.91966 15.7887ZM8.1418 15.9645C8.13439 16.2738 8.14122 17.0399 8.14161 17.0835L9.70249 17.0695C9.702 17.0122 9.69566 16.2789 9.70229 16.0021L8.1418 15.9645Z" fill="#1D1D1B"/>
</g>
<path d="M4.14282 16.6949V18.1616C4.14282 18.2693 4.21843 18.313 4.3118 18.2592L26.7724 5.2915C26.8657 5.23762 26.9414 5.10658 26.9414 4.99882V3.53213C26.9414 3.46318 26.9098 3.41754 26.8585 3.41209L15.6282 2.21906C15.5751 2.21342 15.5091 2.25151 15.456 2.31845L4.22575 16.4792C4.17433 16.5439 4.14282 16.626 4.14282 16.6949Z" fill="#D5C8FB"/>
<path d="M4.14282 16.6949V18.1616C4.14282 18.2693 4.21843 18.313 4.3118 18.2592L26.7724 5.2915C26.8657 5.23762 26.9414 5.10658 26.9414 4.99882V3.53213C26.9414 3.46318 26.9098 3.41754 26.8585 3.41209L15.6282 2.21906C15.5751 2.21342 15.5091 2.25151 15.456 2.31845L4.22575 16.4792C4.17433 16.5439 4.14282 16.626 4.14282 16.6949Z" stroke="#1D1D1B" stroke-width="0.8" stroke-linejoin="round"/>
<path d="M26.6183 19.7528L5.61345 31.7835C5.56886 31.8091 5.52613 31.8132 5.49462 31.7949L1.15356 29.2868V32.6227C1.15356 32.6732 1.1705 32.7119 1.2008 32.7308L5.49364 35.4019C5.52574 35.4218 5.56994 35.4179 5.61608 35.391L26.7024 23.1208C26.7955 23.0666 26.8708 22.936 26.8708 22.8285V19.8997C26.8708 19.7385 26.7579 19.6729 26.6183 19.7528Z" fill="#D5C8FB"/>
<path d="M26.6183 19.7528L5.61345 31.7835C5.56886 31.8091 5.52613 31.8132 5.49462 31.7949L1.15356 29.2868V32.6227C1.15356 32.6732 1.1705 32.7119 1.2008 32.7308L5.49364 35.4019C5.52574 35.4218 5.56994 35.4179 5.61608 35.391L26.7024 23.1208C26.7955 23.0666 26.8708 22.936 26.8708 22.8285V19.8997C26.8708 19.7385 26.7579 19.6729 26.6183 19.7528Z" stroke="#1D1D1B" stroke-width="0.8" stroke-linejoin="round"/>
</svg>
