<svg width="276" height="130" viewBox="0 0 276 130" fill="none" xmlns="http://www.w3.org/2000/svg">
<path d="M222.724 80.687L222.737 80.691C222.737 80.691 222.712 82.949 222.671 83.622C222.634 84.243 222.027 84.863 220.848 85.346L198.49 94.497C196.032 95.503 192.017 95.535 189.523 94.568L178.152 90.158C176.932 89.685 176.302 89.06 176.264 88.428C176.23 87.85 176.315 85.641 176.33 85.332C176.316 84.684 176.923 84.031 178.155 83.526L200.514 74.374C202.972 73.368 206.987 73.336 209.48 74.303L220.852 78.713C222.228 79.247 222.854 79.974 222.724 80.687Z" fill="#D5C8FB"/>
<path d="M222.724 80.687L222.737 80.691C222.737 80.691 222.712 82.949 222.671 83.622C222.634 84.243 222.027 84.863 220.848 85.346L198.49 94.497C196.032 95.503 192.017 95.535 189.523 94.568L178.152 90.158C176.932 89.685 176.302 89.06 176.264 88.428C176.23 87.85 176.315 85.641 176.33 85.332C176.316 84.684 176.923 84.031 178.155 83.526L200.514 74.374C202.972 73.368 206.987 73.336 209.48 74.303L220.852 78.713C222.228 79.247 222.854 79.974 222.724 80.687Z" stroke="#1D1D1B"/>
<path d="M178.22 87.1C175.726 86.133 175.699 84.533 178.156 83.527L200.514 74.375C202.973 73.369 206.987 73.337 209.482 74.304L220.855 78.714C223.347 79.681 223.377 81.281 220.918 82.287L198.56 91.439C196.101 92.445 192.086 92.477 189.592 91.51L178.22 87.1Z" fill="white"/>
<path d="M178.22 87.1C175.726 86.133 175.699 84.533 178.156 83.527L200.514 74.375C202.973 73.369 206.987 73.337 209.482 74.304L220.855 78.714C223.347 79.681 223.377 81.281 220.918 82.287L198.56 91.439C196.101 92.445 192.086 92.477 189.592 91.51L178.22 87.1Z" stroke="#1D1D1B" stroke-width="0.5"/>
<path d="M195.821 70.083L195.831 70.087C195.831 70.087 195.809 72.345 195.768 73.018C195.731 73.639 195.123 74.259 193.943 74.742L171.585 83.894C169.128 84.9 165.114 84.932 162.62 83.965L151.248 79.555C150.029 79.082 149.398 78.457 149.361 77.825C149.327 77.247 149.412 75.037 149.427 74.728C149.413 74.08 150.02 73.427 151.252 72.922L173.61 63.77C176.069 62.764 180.081 62.732 182.575 63.699L193.949 68.109C195.325 68.643 195.951 69.37 195.821 70.083Z" fill="#D5C8FB"/>
<path d="M195.821 70.083L195.831 70.087C195.831 70.087 195.809 72.345 195.768 73.018C195.731 73.639 195.123 74.259 193.943 74.742L171.585 83.894C169.128 84.9 165.114 84.932 162.62 83.965L151.248 79.555C150.029 79.082 149.398 78.457 149.361 77.825C149.327 77.247 149.412 75.037 149.427 74.728C149.413 74.08 150.02 73.427 151.252 72.922L173.61 63.77C176.069 62.764 180.081 62.732 182.575 63.699L193.949 68.109C195.325 68.643 195.951 69.37 195.821 70.083Z" stroke="#1D1D1B"/>
<path d="M151.317 76.496C148.823 75.529 148.794 73.929 151.252 72.923L173.61 63.771C176.069 62.765 180.084 62.733 182.576 63.7L193.949 68.11C196.443 69.077 196.471 70.676 194.013 71.683L171.656 80.835C169.197 81.841 165.183 81.873 162.689 80.906L151.317 76.496Z" fill="#EFE9FE"/>
<path d="M151.317 76.496C148.823 75.529 148.794 73.929 151.252 72.923L173.61 63.771C176.069 62.765 180.084 62.733 182.576 63.7L193.949 68.11C196.443 69.077 196.471 70.676 194.013 71.683L171.656 80.835C169.197 81.841 165.183 81.873 162.689 80.906L151.317 76.496Z" stroke="#1D1D1B" stroke-width="0.5"/>
<path d="M168.916 59.4779L168.928 59.4819C168.928 59.4819 168.903 61.7399 168.862 62.4129C168.826 63.0339 168.218 63.6539 167.039 64.1369L144.681 73.2879C142.223 74.2939 138.208 74.3259 135.714 73.3589L124.343 68.9499C123.123 68.4769 122.493 67.8509 122.455 67.2189C122.421 66.6409 122.506 64.4319 122.521 64.1229C122.507 63.4749 123.115 62.8219 124.346 62.3169L146.705 53.1649C149.163 52.1589 153.178 52.1269 155.671 53.0939L167.043 57.5039C168.419 58.0379 169.045 58.7649 168.916 59.4779Z" fill="#D5C8FB"/>
<path d="M168.916 59.4779L168.928 59.4819C168.928 59.4819 168.903 61.7399 168.862 62.4129C168.826 63.0339 168.218 63.6539 167.039 64.1369L144.681 73.2879C142.223 74.2939 138.208 74.3259 135.714 73.3589L124.343 68.9499C123.123 68.4769 122.493 67.8509 122.455 67.2189C122.421 66.6409 122.506 64.4319 122.521 64.1229C122.507 63.4749 123.115 62.8219 124.346 62.3169L146.705 53.1649C149.163 52.1589 153.178 52.1269 155.671 53.0939L167.043 57.5039C168.419 58.0379 169.045 58.7649 168.916 59.4779Z" stroke="#1D1D1B"/>
<path d="M124.412 65.8919C121.918 64.9249 121.89 63.3249 124.347 62.3189L146.705 53.1669C149.164 52.1609 153.178 52.1289 155.673 53.0959L167.046 57.5059C169.538 58.4729 169.568 60.0729 167.109 61.0789L144.751 70.2309C142.292 71.2369 138.278 71.2689 135.784 70.3019L124.412 65.8919Z" fill="#EFE9FE"/>
<path d="M124.412 65.8919C121.918 64.9249 121.89 63.3249 124.347 62.3189L146.705 53.1669C149.164 52.1609 153.178 52.1289 155.673 53.0959L167.046 57.5059C169.538 58.4729 169.568 60.0729 167.109 61.0789L144.751 70.2309C142.292 71.2369 138.278 71.2689 135.784 70.3019L124.412 65.8919Z" stroke="#1D1D1B" stroke-width="0.5"/>
<path d="M183.008 97.1L183.019 97.104C183.019 97.104 182.995 99.362 182.955 100.035C182.918 100.656 182.311 101.275 181.131 101.757L158.773 110.91C156.316 111.917 152.301 111.949 149.807 110.981L138.436 106.572C137.216 106.099 136.584 105.474 136.548 104.842C136.513 104.264 136.597 102.054 136.614 101.745C136.6 101.097 137.207 100.444 138.439 99.939L160.796 90.787C163.255 89.781 167.269 89.749 169.763 90.716L181.135 95.126C182.512 95.66 183.137 96.387 183.008 97.1Z" fill="#D5C8FB"/>
<path d="M183.008 97.1L183.019 97.104C183.019 97.104 182.995 99.362 182.955 100.035C182.918 100.656 182.311 101.275 181.131 101.757L158.773 110.91C156.316 111.917 152.301 111.949 149.807 110.981L138.436 106.572C137.216 106.099 136.584 105.474 136.548 104.842C136.513 104.264 136.597 102.054 136.614 101.745C136.6 101.097 137.207 100.444 138.439 99.939L160.796 90.787C163.255 89.781 167.269 89.749 169.763 90.716L181.135 95.126C182.512 95.66 183.137 96.387 183.008 97.1Z" stroke="#1D1D1B"/>
<path d="M138.503 103.512C136.009 102.545 135.981 100.946 138.439 99.939L160.796 90.787C163.255 89.781 167.269 89.749 169.763 90.716L181.135 95.126C183.63 96.093 183.658 97.693 181.2 98.699L158.842 107.851C156.383 108.857 152.37 108.889 149.876 107.922L138.503 103.512Z" fill="white"/>
<path d="M138.503 103.512C136.009 102.545 135.981 100.946 138.439 99.939L160.796 90.787C163.255 89.781 167.269 89.749 169.763 90.716L181.135 95.126C183.63 96.093 183.658 97.693 181.2 98.699L158.842 107.851C156.383 108.857 152.37 108.889 149.876 107.922L138.503 103.512Z" stroke="#1D1D1B" stroke-width="0.5"/>
<path d="M154.748 86.48L154.761 86.485C154.761 86.485 154.734 88.743 154.694 89.416C154.657 90.037 154.05 90.656 152.87 91.139L130.512 100.291C128.055 101.297 124.041 101.329 121.547 100.362L110.175 95.952C108.954 95.479 108.326 94.854 108.288 94.222C108.254 93.644 108.339 91.434 108.354 91.125C108.34 90.477 108.947 89.824 110.179 89.319L132.537 80.168C134.994 79.162 139.009 79.13 141.502 80.097L152.876 84.506C154.252 85.04 154.878 85.767 154.748 86.48Z" fill="#D5C8FB"/>
<path d="M154.748 86.48L154.761 86.485C154.761 86.485 154.734 88.743 154.694 89.416C154.657 90.037 154.05 90.656 152.87 91.139L130.512 100.291C128.055 101.297 124.041 101.329 121.547 100.362L110.175 95.952C108.954 95.479 108.326 94.854 108.288 94.222C108.254 93.644 108.339 91.434 108.354 91.125C108.34 90.477 108.947 89.824 110.179 89.319L132.537 80.168C134.994 79.162 139.009 79.13 141.502 80.097L152.876 84.506C154.252 85.04 154.878 85.767 154.748 86.48Z" stroke="#1D1D1B"/>
<path d="M110.242 92.8939C107.748 91.9269 107.721 90.3269 110.179 89.3209L132.537 80.1689C134.996 79.1629 139.009 79.1309 141.505 80.0979L152.876 84.5079C155.368 85.4749 155.399 87.0749 152.94 88.0809L130.583 97.2329C128.124 98.2389 124.108 98.2709 121.614 97.3039L110.242 92.8939Z" fill="#EFE9FE"/>
<path d="M110.242 92.8939C107.748 91.9269 107.721 90.3269 110.179 89.3209L132.537 80.1689C134.996 79.1629 139.009 79.1309 141.505 80.0979L152.876 84.5079C155.368 85.4749 155.399 87.0749 152.94 88.0809L130.583 97.2329C128.124 98.2389 124.108 98.2709 121.614 97.3039L110.242 92.8939Z" stroke="#1D1D1B" stroke-width="0.5"/>
<path d="M127.841 75.875L127.854 75.879C127.854 75.879 127.828 78.137 127.788 78.81C127.751 79.431 127.144 80.051 125.964 80.534L103.606 89.685C101.149 90.691 97.1337 90.723 94.6397 89.756L83.2688 85.346C82.0485 84.873 81.4187 84.248 81.3807 83.616C81.347 83.038 81.4313 80.829 81.4468 80.52C81.4327 79.872 82.0401 79.219 83.2716 78.714L105.631 69.562C108.088 68.556 112.104 68.524 114.596 69.491L125.968 73.901C127.345 74.435 127.97 75.162 127.841 75.875Z" fill="#D5C8FB"/>
<path d="M127.841 75.875L127.854 75.879C127.854 75.879 127.828 78.137 127.788 78.81C127.751 79.431 127.144 80.051 125.964 80.534L103.606 89.685C101.149 90.691 97.1337 90.723 94.6397 89.756L83.2688 85.346C82.0485 84.873 81.4187 84.248 81.3807 83.616C81.347 83.038 81.4313 80.829 81.4468 80.52C81.4327 79.872 82.0401 79.219 83.2716 78.714L105.631 69.562C108.088 68.556 112.104 68.524 114.596 69.491L125.968 73.901C127.345 74.435 127.97 75.162 127.841 75.875Z" stroke="#1D1D1B"/>
<path d="M83.3363 82.288C80.8423 81.321 80.8142 79.721 83.2716 78.715L105.629 69.563C108.088 68.557 112.102 68.525 114.598 69.492L125.97 73.902C128.462 74.869 128.492 76.469 126.033 77.475L103.675 86.627C101.216 87.633 97.2026 87.665 94.7085 86.698L83.3363 82.288Z" fill="white"/>
<path d="M83.3363 82.288C80.8423 81.321 80.8142 79.721 83.2716 78.715L105.629 69.563C108.088 68.557 112.102 68.525 114.598 69.492L125.97 73.902C128.462 74.869 128.492 76.469 126.033 77.475L103.675 86.627C101.216 87.633 97.2026 87.665 94.7085 86.698L83.3363 82.288Z" stroke="#1D1D1B" stroke-width="0.5"/>
<path d="M143.292 113.511L143.304 113.515C143.304 113.515 143.278 115.773 143.237 116.446C143.2 117.067 142.594 117.687 141.416 118.17L119.056 127.321C116.598 128.327 112.583 128.359 110.09 127.392L98.7181 122.983C97.4978 122.51 96.8694 121.884 96.8314 121.252C96.7977 120.674 96.8806 118.465 96.8975 118.156C96.882 117.508 97.4908 116.855 98.7223 116.35L121.08 107.199C123.538 106.193 127.553 106.16 130.045 107.127L141.419 111.537C142.797 112.071 143.421 112.798 143.292 113.511Z" fill="#D5C8FB"/>
<path d="M143.292 113.511L143.304 113.515C143.304 113.515 143.278 115.773 143.237 116.446C143.2 117.067 142.594 117.687 141.416 118.17L119.056 127.321C116.598 128.327 112.583 128.359 110.09 127.392L98.7181 122.983C97.4978 122.51 96.8694 121.884 96.8314 121.252C96.7977 120.674 96.8806 118.465 96.8975 118.156C96.882 117.508 97.4908 116.855 98.7223 116.35L121.08 107.199C123.538 106.193 127.553 106.16 130.045 107.127L141.419 111.537C142.797 112.071 143.421 112.798 143.292 113.511Z" stroke="#1D1D1B"/>
<path d="M98.787 119.925C96.293 118.958 96.2648 117.358 98.7223 116.352L121.08 107.2C123.539 106.193 127.553 106.161 130.047 107.128L141.419 111.538C143.912 112.505 143.941 114.105 141.482 115.111L119.126 124.263C116.667 125.27 112.653 125.301 110.159 124.334L98.787 119.925Z" fill="#EFE9FE"/>
<path d="M98.787 119.925C96.293 118.958 96.2648 117.358 98.7223 116.352L121.08 107.2C123.539 106.193 127.553 106.161 130.047 107.128L141.419 111.538C143.912 112.505 143.941 114.105 141.482 115.111L119.126 124.263C116.667 125.27 112.653 125.301 110.159 124.334L98.787 119.925Z" stroke="#1D1D1B" stroke-width="0.5"/>
<path d="M115.031 102.891L115.042 102.895C115.042 102.895 115.018 105.154 114.977 105.827C114.941 106.447 114.333 107.066 113.154 107.549L90.7959 116.701C88.3385 117.707 84.3232 117.739 81.8292 116.772L70.457 112.362C69.2381 111.889 68.6068 111.264 68.5703 110.632C68.5351 110.054 68.6195 107.845 68.6364 107.537C68.6223 106.888 69.2296 106.235 70.4612 105.731L92.819 96.579C95.2779 95.572 99.2917 95.541 101.786 96.508L113.158 100.917C114.534 101.451 115.16 102.178 115.031 102.891Z" fill="#D5C8FB"/>
<path d="M115.031 102.891L115.042 102.895C115.042 102.895 115.018 105.154 114.977 105.827C114.941 106.447 114.333 107.066 113.154 107.549L90.796 116.701C88.3385 117.707 84.3232 117.739 81.8292 116.772L70.457 112.362C69.2381 111.889 68.6068 111.264 68.5703 110.632C68.5351 110.054 68.6195 107.845 68.6364 107.537C68.6223 106.888 69.2296 106.235 70.4612 105.731L92.819 96.579C95.2779 95.572 99.2917 95.541 101.786 96.508L113.158 100.917C114.534 101.451 115.16 102.178 115.031 102.891Z" stroke="#1D1D1B"/>
<path d="M70.5259 109.303C68.0318 108.336 68.0037 106.737 70.4612 105.73L92.819 96.578C95.2779 95.572 99.2917 95.54 101.786 96.507L113.158 100.917C115.652 101.884 115.68 103.484 113.223 104.49L90.8648 113.642C88.4059 114.649 84.3921 114.68 81.8981 113.713L70.5259 109.303Z" fill="white"/>
<path d="M70.5259 109.303C68.0318 108.336 68.0037 106.737 70.4612 105.73L92.819 96.578C95.2779 95.572 99.2917 95.54 101.786 96.507L113.158 100.917C115.652 101.884 115.68 103.484 113.223 104.49L90.8648 113.642C88.4059 114.649 84.3921 114.68 81.8981 113.713L70.5259 109.303Z" stroke="#1D1D1B" stroke-width="0.5"/>
<path d="M88.1262 92.2859L88.1374 92.2899C88.1374 92.2899 88.1135 94.5479 88.0728 95.2209C88.0362 95.8419 87.4289 96.4619 86.2493 96.9449L63.8915 106.097C61.434 107.103 57.4188 107.135 54.9248 106.168L43.5539 101.758C42.3336 101.285 41.7024 100.66 41.6658 100.028C41.6307 99.4499 41.715 97.2399 41.7319 96.9309C41.7178 96.2829 42.3252 95.6299 43.5567 95.1249L65.9146 85.9729C68.3735 84.9669 72.3873 84.9349 74.8813 85.9019L86.2535 90.3119C87.6299 90.8459 88.2555 91.5729 88.1262 92.2859Z" fill="#D5C8FB"/>
<path d="M88.1262 92.2859L88.1374 92.2899C88.1374 92.2899 88.1135 94.5479 88.0728 95.2209C88.0362 95.8419 87.4289 96.4619 86.2493 96.9449L63.8915 106.097C61.434 107.103 57.4188 107.135 54.9248 106.168L43.5539 101.758C42.3336 101.285 41.7024 100.66 41.6658 100.028C41.6307 99.4499 41.715 97.2399 41.7319 96.9309C41.7178 96.2829 42.3252 95.6299 43.5567 95.1249L65.9146 85.9729C68.3735 84.9669 72.3873 84.9349 74.8813 85.9019L86.2535 90.3119C87.6299 90.8459 88.2555 91.5729 88.1262 92.2859Z" stroke="#1D1D1B"/>
<path d="M43.6214 98.6999C41.1274 97.7329 41.0992 96.1329 43.5567 95.1269L65.9146 85.9749C68.3735 84.9689 72.3873 84.9369 74.8813 85.9039L86.2535 90.3139C88.7476 91.2809 88.7757 92.8799 86.3182 93.8869L63.9604 103.039C61.5015 104.045 57.4877 104.077 54.9936 103.11L43.6214 98.6999Z" fill="#EFE9FE"/>
<path d="M43.6214 98.6999C41.1274 97.7329 41.0992 96.1329 43.5567 95.1269L65.9146 85.9749C68.3735 84.9689 72.3873 84.9369 74.8813 85.9039L86.2535 90.3139C88.7476 91.2809 88.7757 92.8799 86.3182 93.8869L63.9604 103.039C61.5015 104.045 57.4877 104.077 54.9936 103.11L43.6214 98.6999Z" stroke="#1D1D1B" stroke-width="0.5"/>
<path d="M1.15659 98.922L178.771 25.984" stroke="black"/>
<path d="M116.957 1.49596L7.01353 46.628C6.11376 46.998 5.70605 47.749 6.02941 48.436L15.581 68.158C15.7033 68.416 15.9381 68.622 16.2333 68.763C16.7634 69.018 19.599 69.929 19.599 69.929C20.1445 70.115 20.5241 69.957 20.9402 69.787L129.773 25.274C130.45 24.997 130.771 24.437 130.549 23.915L121.697 3.08696C121.572 2.78896 121.297 2.55696 120.951 2.40996C120.201 2.09196 119.359 1.69196 118.559 1.43796C118.067 1.28096 117.471 1.28396 116.957 1.49596Z" fill="#EFE9FE"/>
<path d="M116.957 1.49596L7.01353 46.628C6.11376 46.998 5.70605 47.749 6.02941 48.436L15.581 68.158C15.7033 68.416 15.9381 68.622 16.2333 68.763C16.7634 69.018 19.599 69.929 19.599 69.929C20.1445 70.115 20.5241 69.957 20.9402 69.787L129.773 25.274C130.45 24.997 130.771 24.437 130.549 23.915L121.697 3.08696C121.572 2.78896 121.297 2.55696 120.951 2.40996C120.201 2.09196 119.359 1.69196 118.559 1.43796C118.067 1.28096 117.471 1.28396 116.957 1.49596Z" stroke="#1D1D1B"/>
<path d="M10.1332 47.522L119.34 2.617C120.119 2.297 121.113 2.575 121.361 3.16L130.211 23.988C130.384 24.396 130.138 24.836 129.597 25.057L20.7645 69.57C19.9997 69.883 19.0254 69.622 18.7569 69.054L9.30654 49.033C9.03661 48.462 9.37402 47.834 10.1332 47.522Z" fill="#D5C8FB"/>
<path d="M119.34 2.617L10.1332 47.522C9.37402 47.834 9.03661 48.462 9.30654 49.033L18.7569 69.054C19.0254 69.622 19.9997 69.883 20.7645 69.57L129.597 25.057C130.138 24.836 130.384 24.396 130.211 23.988L121.361 3.16C121.113 2.575 120.119 2.297 119.34 2.617ZM119.34 2.617L119.164 2.401" stroke="#1D1D1B" stroke-width="0.5"/>
<path d="M21.6544 52.277C21.4899 51.964 21.8259 51.431 22.3138 51.23L114.638 13.301C115.247 13.051 115.794 13.145 115.999 13.535L118.536 18.363C118.864 18.988 118.192 20.051 117.218 20.451L25.8861 57.975C25.2774 58.225 24.7305 58.129 24.5252 57.74L21.6544 52.277Z" fill="#1D1D1B"/>
<path d="M21.6544 52.277C21.4899 51.964 21.8259 51.431 22.3138 51.23L114.638 13.301C115.247 13.051 115.794 13.145 115.999 13.535L118.536 18.363C118.864 18.988 118.192 20.051 117.218 20.451L25.8861 57.975C25.2774 58.225 24.7305 58.129 24.5252 57.74L21.6544 52.277Z" stroke="#1D1D1B"/>
<mask id="mask0_1_819" style="mask-type:alpha" maskUnits="userSpaceOnUse" x="21" y="12" width="255" height="162">
<path d="M21.653 52.278C21.4885 51.965 21.8245 51.432 22.3124 51.231L114.637 13.302C115.246 13.052 115.793 13.146 115.998 13.536L274.952 67.743C275.279 68.367 274.609 69.431 273.634 69.832L235.213 172.784C234.604 173.034 234.057 172.94 233.852 172.55L21.653 52.278Z" fill="#1D1D1B"/>
<path d="M21.653 52.278C21.4885 51.965 21.8245 51.432 22.3124 51.231L114.637 13.302C115.246 13.052 115.793 13.146 115.998 13.536L274.952 67.743C275.279 68.367 274.609 69.431 273.634 69.832L235.213 172.784C234.604 173.034 234.057 172.94 233.852 172.55L21.653 52.278Z" stroke="#1D1D1B"/>
</mask>
<g mask="url(#mask0_1_819)">
<path d="M231.131 65.462C231.122 65.784 231.11 66.441 231.138 67.024C231.176 67.866 230.393 68.711 228.786 69.351L151.68 100.074C148.532 101.332 143.402 101.325 140.221 100.057L10.0792 48.205C8.46664 47.562 7.66809 46.719 7.68637 45.88C7.69903 45.221 7.6906 44.472 7.68778 44.213C7.64279 43.368 8.42587 42.52 10.0384 41.877L87.1442 11.1551C90.2976 9.89806 95.4277 9.90606 98.6036 11.1711L228.745 63.024C230.301 63.644 231.1 64.452 231.138 65.262V65.264C231.141 65.33 231.138 65.396 231.131 65.462Z" fill="#1D1D1B"/>
<path d="M231.131 65.462C231.122 65.784 231.11 66.441 231.138 67.024C231.176 67.866 230.393 68.711 228.786 69.351L151.68 100.074C148.532 101.332 143.402 101.325 140.221 100.057L10.0792 48.205C8.46664 47.562 7.66809 46.719 7.68637 45.88C7.69903 45.221 7.6906 44.472 7.68778 44.213C7.64279 43.368 8.42587 42.52 10.0384 41.877L87.1442 11.1551C90.2976 9.89806 95.4277 9.90606 98.6036 11.1711L228.745 63.024C230.301 63.644 231.1 64.452 231.138 65.262V65.264C231.141 65.33 231.138 65.396 231.131 65.462Z" stroke="#1D1D1B" stroke-width="0.973" stroke-miterlimit="10"/>
<path d="M10.0804 46.443L140.22 98.296C143.401 99.564 148.532 99.571 151.678 98.312L228.786 67.59C231.938 66.334 231.921 64.29 228.745 63.025L98.6048 11.171C95.4289 9.90604 90.2988 9.89904 87.1454 11.156L10.0396 41.878C6.88621 43.134 6.90449 45.178 10.0804 46.443Z" fill="white"/>
<path d="M10.0804 46.443L140.22 98.296C143.401 99.564 148.532 99.571 151.678 98.312L228.786 67.59C231.938 66.334 231.921 64.29 228.745 63.025L98.6048 11.171C95.4289 9.90604 90.2988 9.89904 87.1454 11.156L10.0396 41.878C6.88621 43.134 6.90449 45.178 10.0804 46.443Z" stroke="#1D1D1B" stroke-miterlimit="10"/>
<path d="M174.531 50.9851C177.888 49.6481 182.827 49.6481 186.048 50.9321C189.346 52.2461 189.346 54.2131 185.996 55.5531C184.42 56.1811 182.424 56.5071 180.411 56.5231C180.713 56.7601 181.111 56.9981 181.594 57.2371L179.715 57.8371C178.729 57.3461 178.035 56.8511 177.626 56.3441C176.487 56.1831 175.413 55.9181 174.474 55.5441C171.251 54.2601 171.309 52.2691 174.531 50.9851ZM184.409 51.5851C182.172 50.6941 178.757 50.7481 176.348 51.7091C174 52.6441 173.942 53.9781 176.172 54.8671C176.499 54.9971 176.844 55.1071 177.2 55.1971C177.222 54.5881 177.649 53.9621 178.455 53.3161L180.609 53.7411C179.815 54.3791 179.487 54.9651 179.639 55.5321C181.222 55.5861 182.85 55.3511 184.169 54.8251C186.58 53.8651 186.703 52.4991 184.409 51.5851ZM205.798 62.925L202.4 64.279C201.098 64.797 201.735 65.428 203.515 65.663L201.869 66.319C199.226 65.735 198.291 64.609 201.041 63.514L207.754 60.839L209.394 61.492L207.38 62.295L209.493 63.137L207.911 63.767L205.798 62.925ZM214.197 64.868C211.902 63.954 208.325 63.98 206.036 64.891C203.684 65.829 203.741 67.206 206.036 68.12C208.388 69.057 211.843 69.08 214.197 68.143C216.491 67.229 216.549 65.805 214.197 64.868ZM207.676 67.466C206.391 66.954 206.386 66.105 207.734 65.568C209.153 65.003 211.266 65.008 212.556 65.522C213.916 66.064 213.916 66.901 212.497 67.466C211.155 68.001 209.036 68.008 207.676 67.466ZM201.752 59.9111C201.104 59.6531 200.123 59.4251 198.728 59.5161L199.563 59.1831L197.981 58.5531L190.176 61.663L191.758 62.293L196.224 60.5141C197.315 60.0791 198.897 60.0491 199.902 60.4491C200.906 60.849 200.906 61.5091 199.813 61.944L195.348 63.724L197.047 64.4L201.63 62.575C203.567 61.802 203.462 60.5931 201.752 59.9111ZM193.159 56.4851C190.865 55.5711 187.287 55.5961 184.998 56.5081C182.646 57.4461 182.704 58.8231 184.998 59.7371C187.35 60.6741 190.807 60.6971 193.159 59.7601C195.454 58.8461 195.511 57.4221 193.159 56.4851ZM186.639 59.0831C185.337 58.5641 185.348 57.7221 186.696 57.1851C188.115 56.6201 190.217 56.6201 191.519 57.1381C192.861 57.6731 192.879 58.5181 191.461 59.0831C190.118 59.6181 187.987 59.6201 186.639 59.0831Z" fill="#1D1D1B"/>
<path d="M80.8529 27.933C79.5553 27.416 77.4506 27.416 76.153 27.933L67.0808 31.548C65.7832 32.065 65.7832 32.903 67.0808 33.42L80.9879 38.961C82.2855 39.478 84.3901 39.478 85.6877 38.961L94.7585 35.347C96.0575 34.829 96.0575 33.991 94.7585 33.474L80.8529 27.933Z" fill="white"/>
<path d="M80.8529 27.933C79.5553 27.416 77.4506 27.416 76.153 27.933L67.0808 31.548C65.7832 32.065 65.7832 32.903 67.0808 33.42L80.9879 38.961C82.2855 39.478 84.3901 39.478 85.6877 38.961L94.7585 35.347C96.0575 34.829 96.0575 33.991 94.7585 33.474L80.8529 27.933Z" stroke="#1D1D1B" stroke-width="0.5"/>
<path d="M84.331 30.312L89.0182 32.18" stroke="#1D1D1B" stroke-width="0.5"/>
<path d="M72.904 34.8661L77.5912 36.7341" stroke="#1D1D1B" stroke-width="0.5"/>
<path d="M88.0032 38.083L82.1913 35.766L82.1983 35.747C82.3122 35.44 82.8253 35.107 83.7307 34.747C84.6319 34.388 85.5499 34.15 86.4877 34.033L86.5467 34.025L92.3643 36.342" stroke="#1D1D1B" stroke-width="0.5"/>
<path d="M78.1395 37.7951C78.1466 37.3221 78.6499 36.8871 79.6537 36.4871C80.6617 36.0851 81.5544 35.8551 82.3234 35.7931" stroke="#1D1D1B" stroke-width="0.5"/>
<path d="M73.6899 28.9131L79.4062 31.1911L79.4596 31.1871C80.3482 31.1201 81.269 30.8941 82.225 30.5141C83.1866 30.1311 83.697 29.6421 83.756 29.0511" stroke="#1D1D1B" stroke-width="0.5"/>
<path d="M69.5018 30.583L75.0508 32.793H75.0972C76.1038 32.766 77.0345 32.581 77.8879 32.241C78.7356 31.903 79.2881 31.541 79.5398 31.157" stroke="#1D1D1B" stroke-width="0.5"/>
<path d="M69.9882 34.609C71.2985 34.606 72.4105 34.423 73.3187 34.061C74.2199 33.702 74.8441 33.268 75.1914 32.761" stroke="#1D1D1B" stroke-width="0.5"/>
<path d="M94.8513 38.2661C94.8161 38.3541 94.7529 38.4401 94.6474 38.5241C94.5476 38.6061 94.414 38.6811 94.2383 38.7511C94.0696 38.8181 93.8714 38.8751 93.6661 38.9151C93.4679 38.9571 93.2443 38.9851 93.0166 38.9961C92.7129 39.0151 92.5034 39.1261 92.5498 39.2471C92.5962 39.3681 92.8774 39.4521 93.1811 39.4341C93.5129 39.4131 93.8475 39.3731 94.1624 39.3131C94.4717 39.2501 94.7641 39.1651 95.02 39.0631C95.2772 38.9601 95.4881 38.8441 95.6456 38.7211C95.7974 38.5951 95.9001 38.4661 95.9479 38.3311C95.9943 38.2101 95.7834 38.0981 95.4811 38.0801C95.1774 38.0611 94.8977 38.1451 94.8513 38.2661Z" fill="#1D1D1B"/>
<path d="M96.9278 38.507C96.7464 38.816 96.3556 39.108 95.7482 39.35C95.1423 39.592 94.4112 39.748 93.6352 39.82C93.3371 39.85 93.1572 39.969 93.2275 40.085C93.3034 40.203 93.5944 40.277 93.8981 40.249C94.8611 40.158 95.7834 39.964 96.5369 39.664C97.2891 39.364 97.7854 38.999 98.0075 38.613C98.0778 38.492 97.8908 38.375 97.5928 38.345C97.3017 38.317 96.9981 38.391 96.9278 38.507Z" fill="#1D1D1B"/>
<path d="M99.0943 38.78C98.8018 39.222 98.224 39.643 97.3552 39.99C96.4793 40.338 95.4333 40.569 94.3185 40.683C94.0204 40.713 93.8447 40.834 93.9206 40.952C93.9965 41.071 94.3002 41.141 94.5982 41.111C95.8945 40.976 97.1204 40.706 98.1369 40.301C99.1519 39.896 99.8281 39.408 100.167 38.892C100.243 38.773 100.067 38.652 99.7705 38.622C99.4781 38.589 99.1814 38.661 99.0943 38.78Z" fill="#1D1D1B"/>
<path d="M101.265 39.049C100.863 39.628 100.098 40.175 98.9593 40.628C97.8149 41.084 96.4427 41.389 94.9961 41.547C94.7037 41.58 94.5279 41.7 94.6109 41.817C94.6924 41.933 94.9961 42.003 95.2871 41.97C96.9222 41.793 98.4574 41.447 99.741 40.935C101.02 40.426 101.889 39.81 102.339 39.161C102.421 39.044 102.252 38.921 101.954 38.891C101.656 38.861 101.352 38.93 101.265 39.049Z" fill="#1D1D1B"/>
<path d="M136.544 85.711C139.481 84.541 143.472 84.048 147.303 84.221C146.983 83.106 145.743 82.028 143.588 81.169C138.496 79.139 130.26 79.149 125.19 81.169C120.098 83.198 120.122 86.479 125.19 88.499C127.347 89.358 130.053 89.851 132.851 89.979C132.346 88.48 133.585 86.89 136.544 85.711Z" fill="white"/>
<path d="M136.544 85.711C139.481 84.541 143.472 84.048 147.303 84.221C146.983 83.106 145.743 82.028 143.588 81.169C138.496 79.139 130.26 79.149 125.19 81.169C120.098 83.198 120.122 86.479 125.19 88.499C127.347 89.358 130.053 89.851 132.851 89.979C132.346 88.48 133.585 86.89 136.544 85.711Z" stroke="#1D1D1B" stroke-width="0.5"/>
<path d="M154.944 93.042C149.851 95.071 141.615 95.062 136.546 93.042C134.389 92.183 133.15 91.104 132.83 89.989C136.66 90.163 140.651 89.669 143.588 88.5C146.523 87.33 147.765 85.739 147.329 84.213C150.127 84.341 152.834 84.834 154.989 85.694C160.014 87.732 160.014 91.022 154.944 93.042Z" fill="white"/>
<path d="M154.944 93.042C149.851 95.071 141.615 95.062 136.546 93.042C134.389 92.183 133.15 91.104 132.83 89.989C136.66 90.163 140.651 89.669 143.588 88.5C146.523 87.33 147.765 85.739 147.329 84.213C150.127 84.341 152.834 84.834 154.989 85.694C160.014 87.732 160.014 91.022 154.944 93.042Z" stroke="#1D1D1B" stroke-width="0.5"/>
</g>
<path d="M21.6544 52.277C21.4899 51.964 21.8259 51.431 22.3138 51.23L114.638 13.301C115.247 13.051 115.794 13.145 115.999 13.535" fill="#1D1D1B"/>
<path d="M21.6544 52.277C21.4899 51.964 21.8259 51.431 22.3138 51.23L114.638 13.301C115.247 13.051 115.794 13.145 115.999 13.535" stroke="#1D1D1B"/>
</svg>
