<svg width="100" height="130" viewBox="0 0 100 130" fill="none" xmlns="http://www.w3.org/2000/svg">
<path d="M25.7658 94.1771L83.6133 125.136C80.3704 123.453 78.2113 120.764 78.2188 116.528L20.3713 85.576C20.3638 89.8121 22.5153 92.5011 25.7658 94.1771Z" fill="white"/>
<path d="M25.7658 94.1771L83.6133 125.136C80.3704 123.453 78.2113 120.764 78.2188 116.528L20.3713 85.576C20.3638 89.8121 22.5153 92.5011 25.7658 94.1771Z" stroke="#1D1D1B" stroke-linejoin="round"/>
<path d="M99.2607 130L99.5513 33.805L37.292 0L36.3395 0.545998L38.5201 96.884L99.2607 130Z" fill="#1D1D1B"/>
<path d="M99.2607 130L99.5513 33.805L37.292 0L36.3395 0.545998L38.5201 96.884L99.2607 130Z" stroke="#1D1D1B" stroke-width="0.5" stroke-linejoin="round"/>
<path d="M29.1153 92.712C29.2014 92.668 29.2864 92.623 29.3725 92.579L29.1153 92.712ZM30.028 92.255C30.1453 92.189 30.254 92.115 30.3713 92.049C30.254 92.115 30.1377 92.189 30.028 92.255ZM98.3814 34.498L98.5687 113.517L98.5611 113.672L98.5536 113.664C98.4912 117.776 96.1265 121.631 92.7243 123.79L92.8653 123.717C92.7329 123.805 92.5833 123.886 92.4434 123.967C92.3336 124.033 92.2335 124.1 92.1237 124.159C91.8977 124.284 91.663 124.402 91.4295 124.513C91.352 124.542 91.2809 124.587 91.211 124.616C91.2035 124.616 91.1948 124.624 91.1798 124.631L91.2034 124.616C90.2358 125.043 89.2133 125.345 88.1521 125.485C86.1857 125.75 84.7994 125.882 82.8233 124.687C82.8233 124.687 82.7049 124.638 82.6037 124.586L82.2765 124.417L25.1985 93.626C25.4483 93.641 25.7216 93.633 26.0488 93.589C27.1101 93.449 28.1326 93.146 29.1002 92.719L30.6372 91.879C34.0781 89.69 36.544 85.814 36.5515 81.65L36.3642 0.686035L98.3814 34.498Z" fill="white"/>
<path d="M29.1153 92.712C29.2014 92.668 29.2864 92.623 29.3725 92.579M30.028 92.255C30.1453 92.189 30.254 92.115 30.3713 92.049C30.254 92.115 30.1377 92.189 30.028 92.255ZM98.3814 34.498L98.5687 113.517L98.5611 113.672L98.5536 113.664C98.4912 117.776 96.1265 121.631 92.7243 123.79L92.8653 123.717C92.7329 123.805 92.5833 123.886 92.4434 123.967C92.3336 124.033 92.2335 124.1 92.1237 124.159C91.8977 124.284 91.663 124.402 91.4295 124.513C91.352 124.542 91.2809 124.587 91.211 124.616C91.2035 124.616 91.1948 124.624 91.1798 124.631L91.2034 124.616C90.2358 125.043 89.2133 125.345 88.1521 125.485C86.1857 125.75 84.7994 125.882 82.8233 124.687C82.8233 124.687 82.7049 124.638 82.6037 124.586L82.2765 124.417L25.1985 93.626C25.4483 93.641 25.7216 93.633 26.0488 93.589C27.1101 93.449 28.1326 93.146 29.1002 92.719L30.6372 91.879C34.0781 89.69 36.544 85.814 36.5515 81.65L36.3642 0.686035L98.3814 34.498Z" stroke="#1D1D1B" stroke-linejoin="round"/>
<path d="M25.7658 94.1771L83.6133 125.136C80.3704 123.453 78.2113 120.764 78.2188 116.528L20.3713 85.576C20.3638 89.8121 22.5153 92.5011 25.7658 94.1771Z" fill="#FCFFD0"/>
<path d="M25.7658 94.1771L83.6133 125.136C80.3704 123.453 78.2113 120.764 78.2188 116.528L20.3713 85.576C20.3638 89.8121 22.5153 92.5011 25.7658 94.1771Z" stroke="#1D1D1B" stroke-width="0.5" stroke-linejoin="round"/>
<path d="M85.5615 94.972C85.5615 94.33 85.0793 93.554 84.4862 93.226L66.6829 83.515C66.0899 83.187 65.6088 83.447 65.6088 84.089L65.5765 93.144C65.5765 93.786 66.0511 94.569 66.6442 94.89L84.4625 104.601C85.0556 104.929 85.5378 104.669 85.5378 104.027L85.5615 94.972Z" fill="#FCFFD0"/>
<path d="M85.5615 94.972C85.5615 94.33 85.0793 93.554 84.4862 93.226L66.6829 83.515C66.0899 83.187 65.6088 83.447 65.6088 84.089L65.5765 93.144C65.5765 93.786 66.0511 94.569 66.6442 94.89L84.4625 104.601C85.0556 104.929 85.5378 104.669 85.5378 104.027L85.5615 94.972Z" stroke="#1D1D1B" stroke-width="0.5" stroke-linecap="round" stroke-linejoin="round"/>
<path d="M67.2286 83.2109L85.047 92.9219C85.64 93.2429 86.1147 94.0269 86.1222 94.6689L86.0985 103.723C86.0985 104.044 85.9801 104.268 85.7907 104.372L85.2289 104.678C85.4183 104.574 85.5378 104.35 85.5378 104.029L85.5615 94.9749C85.5615 94.3329 85.0793 93.5559 84.4862 93.2279L66.6679 83.5169C66.3751 83.3599 66.1071 83.3459 65.9091 83.4499L66.4698 83.1439C66.6592 83.0319 66.9283 83.0469 67.2286 83.2109Z" fill="#1D1D1B"/>
<path d="M67.2286 83.2109L85.047 92.9219C85.64 93.2429 86.1147 94.0269 86.1222 94.6689L86.0985 103.723C86.0985 104.044 85.9801 104.268 85.7907 104.372L85.2289 104.678C85.4183 104.574 85.5378 104.35 85.5378 104.029L85.5615 94.9749C85.5615 94.3329 85.0793 93.5559 84.4862 93.2279L66.6679 83.5169C66.3751 83.3599 66.1071 83.3459 65.9091 83.4499L66.4698 83.1439C66.6592 83.0319 66.9283 83.0469 67.2286 83.2109Z" stroke="#1D1D1B" stroke-width="0.5" stroke-linecap="round" stroke-linejoin="round"/>
<path d="M65.0469 31.794C65.0469 31.152 64.5733 30.369 63.9803 30.048L46.1533 20.337C45.5603 20.009 45.0781 20.269 45.0781 20.911L45.0469 29.966C45.0469 30.608 45.5291 31.384 46.1221 31.712L63.948 41.423C64.5411 41.751 65.0232 41.491 65.0232 40.849L65.0469 31.794Z" fill="white"/>
<path d="M65.0469 31.794C65.0469 31.152 64.5733 30.369 63.9803 30.048L46.1533 20.337C45.5603 20.009 45.0781 20.269 45.0781 20.911L45.0469 29.966C45.0469 30.608 45.5291 31.384 46.1221 31.712L63.948 41.423C64.5411 41.751 65.0232 41.491 65.0232 40.849L65.0469 31.794Z" stroke="#1D1D1B" stroke-width="0.5" stroke-linecap="round" stroke-linejoin="round"/>
<path d="M46.7109 20.032L64.5292 29.743C65.1223 30.064 65.6045 30.848 65.6045 31.497L65.5732 40.551C65.5732 40.872 65.4549 41.097 65.2654 41.201L64.7036 41.507C64.9016 41.403 65.02 41.178 65.02 40.857L65.0437 31.803C65.0437 31.161 64.569 30.378 63.976 30.057L46.1576 20.338C45.8573 20.174 45.5807 20.159 45.3913 20.263L45.9445 19.957C46.1426 19.853 46.4106 19.868 46.7109 20.032Z" fill="#1D1D1B"/>
<path d="M46.7109 20.032L64.5292 29.743C65.1223 30.064 65.6045 30.848 65.6045 31.497L65.5732 40.551C65.5732 40.872 65.4549 41.097 65.2654 41.201L64.7036 41.507C64.9016 41.403 65.02 41.178 65.02 40.857L65.0437 31.803C65.0437 31.161 64.569 30.378 63.976 30.057L46.1576 20.338C45.8573 20.174 45.5807 20.159 45.3913 20.263L45.9445 19.957C46.1426 19.853 46.4106 19.868 46.7109 20.032Z" stroke="#1D1D1B" stroke-width="0.5" stroke-linecap="round" stroke-linejoin="round"/>
<path d="M86.4397 65.175C86.4397 64.533 85.9661 63.749 85.3731 63.428L45.9886 41.953C45.3956 41.625 44.9134 41.886 44.9134 42.528L44.8746 55.665C44.8746 56.307 45.3482 57.091 45.9413 57.412L85.3257 78.887C85.9188 79.215 86.4009 78.954 86.4009 78.312L86.4397 65.175Z" fill="white"/>
<path d="M86.4397 65.175C86.4397 64.533 85.9661 63.749 85.3731 63.428L45.9886 41.953C45.3956 41.625 44.9134 41.886 44.9134 42.528L44.8746 55.665C44.8746 56.307 45.3482 57.091 45.9413 57.412L85.3257 78.887C85.9188 79.215 86.4009 78.954 86.4009 78.312L86.4397 65.175Z" stroke="#1D1D1B" stroke-width="0.5" stroke-linecap="round" stroke-linejoin="round"/>
<path d="M46.5397 41.65L85.9317 63.124C86.5248 63.445 86.9994 64.222 87.0069 64.871L86.9671 78.008C86.9596 78.329 86.8401 78.554 86.6507 78.658L86.0899 78.964C86.288 78.86 86.4053 78.635 86.4053 78.314L86.4451 65.177C86.4451 64.535 85.9715 63.752 85.3785 63.431L45.9854 41.956C45.6927 41.799 45.4247 41.785 45.2266 41.889L45.7798 41.583C45.9693 41.471 46.2394 41.486 46.5397 41.65Z" fill="#1D1D1B"/>
<path d="M46.5397 41.65L85.9317 63.124C86.5248 63.445 86.9994 64.222 87.0069 64.871L86.9671 78.008C86.9596 78.329 86.8401 78.554 86.6507 78.658L86.0899 78.964C86.288 78.86 86.4053 78.635 86.4053 78.314L86.4451 65.177C86.4451 64.535 85.9715 63.752 85.3785 63.431L45.9854 41.956C45.6927 41.799 45.4247 41.785 45.2266 41.889L45.7798 41.583C45.9693 41.471 46.2394 41.486 46.5397 41.65Z" stroke="#1D1D1B" stroke-width="0.5" stroke-linecap="round" stroke-linejoin="round"/>
<path d="M71.4305 55.635L71.4069 63.211V63.517L71.3832 71.101" fill="#1D1D1B"/>
<path d="M71.4305 55.635L71.4069 63.211V63.517L71.3832 71.101" stroke="#1D1D1B" stroke-width="0.5"/>
<path d="M86.81 72L44.8337 49L86.81 72Z" fill="#1D1D1B"/>
<path d="M86.81 72L44.8337 49" stroke="#1D1D1B" stroke-width="0.5"/>
<path d="M84.4886 93.1387C85.0904 93.466 85.5799 94.2413 85.5799 94.8832L85.5558 103.926C85.5558 104.567 85.0671 104.828 84.4653 104.5L66.3794 94.8004C65.7776 94.4806 65.2954 93.6978 65.2954 93.0567L65.3275 84.0138C65.3275 83.3719 65.817 83.1117 66.4188 83.4398L84.4886 93.1387Z" fill="#FDFFD0"/>
<path d="M84.4886 93.1387C85.0904 93.466 85.5799 94.2413 85.5799 94.8832L85.5558 103.926C85.5558 104.567 85.0671 104.828 84.4653 104.5L66.3794 94.8004C65.7776 94.4806 65.2954 93.6978 65.2954 93.0567L65.3275 84.0138C65.3275 83.3719 65.817 83.1117 66.4188 83.4398L84.4886 93.1387Z" stroke="#1D1D1B" stroke-width="0.37275" stroke-linecap="round" stroke-linejoin="round"/>
<path d="M85.0582 92.8331L66.9723 83.1342C66.6673 82.9701 66.3945 82.9552 66.202 83.0671L65.6323 83.3727C65.8329 83.2683 66.1065 83.2825 66.4026 83.4398L84.4885 93.1388C85.0903 93.4668 85.5797 94.2421 85.5797 94.8832L85.5556 103.926C85.5556 104.247 85.4361 104.47 85.2427 104.575L85.8124 104.269C86.0058 104.165 86.1253 103.941 86.1253 103.62L86.1494 94.5776C86.1422 93.9357 85.66 93.1537 85.0582 92.8331Z" fill="#1D1D1B"/>
<path d="M85.0582 92.8331L66.9723 83.1342C66.6673 82.9701 66.3945 82.9552 66.202 83.0671L65.6323 83.3727C65.8329 83.2683 66.1065 83.2825 66.4026 83.4398L84.4885 93.1388C85.0903 93.4668 85.5797 94.2421 85.5797 94.8832L85.5556 103.926C85.5556 104.247 85.4361 104.47 85.2427 104.575L85.8124 104.269C86.0058 104.165 86.1253 103.941 86.1253 103.62L86.1494 94.5776C86.1422 93.9357 85.66 93.1537 85.0582 92.8331Z" stroke="#1D1D1B" stroke-width="0.37275" stroke-linecap="round" stroke-linejoin="round"/>
<path d="M81.4536 98.8579L82.0008 99.7406C81.6398 99.9009 81.196 99.9046 80.7154 99.7503C79.3594 99.3149 78.0707 97.8895 77.5307 96.2263C77.5115 96.163 77.4834 96.0608 77.4834 96.0608C77.4834 96.0608 77.3863 96.0086 77.3333 95.9803C77.0228 95.8208 76.7115 95.6501 76.3865 95.4756V94.8173L77.3245 95.3198V94.6503L76.3841 94.1456V93.4769C76.693 93.6432 76.9979 93.799 77.302 93.9734C77.3526 93.9995 77.4753 94.0703 77.4753 94.0703C77.4753 94.0703 77.5131 93.9965 77.5452 93.9287C78.2561 92.4862 80.4041 93.0401 81.8588 95.0343C81.9054 95.0991 81.9487 95.1655 81.9856 95.2177L81.4368 95.5062C80.8735 94.7316 80.2219 94.2239 79.503 94.08C78.9871 93.9764 78.6051 94.1277 78.3259 94.5124L80.1168 95.4741V96.1361L78.1181 95.0633V95.735L80.1144 96.8063V97.4653L78.3524 96.5208C78.5441 97.2037 79.1973 98.0289 79.7565 98.4293C80.3904 98.884 80.9593 99.0294 81.4536 98.8579Z" fill="#1D1D1B"/>
<path d="M2.23529 23.3149C2.23529 34.9369 12.4355 53.5339 23.0942 59.3449C28.718 62.4099 33.6421 60.3929 37.1692 58.1319C40.3282 56.1069 42.2569 52.1579 42.2569 46.6669C42.2569 35.0449 33.6163 20.9129 22.9565 15.1019C17.7396 12.2579 13.007 11.9349 9.53269 13.7079C5.90875 15.5579 2.23529 17.3809 2.23529 23.3149Z" fill="#1D1D1B"/>
<path d="M2.23529 23.3149C2.23529 34.9369 12.4355 53.5339 23.0942 59.3449C28.718 62.4099 33.6421 60.3929 37.1692 58.1319C40.3282 56.1069 42.2569 52.1579 42.2569 46.6669C42.2569 35.0449 33.6163 20.9129 22.9565 15.1019C17.7396 12.2579 13.007 11.9349 9.53269 13.7079C5.90875 15.5579 2.23529 17.3809 2.23529 23.3149Z" stroke="#1D1D1B" stroke-width="0.929"/>
<path d="M20.4342 16.6232C9.77435 10.7392 1.13263 15.3322 1.13263 26.8822C1.13263 38.4312 9.77435 52.5632 20.4342 58.4472C31.094 64.3302 39.7357 59.7372 39.7357 48.1882C39.7357 36.6392 31.094 22.5072 20.4342 16.6232Z" fill="white"/>
<mask id="mask0_1_965" style="mask-type:alpha" maskUnits="userSpaceOnUse" x="1" y="14" width="39" height="48">
<path d="M20.4342 16.6232C9.77435 10.7392 1.13263 15.3322 1.13263 26.8822C1.13263 38.4312 9.77435 52.5632 20.4342 58.4472C31.094 64.3302 39.7357 59.7372 39.7357 48.1882C39.7357 36.6392 31.094 22.5072 20.4342 16.6232Z" fill="white"/>
</mask>
<g mask="url(#mask0_1_965)">
<path d="M20.4342 16.6232C9.77435 10.7392 1.13263 15.3322 1.13263 26.8822C1.13263 38.4312 9.77435 52.5632 20.4342 58.4472C31.094 64.3302 39.7357 59.7372 39.7357 48.1882C39.7357 36.6392 31.094 22.5072 20.4342 16.6232Z" fill="#F4F8AC"/>
</g>
<path d="M20.4342 16.6232C9.77435 10.7392 1.13263 15.3322 1.13263 26.8822C1.13263 38.4312 9.77435 52.5632 20.4342 58.4472C31.094 64.3302 39.7357 59.7372 39.7357 48.1882C39.7357 36.6392 31.094 22.5072 20.4342 16.6232Z" stroke="#1D1D1B"/>
<path d="M20.3233 45.5828L18.5915 46.4998C18.6862 46.4488 18.7712 46.3828 18.8423 46.3048L20.5741 45.3878C20.503 45.4658 20.418 45.5318 20.3233 45.5828Z" fill="white"/>
<path d="M20.3233 45.5828L18.5915 46.4998C18.6862 46.4488 18.7712 46.3828 18.8423 46.3048L20.5741 45.3878C20.503 45.4658 20.418 45.5318 20.3233 45.5828Z" stroke="#1D1D1B" stroke-width="0.464" stroke-miterlimit="10"/>
<path d="M15.5132 34.8368C15.1333 34.2238 14.635 33.7488 14.1355 33.4768C13.6361 33.2048 13.1367 33.1348 12.7557 33.3328L11.0239 34.2498C11.406 34.0518 11.9054 34.1188 12.4048 34.3908C12.9042 34.6638 13.4026 35.1388 13.7825 35.7528L17.0577 41.0438L18.7884 40.1278L15.5132 34.8368Z" fill="#1D1D1B"/>
<path d="M15.5132 34.8368C15.1333 34.2238 14.635 33.7488 14.1355 33.4768C13.6361 33.2048 13.1367 33.1348 12.7557 33.3328L11.0239 34.2498C11.406 34.0518 11.9054 34.1188 12.4048 34.3908C12.9042 34.6638 13.4026 35.1388 13.7825 35.7528L17.0577 41.0438L18.7884 40.1278L15.5132 34.8368Z" stroke="#1D1D1B" stroke-width="0.464" stroke-miterlimit="10"/>
<path d="M27.0201 34.3588C27.4409 34.5878 27.865 34.9628 28.2202 35.4538C29.0586 36.6158 29.1986 37.9908 28.5312 38.5248L18.8423 46.2388C18.7702 46.3188 18.683 46.3858 18.585 46.4368C18.2029 46.6348 17.7035 46.5678 17.2041 46.2968C16.7058 46.0258 16.2064 45.5538 15.8286 44.9428L11.0153 37.1918C10.2554 35.9708 10.2587 34.6568 11.0239 34.2618C11.4049 34.0638 11.9044 34.1308 12.4048 34.4018C12.9043 34.6728 13.4015 35.1448 13.7814 35.7568L17.0567 41.0308L25.4939 34.3178C25.8781 34.0088 26.4464 34.0478 27.0201 34.3588Z" fill="white"/>
<path d="M27.0201 34.3588C27.4409 34.5878 27.865 34.9628 28.2202 35.4538C29.0586 36.6158 29.1986 37.9908 28.5312 38.5248L18.8423 46.2388C18.7702 46.3188 18.683 46.3858 18.585 46.4368C18.2029 46.6348 17.7035 46.5678 17.2041 46.2968C16.7058 46.0258 16.2064 45.5538 15.8286 44.9428L11.0153 37.1918C10.2554 35.9708 10.2587 34.6568 11.0239 34.2618C11.4049 34.0638 11.9044 34.1308 12.4048 34.4018C12.9043 34.6728 13.4015 35.1448 13.7814 35.7568L17.0567 41.0308L25.4939 34.3178C25.8781 34.0088 26.4464 34.0478 27.0201 34.3588Z" stroke="#1D1D1B" stroke-width="0.5" stroke-miterlimit="10"/>
<path d="M29.9585 34.4788C29.6033 33.9858 29.1803 33.6078 28.7584 33.3788C28.2536 33.1028 27.7531 33.0388 27.3775 33.2378L25.6467 34.1528C26.0213 33.9548 26.5229 34.0188 27.0277 34.2948C27.4485 34.5248 27.8726 34.9018 28.2277 35.3948C29.0662 36.5628 29.205 37.9418 28.5388 38.4768L18.8488 46.1968L20.5795 45.2808L30.2695 37.5618C30.9358 37.0258 30.7969 35.6468 29.9585 34.4788Z" fill="#1D1D1B"/>
<path d="M29.9585 34.4788C29.6033 33.9858 29.1803 33.6078 28.7584 33.3788C28.2536 33.1028 27.7531 33.0388 27.3775 33.2378L25.6467 34.1528C26.0213 33.9548 26.5229 34.0188 27.0277 34.2948C27.4485 34.5248 27.8726 34.9018 28.2277 35.3948C29.0662 36.5628 29.205 37.9418 28.5388 38.4768L18.8488 46.1968L20.5795 45.2808L30.2695 37.5618C30.9358 37.0258 30.7969 35.6468 29.9585 34.4788Z" stroke="#1D1D1B" stroke-width="0.464" stroke-miterlimit="10"/>
</svg>
