<svg width="113" height="130" viewBox="0 0 113 130" fill="none" xmlns="http://www.w3.org/2000/svg">
<path d="M65.8308 76.6165L67.9576 75.9344L70.0728 78.9064L72.1996 78.2243L74.3137 81.1962L76.4426 80.5151L78.5833 83.4713L80.7101 82.7892L82.8253 85.7611L84.9532 85.079L87.0662 88.05L89.1951 87.3679L91.3358 90.3241L93.4648 89.6429L95.6065 92.5991L97.7334 91.9179L99.8762 94.8741L102.004 94.192L104.118 97.164L106.246 96.4818L108.387 99.438L108.832 23.3832L106.704 24.0653L104.591 21.0933L102.462 21.7755L100.322 18.8193L98.1926 19.5004L95.988 16.5067L93.8612 17.1888L91.7311 14.1911L89.6032 14.8732L87.4455 11.8893L85.3165 12.5714L83.2035 9.59945L81.0756 10.2816L78.9328 7.32542L76.806 8.00654L74.693 5.03654L72.564 5.71766L70.451 2.74667L68.3231 3.42779L66.045 0.437988L65.8308 76.6165Z" fill="white"/>
<path d="M65.8308 76.6165L66.045 0.437988L68.3231 3.42779L70.451 2.74568L72.564 5.71766L74.693 5.03555L76.806 8.00753L78.9328 7.32542L81.0756 10.2816L83.2035 9.60044L85.3165 12.5714L87.4455 11.8893L89.6032 14.8722L91.7322 14.1911L93.8612 17.1888L95.9901 16.5067L98.1926 19.5014L100.322 18.8193L102.462 21.7755L104.591 21.0933L106.704 24.0653L108.832 23.3832L108.387 99.438L106.246 96.4818L104.117 97.163L102.004 94.192L99.8762 94.8731L97.7334 91.9179L95.6065 92.5991L93.4648 89.6429L91.3358 90.325L89.193 87.3689L87.0662 88.05L84.9532 85.079L82.8253 85.7601L80.7123 82.7892L78.5833 83.4703L76.4416 80.5141L74.3137 81.1962L72.1996 78.2243L70.0706 78.9064L67.9576 75.9354L65.8308 76.6165Z" stroke="#1D1D1B" stroke-width="0.495" stroke-linejoin="round"/>
<path d="M72.2518 70.3895L72.9743 70.7775L72.9732 63.0466L72.2518 62.6595V70.3895Z" fill="#1D1D1B"/>
<path d="M88.2798 78.9886L89.0022 79.3767L89.0012 71.6458L88.2798 71.2587V78.9886Z" fill="#1D1D1B"/>
<path d="M95.4851 82.8525L96.2054 83.2386V75.5087L95.4851 75.1226V82.8525Z" fill="#1D1D1B"/>
<path d="M73.6924 71.1636L74.4148 71.5507L74.4138 63.8208L73.6924 63.4347V71.1636Z" fill="#1D1D1B"/>
<path d="M89.7225 79.7628L90.4428 80.1499V72.419L89.7225 72.0319V79.7628Z" fill="#1D1D1B"/>
<path d="M96.9257 83.6277L97.646 84.0148V76.2849L96.9257 75.8988V83.6277Z" fill="#1D1D1B"/>
<path d="M78.3755 73.6762L78.7356 73.8693V66.1403L78.3755 65.9463V73.6762Z" fill="#1D1D1B"/>
<path d="M94.4036 82.2743L94.7637 82.4674V74.7385L94.4036 74.5454V82.2743Z" fill="#1D1D1B"/>
<path d="M101.608 86.1384L101.968 86.3304L101.967 78.6025L101.608 78.4084V86.1384Z" fill="#1D1D1B"/>
<path d="M81.9771 75.6077L82.6995 75.9948L82.6984 68.2639L81.9771 67.8768V75.6077Z" fill="#1D1D1B"/>
<path d="M83.4188 76.3799L84.1391 76.767V69.0371L83.4188 68.651V76.3799Z" fill="#1D1D1B"/>
<path d="M84.8594 77.1521L85.5797 77.5392V69.8093L84.8594 69.4232V77.1521Z" fill="#1D1D1B"/>
<path d="M87.7406 70.9695L85.9398 70.0023V77.7312L87.7406 78.6975V70.9695Z" fill="#1D1D1B"/>
<path d="M77.2951 65.3652L75.1342 64.2059V71.9349L77.2951 73.0942V65.3652Z" fill="#1D1D1B"/>
<path d="M93.3241 73.9643L91.1632 72.8051V80.534L93.3241 81.6933V73.9643Z" fill="#1D1D1B"/>
<path d="M100.527 77.8282L98.3663 76.6689V84.3989L100.527 85.5591V77.8282Z" fill="#1D1D1B"/>
<path d="M81.2568 67.4927L79.8162 66.7195V74.4494L81.2568 75.2216V67.4927Z" fill="#1D1D1B"/>
<path d="M94.0424 64.6622V69.4875L103.553 74.59V69.7637L94.0424 64.6622Z" fill="#EBEBE8"/>
<path d="M70.6663 40.5558V42.6813L94.4387 55.4335V53.309L70.6663 40.5558Z" fill="#EBEBE8"/>
<path d="M98.4004 55.4344V57.56L103.551 60.3231V58.1975L98.4004 55.4344Z" fill="#EBEBE8"/>
<path d="M70.6663 33.7545V35.881L86.9095 44.595V42.4705L70.6663 33.7545Z" fill="#EBEBE8"/>
<path d="M98.4004 48.6342V50.7597L103.551 53.5228V51.3972L98.4004 48.6342Z" fill="#EBEBE8"/>
<path d="M70.6652 26.9531V29.0787L90.4759 39.7063V37.5808L70.6652 26.9531Z" fill="#EBEBE8"/>
<path d="M98.4015 41.8339V43.9594L103.552 46.7225V44.597L98.4015 41.8339Z" fill="#EBEBE8"/>
<path d="M70.6674 43.9564V46.082L82.1561 52.2467V50.1212L70.6674 43.9564Z" fill="#EBEBE8"/>
<path d="M98.4015 58.8341V60.9596L103.552 63.7227V61.5972L98.4015 58.8341Z" fill="#EBEBE8"/>
<path d="M70.6663 37.1561V39.2817L82.155 45.4464V43.3209L70.6663 37.1561Z" fill="#EBEBE8"/>
<path d="M98.4004 52.0328V54.1584L103.551 56.9215V54.7959L98.4004 52.0328Z" fill="#EBEBE8"/>
<path d="M70.6674 30.3538V32.4803L79.3836 37.157V35.0305L70.6674 30.3538Z" fill="#EBEBE8"/>
<path d="M98.4004 45.2325V47.3581L103.551 50.1212V47.9956L98.4004 45.2325Z" fill="#EBEBE8"/>
<path d="M80.5695 19.939V24.19L94.0423 31.417V27.167L80.5695 19.939Z" fill="#EBEBE8"/>
<path d="M76.2124 22.7051V24.8306L98.3993 36.7334V34.6078L76.2124 22.7051Z" fill="#EBEBE8"/>
<path d="M108.157 23.7036L35.7001 35.5836L66.0682 2.41858" stroke="black" stroke-width="0.99" stroke-dasharray="2.97 5.94"/>
<path d="M106.559 96.9636L35.7001 35.5836L65.5355 77.1636" stroke="black" stroke-width="0.99" stroke-dasharray="2.97 5.94"/>
<mask id="mask0_1_1076" style="mask-type:alpha" maskUnits="userSpaceOnUse" x="44" y="0" width="71" height="102">
<mask id="mask1_1_1076" style="mask-type:alpha" maskUnits="userSpaceOnUse" x="44" y="-3" width="71" height="105">
<path d="M46.7917 24.2505L67.5108 -0.249512" stroke="white" stroke-width="4" stroke-linecap="round"/>
<path d="M52.4424 32.5005L112.716 23.0005" stroke="white" stroke-width="4" stroke-linecap="round"/>
<path d="M53.7877 50.2505L109.083 99.3754" stroke="white" stroke-width="4" stroke-linecap="round"/>
<path d="M51.3661 58.0005C52.7115 58.7505 66.1654 77.0005 66.1654 77.0005" stroke="white" stroke-width="4" stroke-linecap="round"/>
</mask>
<g mask="url(#mask1_1_1076)">
<path d="M160.881 0.000488281H-52.2289V130H160.881V0.000488281Z" fill="white"/>
</g>
</mask>
<g mask="url(#mask0_1_1076)">
<path d="M108.157 23.7036L35.7001 35.5836L66.0682 2.41858" stroke="black" stroke-width="0.99" stroke-dasharray="2.97 5.94"/>
<path d="M106.559 96.9636L35.7001 35.5836L65.5355 77.1636" stroke="black" stroke-width="0.99" stroke-dasharray="2.97 5.94"/>
</g>
<path d="M45.7269 128.86L45.6981 128.845C45.647 128.829 45.6012 128.813 45.549 128.792L4.24612 106.848C1.91789 105.421 0.525216 102.998 0.536939 100.409L0.565707 5.00152C0.577428 4.8253 0.606198 4.66096 0.645624 4.50058C1.17307 0.9643 5.70699 -1.01174 9.17535 0.847476L9.23289 0.879161C9.27338 0.900937 9.31281 0.910839 9.3533 0.932622L50.6167 22.8918C52.9034 24.2976 54.2737 26.6786 54.262 29.2298L54.1874 124.297C54.1874 124.478 54.165 124.648 54.1362 124.818C53.8549 128.568 49.304 130.778 45.7269 128.86Z" fill="#FDFFD0"/>
<path d="M45.7269 128.861L45.6981 128.845C45.647 128.829 45.6012 128.814 45.549 128.793L4.24612 106.849C1.91789 105.422 0.525216 102.999 0.536939 100.41L0.565707 5.00155C0.577428 4.82533 0.606198 4.66099 0.645624 4.50061C1.17307 0.964328 5.70699 -1.01072 9.17535 0.848501L9.23289 0.880178C9.27338 0.901962 9.31281 0.911864 9.3533 0.933639L50.6167 22.8918C52.9034 24.2976 54.2737 26.6786 54.262 29.2298L54.1874 124.298C54.1874 124.479 54.165 124.648 54.1362 124.818C53.8549 128.568 49.304 130.779 45.7269 128.861Z" stroke="#1D1D1B" stroke-width="0.99"/>
<path d="M49.9166 27.324C49.2858 26.3073 48.4036 25.4282 47.3146 24.7569C31.8481 16.4667 21.736 10.9742 6.26958 2.6839C4.85346 1.94339 3.48849 1.83053 2.42294 2.36908C1.48845 2.83735 0.909861 3.75409 0.828879 4.88764V4.89358L0.800109 100.301C0.789453 102.937 2.19918 105.384 4.56683 106.837L45.6523 128.899C46.9651 129.443 48.444 129.374 49.5266 128.725C50.4324 128.181 50.931 127.308 50.9374 126.27L51.012 31.2018C51.0173 29.8059 50.6337 28.4793 49.9166 27.324Z" fill="#FDFFD0"/>
<path d="M49.9166 27.324C49.2858 26.3073 48.4036 25.4282 47.3146 24.7569C31.8481 16.4667 21.736 10.9742 6.26958 2.6839C4.85346 1.94339 3.48849 1.83053 2.42294 2.36908C1.48845 2.83735 0.909861 3.75409 0.828879 4.88764V4.89358L0.800109 100.301C0.789453 102.937 2.19918 105.384 4.56683 106.837L45.6523 128.899C46.9651 129.443 48.444 129.374 49.5266 128.725C50.4324 128.181 50.931 127.308 50.9374 126.27L51.012 31.2018C51.0173 29.8059 50.6337 28.4793 49.9166 27.324Z" stroke="#1D1D1B" stroke-width="0.495"/>
<path d="M44.9394 125.854L5.41287 105.208C3.7293 104.206 2.71702 102.51 2.72342 100.692L2.79268 7.0855C2.91202 5.50744 4.51141 4.55506 6.59776 5.60446L14.6533 9.81493L14.6469 11.0891C14.6405 12.582 15.6432 14.3204 16.8878 14.9709L34.7229 24.2937C35.9675 24.9441 36.9734 24.262 36.9798 22.7691L36.9851 21.5019L46.0966 26.2668C47.7557 27.2528 48.7456 28.9219 48.7339 30.7128L48.6273 124.085C48.6326 125.78 46.5218 126.792 44.9394 125.854Z" fill="white"/>
<path d="M44.9394 125.854L5.41287 105.208C3.7293 104.206 2.71702 102.51 2.72342 100.692L2.79268 7.0855C2.91202 5.50744 4.51141 4.55506 6.59776 5.60446L14.6533 9.81493L14.6469 11.0891C14.6405 12.582 15.6432 14.3204 16.8878 14.9709L34.7229 24.2937C35.9675 24.9441 36.9734 24.262 36.9798 22.7691L36.9851 21.5019L46.0966 26.2668C47.7557 27.2528 48.7456 28.9219 48.7339 30.7128L48.6273 124.085C48.6326 125.78 46.5218 126.792 44.9394 125.854Z" stroke="#1D1D1B" stroke-width="0.495" stroke-miterlimit="10"/>
<path d="M23.9013 96.4666C26.9584 98.1071 29.4379 102.096 29.4379 105.376C29.4379 108.656 26.9594 109.985 23.9013 108.346C20.8442 106.705 18.3668 102.717 18.3668 99.4356C18.3668 96.1558 20.8442 94.8262 23.9013 96.4666Z" fill="#FDFFD0"/>
<path d="M23.9013 96.4666C26.9584 98.1071 29.4379 102.096 29.4379 105.376C29.4379 108.656 26.9594 109.985 23.9013 108.346C20.8442 106.705 18.3668 102.717 18.3668 99.4356C18.3668 96.1558 20.8442 94.8262 23.9013 96.4666Z" stroke="#1D1D1B" stroke-width="0.495"/>
<path d="M23.9013 97.5556C26.3979 98.8951 28.4214 102.151 28.4214 104.83C28.4214 107.508 26.3979 108.593 23.9013 107.254C21.4047 105.914 19.3812 102.657 19.3812 99.9791C19.3812 97.3012 21.4047 96.2161 23.9013 97.5556Z" fill="white"/>
<path d="M23.9013 97.5556C26.3979 98.8951 28.4214 102.151 28.4214 104.83C28.4214 107.508 26.3979 108.593 23.9013 107.254C21.4047 105.914 19.3812 102.657 19.3812 99.9791C19.3812 97.3012 21.4047 96.2161 23.9013 97.5556Z" stroke="#1D1D1B" stroke-width="0.495"/>
<path d="M30.9702 19.2783L23.1309 14.9698C22.8794 14.8312 22.6727 14.9748 22.6727 15.2896C22.6727 15.6034 22.8731 15.9717 23.1256 16.1044L30.9648 20.4128C31.2163 20.5514 31.423 20.4069 31.423 20.0931C31.423 19.7793 31.2227 19.411 30.9702 19.2783Z" fill="white"/>
<path d="M30.9702 19.2783L23.1309 14.9698C22.8794 14.8312 22.6727 14.9748 22.6727 15.2896C22.6727 15.6034 22.8731 15.9717 23.1256 16.1044L30.9648 20.4129C31.2163 20.5514 31.423 20.4069 31.423 20.0931C31.423 19.7792 31.2227 19.411 30.9702 19.2783Z" stroke="#1D1D1B" stroke-width="0.495"/>
<path d="M20.9497 13.7066L20.9038 13.6799C20.6513 13.5413 20.4446 13.6858 20.4446 13.9997C20.4446 14.3135 20.646 14.6818 20.8985 14.8154L20.9443 14.8421C21.1958 14.9807 21.4025 14.8362 21.4025 14.5224C21.4025 14.2135 21.2022 13.8452 20.9497 13.7066Z" fill="white"/>
<path d="M20.9497 13.7066L20.9038 13.6799C20.6513 13.5413 20.4446 13.6858 20.4446 13.9997C20.4446 14.3135 20.646 14.6818 20.8985 14.8154L20.9443 14.8421C21.1958 14.9807 21.4025 14.8362 21.4025 14.5224C21.4025 14.2135 21.2022 13.8452 20.9497 13.7066Z" stroke="#1D1D1B" stroke-width="0.495"/>
<path d="M8.75659 79.9751L8.92495 20.4642L10.7034 22.8006L12.3656 22.268L14.0172 24.5886L15.6795 24.0569L17.33 26.3775L18.9923 25.8449L20.6662 28.1546L22.3285 27.6219L23.979 29.9435L25.6413 29.4109L27.3281 31.7413L28.9903 31.2087L30.6536 33.5501L32.317 33.0174L34.0378 35.3568L35.7001 34.8242L37.373 37.1339L39.0363 36.6012L40.6869 38.9228L42.3491 38.3902L42.0018 97.803L40.3288 95.4934L38.6655 96.026L37.015 93.7044L35.3527 94.2371L33.6798 91.9284L32.0165 92.461L30.3436 90.1513L28.6813 90.684L27.0084 88.3743L25.3461 88.9069L23.6945 86.5854L22.0323 87.118L20.3817 84.7974L18.7184 85.329L17.0455 83.0204L15.3832 83.553L13.7327 81.2314L12.0705 81.764L10.4188 79.4425L8.75659 79.9751Z" fill="white"/>
<path d="M8.75659 79.9751L8.92495 20.4642L10.7034 22.8006L12.3656 22.268L14.0172 24.5886L15.6795 24.0569L17.33 26.3775L18.9923 25.8449L20.6662 28.1546L22.3285 27.6219L23.979 29.9435L25.6413 29.4109L27.3281 31.7413L28.9903 31.2087L30.6536 33.5501L32.317 33.0174L34.0378 35.3568L35.7001 34.8242L37.373 37.1339L39.0363 36.6012L40.6869 38.9228L42.3491 38.3902L42.0018 97.803L40.3288 95.4934L38.6655 96.026L37.015 93.7044L35.3527 94.2371L33.6798 91.9284L32.0165 92.461L30.3436 90.1513L28.6813 90.6839L27.0084 88.3743L25.3461 88.9069L23.6945 86.5853L22.0323 87.118L20.3817 84.7974L18.7184 85.329L17.0455 83.0204L15.3832 83.553L13.7327 81.2314L12.0705 81.764L10.4188 79.4425L8.75659 79.9751Z" stroke="#1D1D1B" stroke-width="0.44649" stroke-linejoin="round"/>
<path d="M13.7743 75.1113L14.3369 75.4132V69.3752L13.7743 69.0732V75.1113Z" fill="#1D1D1B"/>
<path d="M26.2955 81.8294L26.8581 82.1313V76.0933L26.2955 75.7914V81.8294Z" fill="#1D1D1B"/>
<path d="M31.9227 84.8479L32.4853 85.1499V79.1119L31.9227 78.8099V84.8479Z" fill="#1D1D1B"/>
<path d="M14.8995 75.7151L15.4621 76.0171V69.9791L14.8995 69.6771V75.7151Z" fill="#1D1D1B"/>
<path d="M27.4208 82.4313L27.9834 82.7342V76.6952L27.4208 76.3943V82.4313Z" fill="#1D1D1B"/>
<path d="M33.049 85.4528L33.6116 85.7548V79.7167L33.049 79.4148V85.4528Z" fill="#1D1D1B"/>
<path d="M18.5576 77.6773L18.84 77.8288V71.7908L18.5565 71.6393L18.5576 77.6773Z" fill="#1D1D1B"/>
<path d="M31.0789 84.3945L31.3602 84.5459V78.5079L31.0789 78.3564V84.3945Z" fill="#1D1D1B"/>
<path d="M36.707 87.414L36.9883 87.5645V81.5265L36.707 81.375V87.414Z" fill="#1D1D1B"/>
<path d="M21.3717 79.1861L21.9343 79.488V73.45L21.3717 73.1481V79.1861Z" fill="#1D1D1B"/>
<path d="M22.4968 79.7909L23.0594 80.0929V74.0549L22.4968 73.7529V79.7909Z" fill="#1D1D1B"/>
<path d="M23.6221 80.3948L24.1847 80.6968V74.6588L23.6221 74.3568V80.3948Z" fill="#1D1D1B"/>
<path d="M25.8746 75.5627L24.4659 74.8093L24.467 80.8473L25.8746 81.6007V75.5627Z" fill="#1D1D1B"/>
<path d="M17.7125 71.1859L16.0247 70.28V76.318L17.7125 77.2239V71.1859Z" fill="#1D1D1B"/>
<path d="M30.2339 77.903L28.546 76.9972V83.0352L30.2339 83.9411V77.903Z" fill="#1D1D1B"/>
<path d="M35.862 80.9236L34.1742 80.0177V86.0557L35.862 86.9616V80.9236Z" fill="#1D1D1B"/>
<path d="M20.8091 72.8461L19.6838 72.2422V78.2812L20.8091 78.8851V72.8461Z" fill="#1D1D1B"/>
<path d="M30.7975 70.6365V74.4064L38.2265 78.3921V74.6222L30.7975 70.6365Z" fill="#EBEBE8"/>
<path d="M12.535 51.8057V53.4659L31.1065 63.4283V61.768L12.535 51.8057Z" fill="#EBEBE8"/>
<path d="M34.2009 63.4282V65.0885L38.2266 67.2476V65.5864L34.2009 63.4282Z" fill="#EBEBE8"/>
<path d="M12.535 46.4923V48.1525L25.2257 54.9608V53.2995L12.535 46.4923Z" fill="#EBEBE8"/>
<path d="M34.2009 58.1149V59.7751L38.2266 61.9343V60.2731L34.2009 58.1149Z" fill="#EBEBE8"/>
<path d="M12.5339 41.178V42.8382L28.01 51.1413V49.4811L12.5339 41.178Z" fill="#EBEBE8"/>
<path d="M34.2009 52.8026V54.4628L38.2266 56.622V54.9618L34.2009 52.8026Z" fill="#EBEBE8"/>
<path d="M12.535 54.4618V56.122L21.5112 60.9384V59.2781L12.535 54.4618Z" fill="#EBEBE8"/>
<path d="M34.2009 66.0845V67.7447L38.2266 69.9039V68.2427L34.2009 66.0845Z" fill="#EBEBE8"/>
<path d="M12.535 49.1484V50.8087L21.5112 55.625V53.9648L12.535 49.1484Z" fill="#EBEBE8"/>
<path d="M34.2009 60.7711V62.4313L38.2266 64.5905V62.9303L34.2009 60.7711Z" fill="#EBEBE8"/>
<path d="M12.5361 43.8342V45.4945L19.345 49.1485V47.4883L12.5361 43.8342Z" fill="#EBEBE8"/>
<path d="M34.2009 55.4578V57.118L38.2266 59.2772V57.617L34.2009 55.4578Z" fill="#EBEBE8"/>
<path d="M20.272 35.6984V39.0198L30.7953 44.6658V41.3443L20.272 35.6984Z" fill="#EBEBE8"/>
<path d="M16.8676 37.8575V39.5188L34.1998 48.8168V47.1556L16.8676 37.8575Z" fill="#EBEBE8"/>
<path d="M37.0751 53.9227L33.251 55.9877C32.7344 56.2657 32.4158 56.8577 32.4136 57.6987L32.3856 66.5417C32.3803 68.2357 33.6621 70.2987 35.2476 71.1487L60.5506 84.3407C61.3761 84.7827 62.1231 84.8107 62.6483 84.4967L66.4186 82.4617C66.9331 82.1827 67.2538 81.5907 67.256 80.7507H67.2581L67.2851 71.9077C67.2904 70.2137 66.0085 68.1517 64.4199 67.2997L39.119 54.1077C38.3215 53.6797 37.5982 53.6407 37.0751 53.9227Z" fill="#1D1D1B"/>
<path d="M37.0751 53.9227L33.251 55.9877C32.7344 56.2657 32.4158 56.8577 32.4136 57.6987L32.3856 66.5417C32.3803 68.2357 33.6621 70.2987 35.2476 71.1487L60.5506 84.3407C61.3761 84.7827 62.1231 84.8107 62.6483 84.4967L66.4186 82.4617C66.9331 82.1827 67.2538 81.5907 67.256 80.7507H67.2581L67.2851 71.9077C67.2904 70.2137 66.0085 68.1517 64.4199 67.2997L39.119 54.1077C38.3215 53.6797 37.5982 53.6407 37.0751 53.9227Z" stroke="#1D1D1B" stroke-miterlimit="10"/>
<path d="M35.2401 55.9367C33.6536 55.0867 32.362 55.7687 32.3566 57.4627L32.3286 66.3037C32.3232 67.9977 33.6062 70.0617 35.1916 70.9117L60.5528 84.3407C62.1382 85.1907 63.4297 84.5087 63.4351 82.8147L63.461 73.9737C63.4663 72.2797 62.1855 70.2157 60.599 69.3657L35.2401 55.9367Z" fill="#F4F8AC"/>
<path d="M35.2401 55.9367C33.6536 55.0867 32.362 55.7687 32.3566 57.4627L32.3286 66.3037C32.3232 67.9977 33.6062 70.0617 35.1916 70.9117L60.5528 84.3407C62.1382 85.1907 63.4297 84.5087 63.4351 82.8147L63.461 73.9737C63.4663 72.2797 62.1855 70.2157 60.599 69.3657L35.2401 55.9367Z" stroke="#1D1D1B" stroke-width="0.5" stroke-miterlimit="10"/>
<path d="M37.0924 62.0148L37.8232 62.4068L37.8243 67.3348L36.9891 66.8868V63.5548L35.9451 62.9948V62.3228C36.9364 62.8548 37.0009 62.6798 37.0924 62.0148ZM40.6453 63.8648C41.8723 64.5228 42.5246 65.9508 42.5246 67.3928C42.5246 68.8348 41.8723 69.5628 40.6453 68.9048C39.4183 68.2468 38.7661 66.8178 38.7661 65.3758C38.7661 63.9338 39.4183 63.2068 40.6453 63.8648ZM40.6453 68.0648C41.3438 68.4398 41.6893 67.9318 41.6893 66.9448C41.6893 65.9578 41.3438 65.0798 40.6453 64.7048C39.9468 64.3298 39.6013 64.8368 39.6013 65.8238C39.6013 66.8108 39.9468 67.6898 40.6453 68.0648ZM44.0981 68.0688C43.4846 67.7398 43.0477 66.9868 43.0477 66.3288C43.0477 65.6778 43.4846 65.3878 44.0981 65.7168C44.7052 66.0428 45.1357 66.7988 45.1357 67.4498C45.1357 68.1078 44.7052 68.3948 44.0981 68.0688ZM44.2488 70.7818L43.6224 70.4458L46.5446 67.0858L47.171 67.4218L44.2488 70.7818ZM44.0917 67.5048C44.3726 67.6558 44.5609 67.4638 44.5609 67.1418C44.5609 66.8198 44.3726 66.4248 44.0917 66.2738C43.8108 66.1238 43.6213 66.3148 43.6213 66.6368C43.6213 66.9588 43.8108 67.3548 44.0917 67.5048ZM46.7082 72.1568C46.0947 71.8278 45.6577 71.0758 45.6577 70.4178C45.6577 69.7668 46.0947 69.4758 46.7082 69.8048C47.3152 70.1308 47.7458 70.8868 47.7458 71.5378C47.7458 72.1958 47.3152 72.4828 46.7082 72.1568ZM46.7017 71.5938C46.9826 71.7438 47.171 71.5518 47.171 71.2298C47.171 70.9078 46.9826 70.5118 46.7017 70.3618C46.4208 70.2108 46.2314 70.4038 46.2314 70.7258C46.2314 71.0478 46.4208 71.4438 46.7017 71.5938Z" fill="#1D1D1B"/>
<path d="M53.3716 73.2398C53.1746 72.9258 52.9163 72.6818 52.6569 72.5438C52.3986 72.4058 52.1392 72.3718 51.9412 72.4758L51.1705 72.8888C51.0726 72.9068 50.9714 72.9418 50.867 72.9968C50.4709 73.2038 50.3418 73.8008 50.7357 74.4288L52.658 77.2718C52.8539 77.5858 53.1133 77.8288 53.3716 77.9668C53.6299 78.1048 53.8882 78.1378 54.0863 78.0338C54.1369 78.0068 54.1821 77.9718 54.2197 77.9308L54.2273 77.9248L60.4979 73.3508C60.8434 73.0718 61.0382 72.6328 60.697 72.1648C60.5129 71.9118 60.2288 71.6528 60.0103 71.5368C59.3882 71.2038 58.7381 71.7908 58.271 72.1688L54.5243 74.8968L53.3716 73.2398ZM52.3954 73.6098C52.3814 73.5868 52.3663 73.5638 52.3512 73.5418C52.3943 73.5978 52.4352 73.6578 52.4739 73.7198L52.7947 74.2298L52.3954 73.6098Z" fill="#1D1D1B"/>
<path d="M53.3716 73.2398C53.1746 72.9258 52.9163 72.6818 52.6569 72.5438C52.3986 72.4058 52.1392 72.3718 51.9412 72.4758L51.1705 72.8888C51.0726 72.9068 50.9714 72.9418 50.867 72.9968C50.4709 73.2038 50.3418 73.8008 50.7357 74.4288L52.658 77.2718C52.8539 77.5858 53.1133 77.8288 53.3716 77.9668C53.6299 78.1048 53.8882 78.1378 54.0863 78.0338C54.1369 78.0068 54.1821 77.9718 54.2197 77.9308L54.2273 77.9248L60.4979 73.3508C60.8434 73.0718 61.0382 72.6328 60.697 72.1648C60.5129 71.9118 60.2288 71.6528 60.0103 71.5368C59.3882 71.2038 58.7381 71.7908 58.271 72.1688L54.5243 74.8968L53.3716 73.2398ZM52.3954 73.6098C52.3814 73.5868 52.3663 73.5638 52.3512 73.5418C52.3943 73.5978 52.4352 73.6578 52.4739 73.7198L52.7947 74.2298L52.3954 73.6098Z" stroke="#1D1D1B" stroke-width="0.5" stroke-miterlimit="10"/>
<path d="M59.4658 71.9038C59.6843 72.0208 59.9038 72.2128 60.0879 72.4648C60.5227 73.0628 60.1073 73.6238 59.7618 73.9018L54.2198 77.9308C54.1822 77.9718 54.137 78.0068 54.0864 78.0338C53.8883 78.1378 53.6289 78.1048 53.3706 77.9668C53.1123 77.8288 52.854 77.5858 52.6581 77.2718L50.7487 74.4648C50.3548 73.8368 50.485 73.2398 50.8811 73.0328C51.5495 72.6818 52.0909 73.1368 52.4084 73.6458L53.7925 75.5228L58.4594 72.0828C58.6585 71.9218 59.1687 71.7448 59.4658 71.9038Z" fill="white"/>
<path d="M59.4658 71.9038C59.6843 72.0208 59.9038 72.2128 60.0879 72.4648C60.5227 73.0628 60.1073 73.6238 59.7618 73.9018L54.2198 77.9308C54.1822 77.9718 54.137 78.0068 54.0864 78.0338C53.8883 78.1378 53.6289 78.1048 53.3706 77.9668C53.1123 77.8288 52.854 77.5858 52.6581 77.2718L50.7487 74.4648C50.3548 73.8368 50.485 73.2398 50.8811 73.0328C51.5495 72.6818 52.0909 73.1368 52.4084 73.6458L53.7925 75.5228L58.4594 72.0828C58.6585 71.9218 59.1687 71.7448 59.4658 71.9038Z" stroke="#1D1D1B" stroke-width="0.5" stroke-miterlimit="10"/>
</svg>
